####
#
# Obj File Generated by Style3D V9.3.965
#
####
mtllib part2_s.mtl
v -0.0607082 -0.129351 0.264723
v -0.0494239 -0.132743 0.263635
v -0.038013 -0.135419 0.262559
v -0.0265179 -0.137341 0.261504
v -0.0149798 -0.138478 0.26048
v -0.00344206 -0.138806 0.259492
v 0.00804757 -0.138314 0.25854
v 0.0194425 -0.136996 0.25762
v 0.0306948 -0.13486 0.256718
v 0.0417522 -0.131919 0.255814
v 0.0525339 -0.128125 0.254865
v 0.06298 -0.123533 0.253818
v 0.0730367 -0.118214 0.252612
v 0.0825844 -0.112162 0.251162
v 0.0915171 -0.105436 0.249433
v 0.0998481 -0.0982043 0.247516
v 0.107544 -0.0905489 0.245558
v 0.114542 -0.0824973 0.243757
v 0.120749 -0.0740325 0.242374
v 0.126 -0.0650713 0.24173
v 0.130178 -0.0555324 0.242012
v 0.133407 -0.0454699 0.243032
v 0.13584 -0.034986 0.244469
v 0.137537 -0.0241599 0.246064
v 0.13851 -0.0130697 0.247617
v 0.138709 -0.00180006 0.248984
v 0.13799 0.00955567 0.250071
v 0.136373 0.020881 0.250914
v 0.13394 0.0320888 0.251594
v 0.130668 0.0430984 0.25217
v 0.126552 0.0538327 0.252689
v 0.121678 0.0642509 0.253192
v 0.116056 0.0742933 0.253696
v 0.109697 0.0839014 0.25421
v 0.10261 0.0930153 0.254735
v 0.0948081 0.101572 0.255268
v 0.0863047 0.109508 0.255801
v 0.0771179 0.116764 0.256322
v 0.0672768 0.123278 0.25682
v 0.0666417 0.122771 0.24601
v 0.0660066 0.122264 0.235201
v 0.0659072 0.122195 0.23396
v 0.0758044 0.116137 0.23344
v 0.0849871 0.109202 0.232904
v 0.0934327 0.101476 0.232365
v 0.101134 0.093046 0.231835
v 0.108094 0.0839971 0.231327
v 0.114316 0.0744152 0.230851
v 0.11981 0.0643786 0.230422
v 0.124585 0.05396 0.230051
v 0.128647 0.0432282 0.22975
v 0.13194 0.0322278 0.229538
v 0.134487 0.0210312 0.229418
v 0.136323 0.00970659 0.229378
v 0.137394 -0.00168037 0.2294
v 0.137679 -0.0130346 0.229442
v 0.137275 -0.0242594 0.22947
v 0.13617 -0.0352544 0.229474
v 0.134278 -0.0459129 0.22947
v 0.131439 -0.0561131 0.229499
v 0.127386 -0.0656983 0.229614
v 0.121936 -0.0745765 0.229849
v 0.115286 -0.0828474 0.230168
v 0.107728 -0.0906366 0.230518
v 0.0994554 -0.0979975 0.230862
v 0.090602 -0.104932 0.231187
v 0.0812514 -0.111379 0.231505
v 0.0714205 -0.117189 0.231855
v 0.0611914 -0.122307 0.232278
v 0.0506465 -0.126735 0.232789
v 0.0398165 -0.130403 0.2334
v 0.0287424 -0.133262 0.234108
v 0.0174899 -0.135359 0.234896
v 0.00610436 -0.136682 0.235756
v -0.00537021 -0.137222 0.236676
v -0.0168891 -0.136976 0.237647
v -0.0284053 -0.135947 0.238661
v -0.0398761 -0.134142 0.23971
v -0.0512626 -0.131586 0.240785
v -0.0625287 -0.128322 0.241878
v -0.0624252 -0.128401 0.243133
v -0.0615667 -0.128876 0.253928
v -0.0555828 -0.13093 0.243974
v 0.0721385 0.118657 0.236409
v -0.04809 -0.133153 0.250085
v 0.0729708 0.118734 0.244136
v -0.0548833 -0.131347 0.251039
v 0.0767459 0.115933 0.239774
v 0.0796307 0.114498 0.248039
v 0.0815961 0.112628 0.242151
v 0.085693 0.109763 0.248035
v -0.0557872 -0.130884 0.258806
v 0.0876291 0.107639 0.240405
v 0.0923282 0.103968 0.247007
v 0.098686 0.0976534 0.247963
v 0.105928 0.0888836 0.243541
v 0.0958537 0.100076 0.240384
v -0.0332534 -0.136099 0.250596
v 0.00137123 -0.138247 0.247587
v 0.0242229 -0.135628 0.245807
v 0.0572567 -0.125739 0.243442
v 0.0779433 -0.115672 0.241913
v 0.105776 -0.0960834 0.239297
v 0.121006 -0.080269 0.237556
v 0.135475 -0.05187 0.236917
v 0.139081 -0.0301966 0.237941
v 0.138835 0.00381672 0.239579
v 0.135045 0.0265411 0.240366
v 0.12361 0.0592819 0.24157
v -0.044235 -0.134013 0.257337
v 0.0719496 0.119841 0.251676
v 0.106208 0.0887108 0.250596
v 0.109853 0.083651 0.246782
v 0.109289 0.0837027 0.239026
v 0.115348 0.075034 0.242408
v 0.101239 0.094247 0.239931
v -0.0405694 -0.134616 0.247728
v -0.0338284 -0.135533 0.243375
v -0.0266746 -0.13681 0.246362
v -0.0326413 -0.136402 0.257825
v -0.0267824 -0.137165 0.253649
v -0.0170154 -0.138078 0.250122
v 0.000748977 -0.137586 0.240383
v 0.00792013 -0.13756 0.243432
v -0.00581245 -0.138106 0.24455
v 0.0019756 -0.13866 0.254805
v -0.00495203 -0.138693 0.252061
v 0.00783692 -0.138141 0.250694
v 0.0157679 -0.137043 0.247248
v 0.0235485 -0.134921 0.238645
v 0.0306016 -0.133879 0.241738
v 0.0247917 -0.135969 0.252989
v 0.0305512 -0.134593 0.248938
v 0.0399335 -0.131875 0.245623
v 0.0564519 -0.125046 0.236558
v 0.0631856 -0.122708 0.239581
v 0.0504515 -0.127875 0.240418
v 0.0576005 -0.125833 0.250309
v 0.0513114 -0.128275 0.247679
v 0.0630744 -0.123332 0.246395
v 0.0703654 -0.119746 0.243217
v 0.0771203 -0.115004 0.235397
v 0.0834917 -0.111939 0.238294
v 0.0780653 -0.115576 0.248331
v 0.0833027 -0.112539 0.24454
v 0.0913516 -0.106994 0.24146
v 0.104862 -0.0953266 0.233952
v 0.110481 -0.091449 0.236322
v 0.100281 -0.100094 0.237096
v 0.104825 -0.0952867 0.24398
v 0.100421 -0.0998807 0.242543
v 0.109859 -0.0918377 0.241039
v 0.115745 -0.0865022 0.238692
v 0.119957 -0.0795553 0.232965
v 0.124537 -0.0749126 0.234965
v 0.119363 -0.0793206 0.241064
v 0.123884 -0.0753404 0.238914
v 0.129119 -0.0676956 0.237388
v 0.137655 -0.0411694 0.238124
v 0.133757 -0.051247 0.24056
v 0.133147 -0.0578513 0.238685
v 0.13441 -0.0515375 0.232389
v 0.136038 -0.0456696 0.234385
v 0.133769 -0.0574179 0.234782
v 0.138025 -0.0300116 0.23271
v 0.13935 -0.023495 0.235632
v 0.138129 -0.0360757 0.235146
v 0.138033 -0.0299311 0.242749
v 0.139328 -0.0241461 0.240834
v 0.139955 -0.0144465 0.23955
v 0.137814 0.0039233 0.233155
v 0.137615 0.010658 0.23651
v 0.139094 -0.00296506 0.236177
v 0.138796 0.00382686 0.24598
v 0.139506 -0.00277799 0.242614
v 0.138231 0.00991979 0.243081
v 0.136859 0.0180667 0.240836
v 0.134049 0.0266054 0.23345
v 0.132867 0.0332418 0.237083
v 0.135322 0.0265147 0.247293
v 0.133702 0.0325149 0.244082
v 0.130523 0.0420804 0.24186
v 0.122849 0.0592745 0.234394
v 0.12023 0.0654492 0.238236
v 0.125965 0.0529668 0.237747
v 0.124091 0.0591996 0.248762
v 0.126562 0.0531333 0.245219
v 0.121153 0.0647928 0.245415
v 0.112783 0.0782023 0.236611
v -0.0130564 -0.137868 0.243916
v 0.0436847 -0.130233 0.239621
v 0.0944895 -0.104146 0.236502
v 0.13013 -0.0632593 0.233705
v 0.139341 -0.010016 0.234958
v 0.116887 0.0713157 0.236644
v 0.128361 0.0463035 0.236303
v 0.118012 0.0708214 0.247654
v 0.0669498 0.123448 0.256837
v 0.0559406 0.127697 0.256807
v 0.0446786 0.130829 0.256686
v 0.0332532 0.132914 0.256497
v 0.0217398 0.134008 0.256258
v 0.0102031 0.134162 0.255987
v -0.00129839 0.133423 0.255696
v -0.0127177 0.131836 0.255396
v -0.0240149 0.129451 0.255089
v -0.0351535 0.126316 0.254775
v -0.0460827 0.122423 0.25444
v -0.0567712 0.117846 0.254064
v -0.0671884 0.112663 0.25362
v -0.0772414 0.106867 0.253069
v -0.0868122 0.100476 0.252399
v -0.0958439 0.0935911 0.251664
v -0.104224 0.0862389 0.250949
v -0.1118 0.0783989 0.250376
v -0.118379 0.0700166 0.250101
v -0.12368 0.0609842 0.250319
v -0.127528 0.0512332 0.251139
v -0.130138 0.0408812 0.252434
v -0.131796 0.0300916 0.253996
v -0.132674 0.018981 0.25566
v -0.132873 0.00764763 0.2573
v -0.132421 -0.00381509 0.25882
v -0.13125 -0.0153136 0.260152
v -0.129384 -0.0267509 0.261304
v -0.126865 -0.0380579 0.262314
v -0.123645 -0.0491641 0.263196
v -0.119678 -0.0599963 0.263957
v -0.115 -0.0705106 0.264607
v -0.109587 -0.0806398 0.265136
v -0.10342 -0.0903141 0.265529
v -0.0964801 -0.0994596 0.265766
v -0.0887612 -0.107998 0.265826
v -0.0802649 -0.11585 0.265692
v -0.0710079 -0.122942 0.265347
v -0.0610279 -0.1292 0.264784
v -0.061868 -0.128759 0.253967
v -0.0627083 -0.128318 0.243149
v -0.0728314 -0.123045 0.243755
v -0.0820984 -0.116655 0.244132
v -0.0904656 -0.109258 0.244281
v -0.0979458 -0.100984 0.244221
v -0.104579 -0.0919651 0.243977
v -0.110413 -0.0823318 0.243576
v -0.115499 -0.0721983 0.243046
v -0.119879 -0.0616652 0.242413
v -0.123585 -0.0508217 0.2417
v -0.12658 -0.0397298 0.24092
v -0.128882 -0.0284745 0.240087
v -0.130501 -0.0171356 0.239207
v -0.131327 -0.00580062 0.238277
v -0.131266 0.00541351 0.237297
v -0.130381 0.0164139 0.236292
v -0.128669 0.0271118 0.235299
v -0.126096 0.0374269 0.234374
v -0.122614 0.0472853 0.233587
v -0.118122 0.0566055 0.233025
v -0.112579 0.0653673 0.232732
v -0.106161 0.0736807 0.232644
v -0.0990473 0.0816415 0.232669
v -0.0913171 0.0892704 0.23274
v -0.0830101 0.096541 0.232818
v -0.0741396 0.103376 0.23289
v -0.0646802 0.109627 0.232963
v -0.0547298 0.115242 0.233058
v -0.0444043 0.120221 0.233187
v -0.0337557 0.124486 0.233358
v -0.0228407 0.127965 0.233569
v -0.0117378 0.130661 0.233811
v -0.000501985 0.132515 0.234072
v 0.0108094 0.13346 0.23434
v 0.0221311 0.133429 0.234601
v 0.0333845 0.132358 0.234837
v 0.0444805 0.130191 0.235029
v 0.0553148 0.126888 0.235154
v 0.065763 0.122436 0.235187
v 0.0663564 0.122942 0.246012
v -0.0665281 -0.126151 0.259688
v -0.0756787 -0.120781 0.254763
v -0.0691783 -0.124968 0.25146
v 0.0613389 0.125564 0.251423
v 0.058938 0.126098 0.243048
v 0.050143 0.129189 0.242635
v 0.039089 0.132095 0.245667
v -0.0857059 -0.112844 0.255074
v -0.107493 -0.0866457 0.25465
v -0.117929 -0.0663042 0.253572
v -0.128209 -0.0333169 0.251211
v -0.131557 -0.0105155 0.249171
v -0.131275 0.0233149 0.245329
v -0.12725 0.0445527 0.242676
v -0.112846 0.0721898 0.241272
v -0.0979911 0.0879145 0.241969
v -0.0709713 0.108337 0.243171
v -0.0506159 0.119183 0.243692
v -0.0179147 0.130459 0.244463
v 0.00478135 0.133926 0.24503
v -0.0761228 -0.119718 0.261688
v -0.0773035 -0.120007 0.247876
v 0.0502701 0.129304 0.250922
v 0.0390228 0.13174 0.238678
v 0.0329944 0.132924 0.242061
v 0.0390409 0.132117 0.252724
v 0.0328648 0.133085 0.249288
v 0.0231435 0.134135 0.245351
v 0.0163509 0.134163 0.24055
v 0.0155553 0.134414 0.249211
v -0.0849832 -0.112274 0.262015
v -0.0899208 -0.108265 0.258604
v -0.0861308 -0.112994 0.248041
v -0.0902248 -0.108965 0.251621
v -0.0965882 -0.101719 0.254599
v -0.107018 -0.0859971 0.26161
v -0.110434 -0.0809453 0.257885
v -0.103855 -0.0915419 0.25833
v -0.107659 -0.0870883 0.247629
v -0.104306 -0.092032 0.251189
v -0.110519 -0.0817898 0.250908
v -0.114307 -0.0743152 0.253626
v -0.100249 -0.0976228 0.250116
v -0.117688 -0.0656929 0.260541
v -0.120184 -0.0601852 0.256687
v -0.117893 -0.0667768 0.246559
v -0.120076 -0.0610267 0.249715
v -0.123283 -0.0515725 0.252089
v -0.128241 -0.0327441 0.258091
v -0.129443 -0.0268315 0.254111
v -0.12684 -0.039192 0.25516
v -0.127959 -0.0338447 0.24428
v -0.126774 -0.039651 0.24806
v -0.129218 -0.0277396 0.247285
v -0.130636 -0.0192975 0.249606
v -0.124917 -0.0465029 0.247345
v -0.131809 -0.00990214 0.255899
v -0.132148 -0.00395247 0.251848
v -0.131136 -0.0111515 0.242448
v -0.1318 -0.00493781 0.245236
v -0.132278 0.00501085 0.247049
v -0.132062 0.0241732 0.251479
v -0.130925 0.0297067 0.247592
v -0.132281 0.0177311 0.249195
v -0.130206 0.0223302 0.239169
v -0.131481 0.0169607 0.242765
v -0.129962 0.0284197 0.241572
v -0.129156 0.0365773 0.243255
v -0.131789 0.0100683 0.242392
v -0.128484 0.0456301 0.248512
v -0.126137 0.0505845 0.245003
v -0.125576 0.0432367 0.23699
v -0.124636 0.0490029 0.239352
v -0.12211 0.0578126 0.241054
v -0.10563 0.0801136 0.241065
v -0.110712 0.0705204 0.235676
v -0.11526 0.0667734 0.238434
v -0.118349 0.0612422 0.237431
v -0.119821 0.0646134 0.244168
v -0.11444 0.0735671 0.247028
v -0.110066 0.0772844 0.244534
v -0.0994711 0.0893098 0.247998
v -0.0941671 0.0926229 0.245286
v -0.102943 0.0847538 0.244708
v -0.0962824 0.0863767 0.235921
v -0.092907 0.0909754 0.239142
v -0.0862076 0.0976283 0.242137
v -0.0717671 0.109267 0.249811
v -0.0658887 0.11193 0.246704
v -0.0767391 0.105518 0.246263
v -0.0700199 0.107194 0.236495
v -0.075611 0.104396 0.239586
v -0.0654586 0.11086 0.239947
v -0.0585181 0.115261 0.243107
v -0.0810449 0.10019 0.238288
v -0.0511629 0.119848 0.250544
v -0.045059 0.121986 0.247287
v -0.0499405 0.118274 0.236849
v -0.0448594 0.121185 0.240378
v -0.0359536 0.125035 0.243549
v -0.018232 0.13072 0.251454
v -0.0119284 0.131959 0.248115
v -0.0241818 0.12906 0.247805
v -0.0175456 0.129888 0.237471
v -0.0237131 0.128633 0.240673
v -0.0119527 0.131515 0.241105
v -0.00392347 0.132977 0.244396
v -0.0303297 0.126536 0.239314
v 0.00455525 0.133979 0.252043
v 0.00502006 0.133465 0.238011
v -0.0994912 -0.0971396 0.259466
v -0.124916 -0.046062 0.256673
v -0.132586 0.0108022 0.251006
v -0.082784 0.101649 0.246891
v -0.0311333 0.127048 0.248623
# 392 vertices
vn 0.301407 0.953488 0.00369843
vn 0.260336 0.96549 0.00745128
vn 0.200109 0.979748 0.0071509
vn 0.125837 0.991994 0.0106671
vn 0.0680158 0.997472 0.0205885
vn 0.00051228 0.999981 0.0061531
vn -0.0858049 0.996193 0.0153853
vn -0.142717 0.989238 0.0322393
vn -0.225658 0.973722 0.0307255
vn -0.289288 0.956016 0.0484401
vn -0.359252 0.932578 0.0351664
vn -0.43211 0.901642 0.0179591
vn -0.477241 0.878388 -0.0259835
vn -0.578565 0.807749 -0.113155
vn -0.611367 0.775474 -0.157705
vn -0.656893 0.676124 -0.333688
vn -0.685005 0.529521 -0.500376
vn -0.662281 0.484176 -0.571802
vn -0.631648 0.331491 -0.70081
vn -0.645891 0.330142 -0.688354
vn -0.614615 0.276958 -0.738609
vn -0.797322 0.221431 -0.561468
vn -0.852568 0.226466 -0.471001
vn -0.930175 0.129912 -0.343361
vn -0.981179 0.0374332 -0.189438
vn -0.992234 -0.0139396 -0.123606
vn -0.991841 -0.115189 -0.0546261
vn -0.98419 -0.176534 -0.0143748
vn -0.965251 -0.261287 0.00455476
vn -0.943973 -0.3279 0.0373691
vn -0.922772 -0.384543 0.0248669
vn -0.888337 -0.458986 0.0137799
vn -0.85214 -0.523238 0.00895466
vn -0.81808 -0.575045 -0.00828408
vn -0.76324 -0.645894 -0.0168991
vn -0.706759 -0.707386 -0.00985497
vn -0.644244 -0.764621 0.0174667
vn -0.575394 -0.816459 0.0481272
vn -0.543388 -0.836914 0.0656101
vn -0.527369 -0.847128 0.0652378
vn -0.518143 -0.851627 0.0791194
vn -0.51769 -0.851082 0.0875068
vn -0.563115 -0.823952 0.0632777
vn -0.633035 -0.770733 0.0723698
vn -0.697298 -0.711312 0.0883795
vn -0.759955 -0.641515 0.104532
vn -0.803953 -0.58465 0.108832
vn -0.851255 -0.510174 0.122829
vn -0.883015 -0.453283 0.121732
vn -0.916185 -0.380678 0.125259
vn -0.937022 -0.325371 0.126981
vn -0.951318 -0.262002 0.162327
vn -0.967174 -0.188283 0.170657
vn -0.969822 -0.134022 0.203676
vn -0.96695 -0.0695715 0.24529
vn -0.963783 0.0114357 0.266443
vn -0.944187 0.0515465 0.325353
vn -0.927802 0.139334 0.346077
vn -0.918922 0.171417 0.355244
vn -0.836293 0.325742 0.441028
vn -0.837913 0.427513 0.339315
vn -0.73906 0.521983 0.425822
vn -0.680254 0.638747 0.359523
vn -0.630079 0.663069 0.404154
vn -0.571332 0.744274 0.345884
vn -0.549183 0.798219 0.247476
vn -0.518794 0.81885 0.245638
vn -0.447626 0.876022 0.17949
vn -0.405586 0.899325 0.163448
vn -0.344473 0.927484 0.1453
vn -0.266376 0.953869 0.138483
vn -0.211459 0.967573 0.138161
vn -0.135231 0.982356 0.129191
vn -0.0738218 0.987802 0.137105
vn 0.00274694 0.992477 0.122404
vn 0.0717787 0.992351 0.100432
vn 0.126348 0.988054 0.0882368
vn 0.197334 0.976996 0.0808623
vn 0.230663 0.967175 0.106614
vn 0.330987 0.94077 0.0734785
vn 0.345431 0.938124 0.0245321
vn 0.338509 0.940954 0.00413543
vn 0.288858 0.952027 0.101027
vn -0.524076 -0.848754 0.0704349
vn 0.230114 0.972692 0.0303006
vn -0.538711 -0.840522 0.0575716
vn 0.298535 0.954397 0.00157753
vn -0.567446 -0.820995 0.0630303
vn -0.588591 -0.807231 0.0440341
vn -0.603861 -0.794581 0.0631945
vn -0.634087 -0.7724 0.0364875
vn 0.293427 0.955974 -0.00369037
vn -0.652194 -0.755307 0.064461
vn -0.681741 -0.730902 0.0317983
vn -0.73594 -0.676896 0.0143211
vn -0.788446 -0.612749 0.0537732
vn -0.707719 -0.702621 0.0738809
vn 0.167623 0.984976 0.0415253
vn -0.0343217 0.996361 0.0780203
vn -0.173832 0.980785 0.0885637
vn -0.375064 0.923164 0.0842351
vn -0.483591 0.872196 0.0735782
vn -0.652787 0.757227 -0.0218062
vn -0.780462 0.617431 -0.0982741
vn -0.967445 0.228574 -0.108649
vn -0.994388 0.104688 -0.0152831
vn -0.991611 -0.105929 0.0740706
vn -0.969623 -0.22787 0.0889226
vn -0.904208 -0.42013 0.0768019
vn 0.22449 0.974467 0.00423439
vn -0.544255 -0.836836 0.0590881
vn -0.788597 -0.614844 -0.00901035
vn -0.822524 -0.568131 0.0261011
vn -0.811102 -0.578963 0.0831578
vn -0.8542 -0.516772 0.0573492
vn -0.754336 -0.651732 0.0788883
vn 0.197812 0.978923 0.0507861
vn 0.162448 0.983485 0.0797999
vn 0.121065 0.990155 0.070266
vn 0.170232 0.985347 0.0105952
vn 0.123819 0.991791 0.0319357
vn 0.0778476 0.995615 0.051863
vn -0.0329587 0.992145 0.120677
vn -0.083125 0.990918 0.105693
vn 0.00617985 0.995616 0.0933339
vn -0.0411363 0.998908 0.0221357
vn 0.00968959 0.998925 0.0453315
vn -0.0839148 0.995102 0.0522585
vn -0.130277 0.988417 0.0778392
vn -0.169898 0.976857 0.129944
vn -0.225278 0.967625 0.113808
vn -0.178695 0.983239 0.0361912
vn -0.227165 0.971708 0.0646558
vn -0.275 0.95818 0.0791547
vn -0.36944 0.917422 0.147819
vn -0.413755 0.901345 0.128001
vn -0.342177 0.932765 0.113423
vn -0.391797 0.919665 0.0266815
vn -0.341543 0.938046 0.0584685
vn -0.423357 0.905202 0.037127
vn -0.448545 0.891276 0.0665947
vn -0.473716 0.857458 0.200897
vn -0.535404 0.82974 0.157716
vn -0.516017 0.854282 -0.0626789
vn -0.559174 0.828497 -0.0302828
vn -0.585827 0.810278 0.0160006
vn -0.606328 0.722197 0.332863
vn -0.681841 0.70347 0.200556
vn -0.586644 0.794325 0.157784
vn -0.665784 0.641195 -0.381576
vn -0.627276 0.762474 -0.158612
vn -0.707071 0.643564 -0.293048
vn -0.753378 0.641902 -0.142769
vn -0.705661 0.607683 0.364368
vn -0.819805 0.539553 0.191838
vn -0.665736 0.439587 -0.602958
vn -0.776232 0.466108 -0.424508
vn -0.872349 0.442418 -0.208021
vn -0.964638 0.211593 -0.157168
vn -0.759081 0.243348 -0.603803
vn -0.829211 0.36553 -0.422843
vn -0.905074 0.214303 0.367308
vn -0.948935 0.170705 0.265296
vn -0.904066 0.391337 0.171813
vn -0.950581 0.0884963 0.297598
vn -0.984749 0.0445863 0.168172
vn -0.967374 0.137737 0.212642
vn -0.917682 0.166747 -0.360632
vn -0.982797 0.086002 -0.163445
vn -0.999921 0.0124599 0.00188166
vn -0.974386 -0.101656 0.200596
vn -0.979276 -0.145762 0.140612
vn -0.986694 -0.0727698 0.145394
vn -0.994704 -0.077714 -0.0672615
vn -0.998524 -0.0383658 -0.0384366
vn -0.991028 -0.132922 0.0139455
vn -0.980823 -0.180137 0.0744129
vn -0.961898 -0.220358 0.161849
vn -0.952737 -0.279033 0.120134
vn -0.976136 -0.217144 0.00255773
vn -0.960137 -0.275235 0.0488132
vn -0.941853 -0.326955 0.0775397
vn -0.900795 -0.417897 0.118027
vn -0.882998 -0.460815 0.0892396
vn -0.922191 -0.373968 0.0985434
vn -0.905717 -0.422992 0.0274653
vn -0.924949 -0.375611 0.0581937
vn -0.885898 -0.460955 0.0520037
vn -0.835615 -0.539971 0.100887
vn 0.0495508 0.994588 0.0913166
vn -0.292545 0.949207 0.115865
vn -0.556544 0.809292 0.1879
vn -0.872657 0.406226 0.271018
vn -0.981093 -0.000399419 0.193539
vn -0.86799 -0.486508 0.099517
vn -0.931228 -0.348057 0.108028
vn -0.870994 -0.490293 0.0313466
vn -0.385353 -0.921947 0.0389386
vn -0.317803 -0.947779 0.0267523
vn -0.235013 -0.971992 0.000108657
vn -0.127471 -0.99149 -0.0264433
vn -0.0603139 -0.997805 -0.0273249
vn 0.0279574 -0.999258 -0.0264755
vn 0.109307 -0.994008 -0.000866296
vn 0.170173 -0.985413 -0.00154919
vn 0.252482 -0.966829 0.0386665
vn 0.309962 -0.947327 0.0805951
vn 0.3586 -0.927509 0.105509
vn 0.423872 -0.89486 0.139851
vn 0.459569 -0.869986 0.178665
vn 0.512936 -0.834379 0.201762
vn 0.562263 -0.790838 0.241734
vn 0.592671 -0.76052 0.265237
vn 0.658569 -0.692899 0.293562
vn 0.698131 -0.641298 0.318355
vn 0.783041 -0.548689 0.292897
vn 0.874593 -0.407149 0.263283
vn 0.928833 -0.296336 0.222383
vn 0.971151 -0.170871 0.166342
vn 0.985797 -0.110405 0.126548
vn 0.997245 -0.0417979 0.0612874
vn 0.998799 0.019623 0.0449045
vn 0.997221 0.0679042 0.0306623
vn 0.991463 0.130344 0.00342097
vn 0.983336 0.180964 -0.0173882
vn 0.968913 0.243729 -0.0424633
vn 0.950416 0.306837 -0.0505942
vn 0.929398 0.35922 -0.0847382
vn 0.894771 0.433622 -0.106564
vn 0.864621 0.484247 -0.133924
vn 0.809211 0.566312 -0.156424
vn 0.759723 0.633743 -0.145573
vn 0.704373 0.695449 -0.14216
vn 0.637987 0.76312 -0.103057
vn 0.554904 0.829599 -0.0620335
vn 0.506237 0.861851 -0.0306249
vn 0.469691 0.882789 -0.00859641
vn 0.461185 0.887303 0.00134784
vn 0.515417 0.856784 -0.0163274
vn 0.618126 0.783857 -0.0590627
vn 0.707074 0.705688 -0.0452987
vn 0.769534 0.637141 -0.0432338
vn 0.825738 0.563853 -0.0150627
vn 0.880535 0.473827 -0.0120577
vn 0.905322 0.424661 -0.00742588
vn 0.938174 0.346153 0.00280882
vn 0.95408 0.299508 0.00511851
vn 0.971523 0.235239 0.0283915
vn 0.98498 0.169609 0.0323759
vn 0.993 0.111663 0.0385111
vn 0.997243 0.0409518 0.0618767
vn 0.99341 -0.0110214 0.114086
vn 0.979777 -0.0900354 0.178693
vn 0.957786 -0.170698 0.231319
vn 0.925426 -0.211844 0.314179
vn 0.850998 -0.332813 0.406249
vn 0.79546 -0.388719 0.464911
vn 0.720339 -0.501348 0.479334
vn 0.685896 -0.587988 0.42874
vn 0.657554 -0.63594 0.403983
vn 0.624739 -0.696231 0.353503
vn 0.596215 -0.743789 0.302169
vn 0.551392 -0.79439 0.254778
vn 0.500684 -0.839228 0.212159
vn 0.447406 -0.876868 0.175868
vn 0.392242 -0.907337 0.151278
vn 0.336312 -0.931636 0.137656
vn 0.266345 -0.954153 0.136576
vn 0.186893 -0.974083 0.127408
vn 0.121437 -0.987634 0.0991532
vn 0.0381404 -0.994755 0.0949109
vn -0.0607195 -0.994579 0.084411
vn -0.133119 -0.987778 0.0810872
vn -0.246832 -0.965959 0.0774375
vn -0.341801 -0.936436 0.0791146
vn -0.401736 -0.912568 0.0763339
vn -0.410317 -0.909754 0.0631429
vn 0.511156 0.858556 -0.040019
vn 0.571201 0.818433 -0.0624307
vn 0.49458 0.868834 -0.0227503
vn -0.367413 -0.929165 0.0407505
vn -0.368457 -0.927971 0.0557659
vn -0.289843 -0.955988 0.0455899
vn -0.199873 -0.9795 0.0250983
vn 0.653723 0.751322 -0.0903407
vn 0.850929 0.519163 -0.0799398
vn 0.920513 0.388458 -0.0418997
vn 0.97907 0.203506 0.00282848
vn 0.99495 0.0917139 0.0407913
vn 0.981709 -0.101519 0.161064
vn 0.9262 -0.2426 0.288617
vn 0.715112 -0.579419 0.391009
vn 0.627597 -0.700928 0.338855
vn 0.506815 -0.839317 0.196687
vn 0.411771 -0.901037 0.136299
vn 0.23122 -0.970488 0.0684872
vn 0.0731716 -0.996604 0.0377664
vn 0.593296 0.798536 -0.101687
vn 0.576951 0.816096 -0.0333768
vn -0.281367 -0.959449 0.0170303
vn -0.197781 -0.977146 0.0778982
vn -0.129086 -0.990385 0.049745
vn -0.190989 -0.981395 -0.019656
vn -0.125741 -0.992061 -0.00202675
vn -0.0726363 -0.997053 0.0246779
vn -0.00251803 -0.997741 0.0671267
vn -0.000782227 -0.999996 -0.00288531
vn 0.661604 0.737986 -0.132877
vn 0.709051 0.69405 -0.124668
vn 0.652866 0.756019 -0.0469222
vn 0.708917 0.70181 -0.0700015
vn 0.757213 0.646241 -0.0948771
vn 0.840687 0.522738 -0.141387
vn 0.872856 0.478153 -0.0974288
vn 0.812122 0.571757 -0.116415
vn 0.855342 0.517754 -0.0179038
vn 0.81981 0.569528 -0.0595823
vn 0.878963 0.475062 -0.0417182
vn 0.896201 0.44039 -0.0536678
vn 0.793977 0.60516 -0.058156
vn 0.913543 0.395955 -0.093057
vn 0.936469 0.347125 -0.0502927
vn 0.922179 0.386761 -0.00104332
vn 0.939423 0.342427 -0.0151154
vn 0.949694 0.312569 -0.0195623
vn 0.97752 0.209039 -0.0275179
vn 0.98476 0.173904 -0.00208474
vn 0.969636 0.243704 -0.0203301
vn 0.978826 0.20251 0.0298118
vn 0.970911 0.239264 0.00920064
vn 0.984986 0.171111 0.022864
vn 0.990577 0.134669 0.0249469
vn 0.960745 0.277408 0.00368223
vn 0.995106 0.0972548 0.0174873
vn 0.997463 0.0586043 0.0404237
vn 0.995121 0.0851322 0.049871
vn 0.996875 0.0510147 0.0603107
vn 0.996793 0.0186322 0.0778252
vn 0.991408 -0.0817259 0.102137
vn 0.979425 -0.122585 0.160308
vn 0.993476 -0.052499 0.101239
vn 0.971908 -0.121553 0.201546
vn 0.984707 -0.0769625 0.156295
vn 0.965261 -0.143809 0.218153
vn 0.954772 -0.169889 0.244023
vn 0.991465 -0.0322987 0.126311
vn 0.95315 -0.230055 0.196416
vn 0.910705 -0.306962 0.27639
vn 0.894176 -0.257463 0.366281
vn 0.873775 -0.316593 0.36917
vn 0.848513 -0.377861 0.370467
vn 0.6715 -0.636482 0.379445
vn 0.696596 -0.555889 0.453587
vn 0.736258 -0.520833 0.432039
vn 0.76816 -0.451891 0.453568
vn 0.805247 -0.491371 0.331862
vn 0.741019 -0.5925 0.315964
vn 0.69298 -0.633538 0.344105
vn 0.624938 -0.727581 0.28298
vn 0.596614 -0.747438 0.292214
vn 0.654564 -0.679003 0.332417
vn 0.637762 -0.672792 0.37498
vn 0.611748 -0.719426 0.328924
vn 0.586699 -0.76265 0.272306
vn 0.489105 -0.852513 0.184386
vn 0.470076 -0.866672 0.167056
vn 0.527951 -0.822205 0.212711
vn 0.525847 -0.819368 0.2283
vn 0.54486 -0.805914 0.231582
vn 0.488923 -0.851639 0.188855
vn 0.450409 -0.879338 0.154588
vn 0.572225 -0.775274 0.267412
vn 0.398092 -0.909856 0.116979
vn 0.364055 -0.924986 0.108929
vn 0.421767 -0.892067 0.162261
vn 0.380717 -0.914744 0.135268
vn 0.337353 -0.935928 0.101154
vn 0.218473 -0.975623 0.0207022
vn 0.172642 -0.98451 0.0305801
vn 0.265921 -0.962174 0.0592169
vn 0.231654 -0.964906 0.123661
vn 0.26763 -0.958665 0.0966222
vn 0.182185 -0.979158 0.0897671
vn 0.126387 -0.990713 0.0501367
vn 0.305613 -0.945347 0.113664
vn 0.0704986 -0.997467 -0.0094905
vn 0.077757 -0.992944 0.0895276
vn 0.784937 0.606256 -0.127782
vn 0.95806 0.28465 -0.0330901
vn 0.99778 -0.00734701 0.0661852
vn 0.551858 -0.800226 0.234715
vn 0.290639 -0.954101 0.0722598
# 392 vertex normals
vt 0.000580788 0.936003 0
vt 0.0106392 0.936003 0
vt 0.0206985 0.936003 0
vt 0.0307579 0.936003 0
vt 0.0408163 0.936003 0
vt 0.0508757 0.936003 0
vt 0.060935 0.936003 0
vt 0.0709934 0.936003 0
vt 0.0810528 0.936003 0
vt 0.0911121 0.936003 0
vt 0.101171 0.936003 0
vt 0.11123 0.936003 0
vt 0.121289 0.936003 0
vt 0.131348 0.936003 0
vt 0.141407 0.936003 0
vt 0.151466 0.936003 0
vt 0.161525 0.936003 0
vt 0.171584 0.936003 0
vt 0.181643 0.936003 0
vt 0.191702 0.936003 0
vt 0.201761 0.936003 0
vt 0.211821 0.936003 0
vt 0.221879 0.936003 0
vt 0.231938 0.936003 0
vt 0.241998 0.936003 0
vt 0.252056 0.936003 0
vt 0.262115 0.936003 0
vt 0.272175 0.936003 0
vt 0.282233 0.936003 0
vt 0.292293 0.936003 0
vt 0.302351 0.936003 0
vt 0.31241 0.936003 0
vt 0.32247 0.936003 0
vt 0.332528 0.936003 0
vt 0.342588 0.936003 0
vt 0.352647 0.936003 0
vt 0.362705 0.936003 0
vt 0.372766 0.936003 0
vt 0.382824 0.936003 0
vt 0.382824 0.926773 0
vt 0.382824 0.917543 0
vt 0.382824 0.916466 0
vt 0.372766 0.916466 0
vt 0.362705 0.916466 0
vt 0.352647 0.916466 0
vt 0.342588 0.916466 0
vt 0.332528 0.916466 0
vt 0.32247 0.916466 0
vt 0.31241 0.916466 0
vt 0.302351 0.916466 0
vt 0.292293 0.916466 0
vt 0.282233 0.916466 0
vt 0.272175 0.916466 0
vt 0.262115 0.916466 0
vt 0.252056 0.916466 0
vt 0.241998 0.916466 0
vt 0.231938 0.916466 0
vt 0.221879 0.916466 0
vt 0.211821 0.916466 0
vt 0.201761 0.916466 0
vt 0.191702 0.916466 0
vt 0.181643 0.916466 0
vt 0.171584 0.916466 0
vt 0.161525 0.916466 0
vt 0.151466 0.916466 0
vt 0.141407 0.916466 0
vt 0.131348 0.916466 0
vt 0.121289 0.916466 0
vt 0.11123 0.916466 0
vt 0.101171 0.916466 0
vt 0.0911121 0.916466 0
vt 0.0810528 0.916466 0
vt 0.0709934 0.916466 0
vt 0.060935 0.916466 0
vt 0.0508757 0.916466 0
vt 0.0408163 0.916466 0
vt 0.0307579 0.916466 0
vt 0.0206985 0.916466 0
vt 0.0106392 0.916466 0
vt 0.000580788 0.916466 0
vt 0.000580788 0.917543 0
vt 0.000580788 0.926773 0
vt 0.00670433 0.918833 0
vt 0.3767 0.918833 0
vt 0.012867 0.924626 0
vt 0.376334 0.925447 0
vt 0.00682449 0.92488 0
vt 0.372177 0.921899 0
vt 0.369652 0.929068 0
vt 0.367144 0.924154 0
vt 0.36301 0.929361 0
vt 0.00538921 0.931388 0
vt 0.360309 0.922975 0
vt 0.355361 0.928831 0
vt 0.347617 0.929999 0
vt 0.337559 0.926681 0
vt 0.350582 0.9234 0
vt 0.0257282 0.926234 0
vt 0.0559053 0.926234 0
vt 0.0760231 0.926234 0
vt 0.1062 0.926234 0
vt 0.126319 0.926234 0
vt 0.156496 0.926234 0
vt 0.176614 0.926234 0
vt 0.20679 0.926234 0
vt 0.226909 0.926234 0
vt 0.257086 0.926234 0
vt 0.277205 0.926234 0
vt 0.307382 0.926234 0
vt 0.0156689 0.931081 0
vt 0.377794 0.931822 0
vt 0.337559 0.932698 0
vt 0.331981 0.929689 0
vt 0.332009 0.923067 0
vt 0.322907 0.92634 0
vt 0.343639 0.923329 0
vt 0.0195732 0.923224 0
vt 0.0257282 0.920055 0
vt 0.0317278 0.923145 0
vt 0.0257282 0.932413 0
vt 0.0311146 0.929323 0
vt 0.0398169 0.927069 0
vt 0.0559053 0.920055 0
vt 0.0619049 0.923145 0
vt 0.0499048 0.923145 0
vt 0.0559053 0.932413 0
vt 0.0500984 0.929596 0
vt 0.0612917 0.929323 0
vt 0.0684767 0.926918 0
vt 0.0760231 0.920055 0
vt 0.0820236 0.923145 0
vt 0.0760231 0.932413 0
vt 0.0814095 0.929323 0
vt 0.0901117 0.927069 0
vt 0.1062 0.920055 0
vt 0.112201 0.923145 0
vt 0.1002 0.923145 0
vt 0.1062 0.932413 0
vt 0.100394 0.929596 0
vt 0.111587 0.929323 0
vt 0.118773 0.926918 0
vt 0.126319 0.920055 0
vt 0.132319 0.923145 0
vt 0.126319 0.932413 0
vt 0.131704 0.929323 0
vt 0.140407 0.927069 0
vt 0.156496 0.920055 0
vt 0.162497 0.923145 0
vt 0.150495 0.923145 0
vt 0.156496 0.932413 0
vt 0.150689 0.929596 0
vt 0.161881 0.929323 0
vt 0.169067 0.926918 0
vt 0.176614 0.920055 0
vt 0.182614 0.923145 0
vt 0.176614 0.932413 0
vt 0.182 0.929323 0
vt 0.190702 0.927069 0
vt 0.21685 0.927234 0
vt 0.20679 0.932413 0
vt 0.20079 0.929323 0
vt 0.20679 0.920055 0
vt 0.212484 0.922714 0
vt 0.201405 0.923145 0
vt 0.226909 0.920055 0
vt 0.232909 0.923145 0
vt 0.221522 0.923145 0
vt 0.226909 0.932413 0
vt 0.232295 0.929323 0
vt 0.240997 0.927069 0
vt 0.257086 0.920055 0
vt 0.263086 0.923145 0
vt 0.251085 0.923145 0
vt 0.257086 0.932413 0
vt 0.251279 0.929596 0
vt 0.262472 0.929323 0
vt 0.269657 0.926918 0
vt 0.277205 0.920055 0
vt 0.283204 0.923145 0
vt 0.277205 0.932413 0
vt 0.28259 0.929323 0
vt 0.291293 0.927069 0
vt 0.307382 0.920055 0
vt 0.313381 0.923145 0
vt 0.301381 0.923145 0
vt 0.307382 0.932413 0
vt 0.301575 0.929596 0
vt 0.312768 0.929323 0
vt 0.326215 0.921247 0
vt 0.043685 0.922085 0
vt 0.0939808 0.922085 0
vt 0.144276 0.922085 0
vt 0.194959 0.922122 0
vt 0.244866 0.922085 0
vt 0.319213 0.921557 0
vt 0.295161 0.922085 0
vt 0.318768 0.930994 0
vt 0.382824 0.937252 0
vt 0.372766 0.937252 0
vt 0.362705 0.937252 0
vt 0.352647 0.937252 0
vt 0.342588 0.937252 0
vt 0.332528 0.937252 0
vt 0.32247 0.937252 0
vt 0.31241 0.937252 0
vt 0.302351 0.937252 0
vt 0.292293 0.937252 0
vt 0.282233 0.937252 0
vt 0.272175 0.937252 0
vt 0.262115 0.937252 0
vt 0.252056 0.937252 0
vt 0.241998 0.937252 0
vt 0.231938 0.937252 0
vt 0.221879 0.937252 0
vt 0.211821 0.937252 0
vt 0.201761 0.937252 0
vt 0.191702 0.937252 0
vt 0.181643 0.937252 0
vt 0.171584 0.937252 0
vt 0.161525 0.937252 0
vt 0.151466 0.937252 0
vt 0.141407 0.937252 0
vt 0.131348 0.937252 0
vt 0.121289 0.937252 0
vt 0.11123 0.937252 0
vt 0.101171 0.937252 0
vt 0.0911121 0.937252 0
vt 0.0810528 0.937252 0
vt 0.0709934 0.937252 0
vt 0.060935 0.937252 0
vt 0.0508757 0.937252 0
vt 0.0408163 0.937252 0
vt 0.0307579 0.937252 0
vt 0.0206985 0.937252 0
vt 0.0106392 0.937252 0
vt 0.000580788 0.937252 0
vt 0.000580788 0.946481 0
vt 0.000580788 0.955711 0
vt 0.0106392 0.955711 0
vt 0.0206985 0.955711 0
vt 0.0307579 0.955711 0
vt 0.0408163 0.955711 0
vt 0.0508757 0.955711 0
vt 0.060935 0.955711 0
vt 0.0709934 0.955711 0
vt 0.0810528 0.955711 0
vt 0.0911121 0.955711 0
vt 0.101171 0.955711 0
vt 0.11123 0.955711 0
vt 0.121289 0.955711 0
vt 0.131348 0.955711 0
vt 0.141407 0.955711 0
vt 0.151466 0.955711 0
vt 0.161525 0.955711 0
vt 0.171584 0.955711 0
vt 0.181643 0.955711 0
vt 0.191702 0.955711 0
vt 0.201761 0.955711 0
vt 0.211821 0.955711 0
vt 0.221879 0.955711 0
vt 0.231938 0.955711 0
vt 0.241998 0.955711 0
vt 0.252056 0.955711 0
vt 0.262115 0.955711 0
vt 0.272175 0.955711 0
vt 0.282233 0.955711 0
vt 0.292293 0.955711 0
vt 0.302351 0.955711 0
vt 0.31241 0.955711 0
vt 0.32247 0.955711 0
vt 0.332528 0.955711 0
vt 0.342588 0.955711 0
vt 0.352647 0.955711 0
vt 0.362705 0.955711 0
vt 0.372766 0.955711 0
vt 0.382824 0.955711 0
vt 0.382824 0.946481 0
vt 0.00560951 0.941866 0
vt 0.0144768 0.946481 0
vt 0.00752831 0.949005 0
vt 0.377794 0.941866 0
vt 0.375875 0.949005 0
vt 0.367736 0.949303 0
vt 0.357677 0.946586 0
vt 0.0257282 0.946481 0
vt 0.0559053 0.946481 0
vt 0.0760231 0.946481 0
vt 0.1062 0.946481 0
vt 0.126319 0.946481 0
vt 0.156496 0.946481 0
vt 0.176614 0.946481 0
vt 0.20679 0.946481 0
vt 0.226909 0.946481 0
vt 0.257086 0.946481 0
vt 0.277205 0.946481 0
vt 0.307382 0.946481 0
vt 0.327499 0.946481 0
vt 0.0156689 0.940573 0
vt 0.0156689 0.95239 0
vt 0.367736 0.942228 0
vt 0.357677 0.952535 0
vt 0.35228 0.94956 0
vt 0.357677 0.940564 0
vt 0.352204 0.943398 0
vt 0.343594 0.946585 0
vt 0.337559 0.950538 0
vt 0.337027 0.943144 0
vt 0.0257282 0.940495 0
vt 0.0312195 0.943489 0
vt 0.0257282 0.952467 0
vt 0.03092 0.949473 0
vt 0.0394554 0.946901 0
vt 0.0559053 0.940495 0
vt 0.0613966 0.943489 0
vt 0.0504131 0.943489 0
vt 0.0559053 0.952467 0
vt 0.050499 0.949606 0
vt 0.0610971 0.949473 0
vt 0.0683317 0.946836 0
vt 0.0443897 0.950648 0
vt 0.0760231 0.940495 0
vt 0.0815153 0.943489 0
vt 0.0760231 0.952467 0
vt 0.0812149 0.949473 0
vt 0.0897503 0.946901 0
vt 0.1062 0.940495 0
vt 0.111692 0.943489 0
vt 0.100709 0.943489 0
vt 0.1062 0.952467 0
vt 0.100793 0.949606 0
vt 0.111392 0.949473 0
vt 0.118627 0.946836 0
vt 0.0946856 0.950648 0
vt 0.126319 0.940495 0
vt 0.13181 0.943489 0
vt 0.126319 0.952467 0
vt 0.131511 0.949473 0
vt 0.140045 0.946901 0
vt 0.156496 0.940495 0
vt 0.161987 0.943489 0
vt 0.151004 0.943489 0
vt 0.156496 0.952467 0
vt 0.151089 0.949606 0
vt 0.161688 0.949473 0
vt 0.168921 0.946836 0
vt 0.14498 0.950648 0
vt 0.176614 0.940495 0
vt 0.182105 0.943489 0
vt 0.176614 0.952467 0
vt 0.181806 0.949473 0
vt 0.190341 0.946901 0
vt 0.21685 0.946985 0
vt 0.20679 0.952467 0
vt 0.201299 0.949473 0
vt 0.195241 0.950654 0
vt 0.196959 0.943335 0
vt 0.20679 0.940495 0
vt 0.212132 0.943256 0
vt 0.226909 0.940495 0
vt 0.2324 0.943489 0
vt 0.221717 0.943489 0
vt 0.226909 0.952467 0
vt 0.2321 0.949473 0
vt 0.240636 0.946901 0
vt 0.257086 0.940495 0
vt 0.262577 0.943489 0
vt 0.251595 0.943489 0
vt 0.257086 0.952467 0
vt 0.251679 0.949606 0
vt 0.262278 0.949473 0
vt 0.269512 0.946836 0
vt 0.245571 0.950648 0
vt 0.277205 0.940495 0
vt 0.282696 0.943489 0
vt 0.277205 0.952467 0
vt 0.282396 0.949473 0
vt 0.290931 0.946901 0
vt 0.307382 0.940495 0
vt 0.312873 0.943489 0
vt 0.301889 0.943489 0
vt 0.307382 0.952467 0
vt 0.301974 0.949606 0
vt 0.312573 0.949473 0
vt 0.319808 0.946836 0
vt 0.295866 0.950648 0
vt 0.327499 0.940495 0
vt 0.327499 0.952467 0
vt 0.0441389 0.942641 0
vt 0.0944338 0.942641 0
vt 0.14473 0.942641 0
vt 0.24532 0.942641 0
vt 0.295614 0.942641 0
# 392 texture coords
s 1
g Garment
usemtl uniform_1001
f 118/118/118 117/117/117 98/98/98
f 98/98/98 110/110/110 120/120/120
f 117/117/117 110/110/110 98/98/98
f 117/117/117 118/118/118 78/78/78
f 118/118/118 98/98/98 119/119/119
f 118/118/118 119/119/119 77/77/77
f 79/79/79 85/85/85 117/117/117
f 74/74/74 124/124/124 73/73/73
f 97/97/97 46/46/46 116/116/116
f 72/72/72 73/73/73 130/130/130
f 188/188/188 32/32/32 197/197/197
f 114/114/114 47/47/47 189/189/189
f 130/130/130 100/100/100 131/131/131
f 115/115/115 189/189/189 195/195/195
f 99/99/99 124/124/124 123/123/123
f 116/116/116 95/95/95 97/97/97
f 75/75/75 125/125/125 123/123/123
f 69/69/69 70/70/70 135/135/135
f 47/47/47 114/114/114 46/46/46
f 67/67/67 68/68/68 142/142/142
f 112/112/112 95/95/95 96/96/96
f 112/112/112 113/113/113 34/34/34
f 142/142/142 102/102/102 143/143/143
f 113/113/113 114/114/114 115/115/115
f 136/136/136 135/135/135 101/101/101
f 64/64/64 65/65/65 147/147/147
f 111/111/111 89/89/89 38/38/38
f 62/62/62 63/63/63 154/154/154
f 110/110/110 92/92/92 2/2/2
f 182/182/182 30/30/30 187/187/187
f 155/155/155 154/154/154 104/104/104
f 85/85/85 110/110/110 117/117/117
f 148/148/148 147/147/147 103/103/103
f 111/111/111 40/40/40 86/86/86
f 65/65/65 149/149/149 147/147/147
f 113/113/113 115/115/115 33/33/33
f 70/70/70 137/137/137 135/135/135
f 33/33/33 34/34/34 113/113/113
f 83/83/83 87/87/87 85/85/85
f 82/82/82 92/92/92 87/87/87
f 92/92/92 82/82/82 1/1/1
f 37/37/37 91/91/91 94/94/94
f 3/3/3 4/4/4 120/120/120
f 114/114/114 96/96/96 46/46/46
f 94/94/94 93/93/93 97/97/97
f 44/44/44 45/45/45 93/93/93
f 98/98/98 120/120/120 121/121/121
f 74/74/74 75/75/75 123/123/123
f 127/127/127 99/99/99 125/125/125
f 96/96/96 95/95/95 116/116/116
f 126/126/126 128/128/128 99/99/99
f 95/95/95 94/94/94 97/97/97
f 41/41/41 42/42/42 84/84/84
f 8/8/8 128/128/128 7/7/7
f 83/83/83 79/79/79 80/80/80
f 139/139/139 101/101/101 137/137/137
f 139/139/139 134/134/134 10/10/10
f 80/80/80 81/81/81 83/83/83
f 133/133/133 100/100/100 132/132/132
f 140/140/140 12/12/12 13/13/13
f 102/102/102 144/144/144 145/145/145
f 83/83/83 85/85/85 79/79/79
f 41/41/41 86/86/86 40/40/40
f 151/151/151 146/146/146 15/15/15
f 103/103/103 150/150/150 152/152/152
f 86/86/86 84/84/84 88/88/88
f 149/149/149 151/151/151 103/103/103
f 81/81/81 87/87/87 83/83/83
f 140/140/140 101/101/101 138/138/138
f 86/86/86 41/41/41 84/84/84
f 18/18/18 152/152/152 17/17/17
f 79/79/79 117/117/117 78/78/78
f 157/157/157 104/104/104 156/156/156
f 46/46/46 97/97/97 45/45/45
f 165/165/165 167/167/167 106/106/106
f 52/52/52 53/53/53 178/178/178
f 57/57/57 166/166/166 56/56/56
f 53/53/53 54/54/54 172/172/172
f 26/26/26 27/27/27 174/174/174
f 106/106/106 166/166/166 165/165/165
f 52/52/52 179/179/179 51/51/51
f 163/163/163 167/167/167 58/58/58
f 55/55/55 171/171/171 54/54/54
f 23/23/23 24/24/24 168/168/168
f 176/176/176 27/27/27 28/28/28
f 160/160/160 21/21/21 22/22/22
f 62/62/62 155/155/155 61/61/61
f 178/178/178 108/108/108 179/179/179
f 59/59/59 60/60/60 162/162/162
f 171/171/171 107/107/107 172/172/172
f 23/23/23 159/159/159 22/22/22
f 173/173/173 171/171/171 55/55/55
f 189/189/189 48/48/48 195/195/195
f 150/150/150 16/16/16 17/17/17
f 113/113/113 96/96/96 114/114/114
f 66/66/66 67/67/67 143/143/143
f 13/13/13 14/14/14 144/144/144
f 96/96/96 116/116/116 46/46/46
f 63/63/63 64/64/64 148/148/148
f 183/183/183 109/109/109 184/184/184
f 91/91/91 90/90/90 93/93/93
f 68/68/68 69/69/69 136/136/136
f 42/42/42 43/43/43 84/84/84
f 71/71/71 72/72/72 131/131/131
f 5/5/5 127/127/127 122/122/122
f 88/88/88 84/84/84 43/43/43
f 132/132/132 8/8/8 9/9/9
f 45/45/45 97/97/97 93/93/93
f 138/138/138 11/11/11 12/12/12
f 50/50/50 185/185/185 183/183/183
f 18/18/18 19/19/19 156/156/156
f 2/2/2 3/3/3 110/110/110
f 160/160/160 105/105/105 161/161/161
f 88/88/88 89/89/89 86/86/86
f 160/160/160 22/22/22 159/159/159
f 57/57/57 58/58/58 165/165/165
f 110/110/110 85/85/85 92/92/92
f 161/161/161 158/158/158 20/20/20
f 40/40/40 111/111/111 39/39/39
f 89/89/89 111/111/111 86/86/86
f 175/175/175 107/107/107 173/173/173
f 37/37/37 38/38/38 89/89/89
f 107/107/107 174/174/174 176/176/176
f 180/180/180 28/28/28 29/29/29
f 90/90/90 91/91/91 89/89/89
f 175/175/175 170/170/170 25/25/25
f 169/169/169 106/106/106 168/168/168
f 81/81/81 82/82/82 87/87/87
f 88/88/88 90/90/90 89/89/89
f 187/187/187 109/109/109 185/185/185
f 186/186/186 188/188/188 109/109/109
f 50/50/50 183/183/183 49/49/49
f 96/96/96 113/113/113 112/112/112
f 90/90/90 44/44/44 93/93/93
f 108/108/108 180/180/180 181/181/181
f 89/89/89 91/91/91 37/37/37
f 94/94/94 91/91/91 93/93/93
f 112/112/112 35/35/35 95/95/95
f 36/36/36 94/94/94 95/95/95
f 92/92/92 85/85/85 87/87/87
f 35/35/35 36/36/36 95/95/95
f 90/90/90 88/88/88 44/44/44
f 111/111/111 38/38/38 39/39/39
f 34/34/34 35/35/35 112/112/112
f 1/1/1 2/2/2 92/92/92
f 77/77/77 78/78/78 118/118/118
f 94/94/94 36/36/36 37/37/37
f 88/88/88 43/43/43 44/44/44
f 6/6/6 7/7/7 126/126/126
f 164/164/164 105/105/105 162/162/162
f 31/31/31 32/32/32 186/186/186
f 76/76/76 77/77/77 119/119/119
f 121/121/121 5/5/5 122/122/122
f 5/5/5 121/121/121 4/4/4
f 120/120/120 110/110/110 3/3/3
f 98/98/98 121/121/121 119/119/119
f 119/119/119 121/121/121 122/122/122
f 120/120/120 4/4/4 121/121/121
f 76/76/76 119/119/119 122/122/122
f 125/125/125 75/75/75 190/190/190
f 123/123/123 124/124/124 74/74/74
f 123/123/123 125/125/125 99/99/99
f 73/73/73 129/129/129 130/130/130
f 8/8/8 129/129/129 128/128/128
f 126/126/126 99/99/99 127/127/127
f 190/190/190 76/76/76 122/122/122
f 6/6/6 126/126/126 127/127/127
f 99/99/99 128/128/128 124/124/124
f 127/127/127 5/5/5 6/6/6
f 127/127/127 190/190/190 122/122/122
f 124/124/124 128/128/128 129/129/129
f 126/126/126 7/7/7 128/128/128
f 129/129/129 73/73/73 124/124/124
f 100/100/100 129/129/129 132/132/132
f 130/130/130 131/131/131 72/72/72
f 130/130/130 129/129/129 100/100/100
f 133/133/133 10/10/10 134/134/134
f 10/10/10 133/133/133 9/9/9
f 132/132/132 129/129/129 8/8/8
f 100/100/100 133/133/133 131/131/131
f 131/131/131 133/133/133 134/134/134
f 132/132/132 9/9/9 133/133/133
f 71/71/71 131/131/131 134/134/134
f 137/137/137 70/70/70 191/191/191
f 135/135/135 136/136/136 69/69/69
f 135/135/135 137/137/137 101/101/101
f 68/68/68 141/141/141 142/142/142
f 13/13/13 141/141/141 140/140/140
f 138/138/138 101/101/101 139/139/139
f 191/191/191 71/71/71 134/134/134
f 11/11/11 138/138/138 139/139/139
f 101/101/101 140/140/140 136/136/136
f 139/139/139 10/10/10 11/11/11
f 139/139/139 191/191/191 134/134/134
f 136/136/136 140/140/140 141/141/141
f 138/138/138 12/12/12 140/140/140
f 141/141/141 68/68/68 136/136/136
f 102/102/102 141/141/141 144/144/144
f 142/142/142 143/143/143 67/67/67
f 142/142/142 141/141/141 102/102/102
f 145/145/145 15/15/15 146/146/146
f 15/15/15 145/145/145 14/14/14
f 144/144/144 141/141/141 13/13/13
f 102/102/102 145/145/145 143/143/143
f 143/143/143 145/145/145 146/146/146
f 144/144/144 14/14/14 145/145/145
f 66/66/66 143/143/143 146/146/146
f 149/149/149 65/65/65 192/192/192
f 147/147/147 148/148/148 64/64/64
f 147/147/147 149/149/149 103/103/103
f 63/63/63 153/153/153 154/154/154
f 18/18/18 153/153/153 152/152/152
f 150/150/150 103/103/103 151/151/151
f 192/192/192 66/66/66 146/146/146
f 16/16/16 150/150/150 151/151/151
f 103/103/103 152/152/152 148/148/148
f 151/151/151 15/15/15 16/16/16
f 151/151/151 192/192/192 146/146/146
f 148/148/148 152/152/152 153/153/153
f 150/150/150 17/17/17 152/152/152
f 153/153/153 63/63/63 148/148/148
f 104/104/104 153/153/153 156/156/156
f 154/154/154 155/155/155 62/62/62
f 154/154/154 153/153/153 104/104/104
f 157/157/157 20/20/20 158/158/158
f 20/20/20 157/157/157 19/19/19
f 156/156/156 153/153/153 18/18/18
f 104/104/104 157/157/157 155/155/155
f 155/155/155 157/157/157 158/158/158
f 156/156/156 19/19/19 157/157/157
f 61/61/61 155/155/155 158/158/158
f 164/164/164 60/60/60 193/193/193
f 162/162/162 105/105/105 163/163/163
f 159/159/159 168/168/168 106/106/106
f 160/160/160 161/161/161 21/21/21
f 160/160/160 159/159/159 105/105/105
f 161/161/161 20/20/20 21/21/21
f 61/61/61 158/158/158 193/193/193
f 162/162/162 163/163/163 59/59/59
f 105/105/105 164/164/164 161/161/161
f 163/163/163 58/58/58 59/59/59
f 163/163/163 105/105/105 159/159/159
f 161/161/161 193/193/193 158/158/158
f 162/162/162 60/60/60 164/164/164
f 165/165/165 166/166/166 57/57/57
f 106/106/106 167/167/167 159/159/159
f 169/169/169 25/25/25 170/170/170
f 25/25/25 169/169/169 24/24/24
f 167/167/167 163/163/163 159/159/159
f 165/165/165 58/58/58 167/167/167
f 168/168/168 159/159/159 23/23/23
f 106/106/106 169/169/169 166/166/166
f 166/166/166 169/169/169 170/170/170
f 168/168/168 24/24/24 169/169/169
f 56/56/56 166/166/166 170/170/170
f 173/173/173 55/55/55 194/194/194
f 171/171/171 172/172/172 54/54/54
f 171/171/171 173/173/173 107/107/107
f 53/53/53 177/177/177 178/178/178
f 28/28/28 177/177/177 176/176/176
f 174/174/174 107/107/107 175/175/175
f 194/194/194 56/56/56 170/170/170
f 26/26/26 174/174/174 175/175/175
f 107/107/107 176/176/176 172/172/172
f 175/175/175 25/25/25 26/26/26
f 175/175/175 194/194/194 170/170/170
f 172/172/172 176/176/176 177/177/177
f 174/174/174 27/27/27 176/176/176
f 177/177/177 53/53/53 172/172/172
f 108/108/108 177/177/177 180/180/180
f 178/178/178 179/179/179 52/52/52
f 178/178/178 177/177/177 108/108/108
f 181/181/181 30/30/30 182/182/182
f 30/30/30 181/181/181 29/29/29
f 180/180/180 177/177/177 28/28/28
f 108/108/108 181/181/181 179/179/179
f 179/179/179 181/181/181 182/182/182
f 180/180/180 29/29/29 181/181/181
f 51/51/51 179/179/179 182/182/182
f 185/185/185 50/50/50 196/196/196
f 183/183/183 184/184/184 49/49/49
f 183/183/183 185/185/185 109/109/109
f 49/49/49 195/195/195 48/48/48
f 33/33/33 115/115/115 197/197/197
f 186/186/186 109/109/109 187/187/187
f 196/196/196 51/51/51 182/182/182
f 31/31/31 186/186/186 187/187/187
f 109/109/109 188/188/188 184/184/184
f 187/187/187 30/30/30 31/31/31
f 187/187/187 196/196/196 182/182/182
f 195/195/195 184/184/184 197/197/197
f 186/186/186 32/32/32 188/188/188
f 189/189/189 47/47/47 48/48/48
f 115/115/115 114/114/114 189/189/189
f 190/190/190 75/75/75 76/76/76
f 190/190/190 127/127/127 125/125/125
f 191/191/191 70/70/70 71/71/71
f 191/191/191 139/139/139 137/137/137
f 192/192/192 65/65/65 66/66/66
f 192/192/192 151/151/151 149/149/149
f 193/193/193 60/60/60 61/61/61
f 193/193/193 161/161/161 164/164/164
f 194/194/194 55/55/55 56/56/56
f 194/194/194 175/175/175 173/173/173
f 115/115/115 195/195/195 197/197/197
f 195/195/195 49/49/49 184/184/184
f 196/196/196 50/50/50 51/51/51
f 196/196/196 187/187/187 185/185/185
f 197/197/197 32/32/32 33/33/33
f 188/188/188 197/197/197 184/184/184
usemtl uniform_1001
f 278/278/278 235/235/235 236/236/236
f 317/317/317 315/315/315 320/320/320
f 285/285/285 299/299/299 310/310/310
f 286/286/286 318/318/318 314/314/314
f 243/243/243 316/316/316 317/317/317
f 308/308/308 285/285/285 309/309/309
f 243/243/243 320/320/320 242/242/242
f 279/279/279 280/280/280 299/299/299
f 230/230/230 314/314/314 229/229/229
f 316/316/316 286/286/286 317/317/317
f 228/228/228 229/229/229 321/321/321
f 229/229/229 319/319/319 321/321/321
f 313/313/313 315/315/315 286/286/286
f 321/321/321 287/287/287 322/322/322
f 318/318/318 245/245/245 319/319/319
f 286/286/286 314/314/314 313/313/313
f 388/388/388 232/232/232 312/312/312
f 231/231/231 315/315/315 313/313/313
f 225/225/225 226/226/226 326/326/326
f 315/315/315 231/231/231 388/388/388
f 223/223/223 224/224/224 334/334/334
f 310/310/310 241/241/241 311/311/311
f 309/309/309 311/311/311 312/312/312
f 334/334/334 289/289/289 335/335/335
f 232/232/232 309/309/309 312/312/312
f 327/327/327 326/326/326 288/288/288
f 220/220/220 221/221/221 339/339/339
f 310/310/310 299/299/299 240/240/240
f 218/218/218 219/219/219 347/347/347
f 311/311/311 242/242/242 312/312/312
f 308/308/308 298/298/298 285/285/285
f 348/348/348 347/347/347 291/291/291
f 242/242/242 311/311/311 241/241/241
f 340/340/340 339/339/339 290/290/290
f 285/285/285 311/311/311 309/309/309
f 221/221/221 341/341/341 339/339/339
f 313/313/313 314/314/314 230/230/230
f 226/226/226 328/328/328 326/326/326
f 270/270/270 271/271/271 387/387/387
f 280/280/280 237/237/237 238/238/238
f 237/237/237 278/278/278 236/236/236
f 240/240/240 299/299/299 239/239/239
f 286/286/286 315/315/315 317/317/317
f 263/263/263 264/264/264 368/368/368
f 231/231/231 313/313/313 230/230/230
f 208/208/208 374/374/374 207/207/207
f 353/353/353 258/258/258 259/259/259
f 310/310/310 240/240/240 241/241/241
f 280/280/280 238/238/238 239/239/239
f 285/285/285 310/310/310 311/311/311
f 318/318/318 286/286/286 316/316/316
f 279/279/279 298/298/298 278/278/278
f 235/235/235 278/278/278 298/298/298
f 260/260/260 261/261/261 362/362/362
f 318/318/318 244/244/244 245/245/245
f 305/305/305 202/202/202 307/307/307
f 285/285/285 298/298/298 279/279/279
f 287/287/287 323/323/323 324/324/324
f 280/280/280 279/279/279 278/278/278
f 333/333/333 325/325/325 247/247/247
f 288/288/288 329/329/329 331/331/331
f 282/282/282 277/277/277 281/281/281
f 328/328/328 330/330/330 288/288/288
f 278/278/278 237/237/237 280/280/280
f 282/282/282 276/276/276 277/277/277
f 289/289/289 336/336/336 337/337/337
f 274/274/274 301/301/301 273/273/273
f 346/346/346 338/338/338 252/252/252
f 290/290/290 342/342/342 344/344/344
f 300/300/300 199/199/199 200/200/200
f 341/341/341 343/343/343 290/290/290
f 283/283/283 274/274/274 275/275/275
f 250/250/250 331/331/331 249/249/249
f 283/283/283 282/282/282 300/300/300
f 255/255/255 344/344/344 254/254/254
f 272/272/272 273/273/273 302/302/302
f 350/350/350 291/291/291 349/349/349
f 377/377/377 267/267/267 385/385/385
f 359/359/359 361/361/361 293/293/293
f 306/306/306 305/305/305 307/307/307
f 213/213/213 360/360/360 212/212/212
f 386/386/386 297/297/297 307/307/307
f 306/306/306 387/387/387 271/271/271
f 293/293/293 360/360/360 359/359/359
f 307/307/307 202/202/202 203/203/203
f 358/358/358 361/361/361 214/214/214
f 211/211/211 365/365/365 210/210/210
f 271/271/271 272/272/272 306/306/306
f 370/370/370 264/264/264 265/265/265
f 302/302/302 305/305/305 272/272/272
f 284/284/284 304/304/304 302/302/302
f 373/373/373 295/295/295 374/374/374
f 201/201/201 202/202/202 304/304/304
f 365/365/365 294/294/294 366/366/366
f 304/304/304 202/202/202 305/305/305
f 367/367/367 365/365/365 211/211/211
f 384/384/384 386/386/386 204/204/204
f 304/304/304 303/303/303 201/201/201
f 204/204/204 386/386/386 203/203/203
f 301/301/301 283/283/283 284/284/284
f 301/301/301 302/302/302 273/273/273
f 307/307/307 297/297/297 306/306/306
f 302/302/302 304/304/304 305/305/305
f 378/378/378 296/296/296 379/379/379
f 303/303/303 284/284/284 300/300/300
f 268/268/268 269/269/269 381/381/381
f 277/277/277 198/198/198 281/281/281
f 299/299/299 285/285/285 279/279/279
f 299/299/299 280/280/280 239/239/239
f 282/282/282 281/281/281 300/300/300
f 300/300/300 281/281/281 199/199/199
f 284/284/284 303/303/303 304/304/304
f 300/300/300 284/284/284 283/283/283
f 206/206/206 380/380/380 378/378/378
f 303/303/303 300/300/300 200/200/200
f 199/199/199 281/281/281 198/198/198
f 303/303/303 200/200/200 201/201/201
f 292/292/292 354/354/354 353/353/353
f 233/233/233 234/234/234 308/308/308
f 259/259/259 352/352/352 353/353/353
f 214/214/214 359/359/359 213/213/213
f 243/243/243 244/244/244 316/316/316
f 351/351/351 257/257/257 355/355/355
f 232/232/232 233/233/233 309/309/309
f 227/227/227 228/228/228 322/322/322
f 294/294/294 367/367/367 369/369/369
f 224/224/224 225/225/225 327/327/327
f 368/368/368 370/370/370 294/294/294
f 265/265/265 266/266/266 375/375/375
f 329/329/329 248/248/248 249/249/249
f 364/364/364 262/262/262 372/372/372
f 323/323/323 245/245/245 246/246/246
f 293/293/293 362/362/362 363/363/363
f 242/242/242 320/320/320 312/312/312
f 222/222/222 223/223/223 335/335/335
f 296/296/296 380/380/380 382/382/382
f 342/342/342 253/253/253 254/254/254
f 296/296/296 381/381/381 383/383/383
f 269/269/269 270/270/270 383/383/383
f 255/255/255 256/256/256 349/349/349
f 205/205/205 206/206/206 378/378/378
f 219/219/219 220/220/220 340/340/340
f 215/215/215 216/216/216 357/357/357
f 301/301/301 284/284/284 302/302/302
f 209/209/209 210/210/210 366/366/366
f 282/282/282 283/283/283 275/275/275
f 282/282/282 275/275/275 276/276/276
f 208/208/208 209/209/209 373/373/373
f 283/283/283 301/301/301 274/274/274
f 260/260/260 352/352/352 259/259/259
f 306/306/306 272/272/272 305/305/305
f 218/218/218 348/348/348 217/217/217
f 295/295/295 375/375/375 376/376/376
f 250/250/250 251/251/251 336/336/336
f 234/234/234 298/298/298 308/308/308
f 354/354/354 292/292/292 356/356/356
f 308/308/308 309/309/309 233/233/233
f 234/234/234 235/235/235 298/298/298
f 314/314/314 318/318/318 319/319/319
f 316/316/316 244/244/244 318/318/318
f 319/319/319 229/229/229 314/314/314
f 287/287/287 319/319/319 323/323/323
f 312/312/312 320/320/320 388/388/388
f 320/320/320 243/243/243 317/317/317
f 321/321/321 322/322/322 228/228/228
f 321/321/321 319/319/319 287/287/287
f 324/324/324 247/247/247 325/325/325
f 247/247/247 324/324/324 246/246/246
f 323/323/323 319/319/319 245/245/245
f 287/287/287 324/324/324 322/322/322
f 322/322/322 324/324/324 325/325/325
f 323/323/323 246/246/246 324/324/324
f 227/227/227 322/322/322 325/325/325
f 328/328/328 226/226/226 389/389/389
f 326/326/326 327/327/327 225/225/225
f 326/326/326 328/328/328 288/288/288
f 224/224/224 332/332/332 334/334/334
f 250/250/250 332/332/332 331/331/331
f 329/329/329 288/288/288 330/330/330
f 389/389/389 227/227/227 325/325/325
f 248/248/248 329/329/329 330/330/330
f 288/288/288 331/331/331 327/327/327
f 248/248/248 333/333/333 247/247/247
f 330/330/330 328/328/328 333/333/333
f 327/327/327 331/331/331 332/332/332
f 329/329/329 249/249/249 331/331/331
f 332/332/332 224/224/224 327/327/327
f 289/289/289 332/332/332 336/336/336
f 325/325/325 333/333/333 389/389/389
f 333/333/333 248/248/248 330/330/330
f 334/334/334 335/335/335 223/223/223
f 334/334/334 332/332/332 289/289/289
f 337/337/337 252/252/252 338/338/338
f 252/252/252 337/337/337 251/251/251
f 336/336/336 332/332/332 250/250/250
f 289/289/289 337/337/337 335/335/335
f 335/335/335 337/337/337 338/338/338
f 336/336/336 251/251/251 337/337/337
f 222/222/222 335/335/335 338/338/338
f 341/341/341 221/221/221 390/390/390
f 339/339/339 340/340/340 220/220/220
f 339/339/339 341/341/341 290/290/290
f 219/219/219 345/345/345 347/347/347
f 255/255/255 345/345/345 344/344/344
f 342/342/342 290/290/290 343/343/343
f 390/390/390 222/222/222 338/338/338
f 253/253/253 342/342/342 343/343/343
f 290/290/290 344/344/344 340/340/340
f 253/253/253 346/346/346 252/252/252
f 343/343/343 341/341/341 346/346/346
f 340/340/340 344/344/344 345/345/345
f 342/342/342 254/254/254 344/344/344
f 345/345/345 219/219/219 340/340/340
f 291/291/291 345/345/345 349/349/349
f 338/338/338 346/346/346 390/390/390
f 346/346/346 253/253/253 343/343/343
f 347/347/347 348/348/348 218/218/218
f 347/347/347 345/345/345 291/291/291
f 350/350/350 257/257/257 351/351/351
f 257/257/257 350/350/350 256/256/256
f 349/349/349 345/345/345 255/255/255
f 291/291/291 350/350/350 348/348/348
f 348/348/348 350/350/350 351/351/351
f 349/349/349 256/256/256 350/350/350
f 217/217/217 348/348/348 351/351/351
f 216/216/216 217/217/217 356/356/356
f 357/357/357 292/292/292 358/358/358
f 352/352/352 362/362/362 293/293/293
f 353/353/353 354/354/354 258/258/258
f 353/353/353 352/352/352 292/292/292
f 258/258/258 355/355/355 257/257/257
f 355/355/355 354/354/354 356/356/356
f 355/355/355 356/356/356 351/351/351
f 355/355/355 258/258/258 354/354/354
f 356/356/356 217/217/217 351/351/351
f 216/216/216 356/356/356 357/357/357
f 357/357/357 358/358/358 215/215/215
f 357/357/357 356/356/356 292/292/292
f 358/358/358 214/214/214 215/215/215
f 358/358/358 292/292/292 352/352/352
f 359/359/359 360/360/360 213/213/213
f 293/293/293 361/361/361 352/352/352
f 363/363/363 262/262/262 364/364/364
f 262/262/262 363/363/363 261/261/261
f 361/361/361 358/358/358 352/352/352
f 359/359/359 214/214/214 361/361/361
f 362/362/362 352/352/352 260/260/260
f 293/293/293 363/363/363 360/360/360
f 360/360/360 363/363/363 364/364/364
f 362/362/362 261/261/261 363/363/363
f 212/212/212 360/360/360 364/364/364
f 367/367/367 211/211/211 391/391/391
f 365/365/365 366/366/366 210/210/210
f 365/365/365 367/367/367 294/294/294
f 209/209/209 371/371/371 373/373/373
f 265/265/265 371/371/371 370/370/370
f 368/368/368 294/294/294 369/369/369
f 391/391/391 212/212/212 364/364/364
f 263/263/263 368/368/368 369/369/369
f 294/294/294 370/370/370 366/366/366
f 263/263/263 372/372/372 262/262/262
f 369/369/369 367/367/367 372/372/372
f 366/366/366 370/370/370 371/371/371
f 368/368/368 264/264/264 370/370/370
f 371/371/371 209/209/209 366/366/366
f 295/295/295 371/371/371 375/375/375
f 364/364/364 372/372/372 391/391/391
f 372/372/372 263/263/263 369/369/369
f 373/373/373 374/374/374 208/208/208
f 373/373/373 371/371/371 295/295/295
f 376/376/376 267/267/267 377/377/377
f 267/267/267 376/376/376 266/266/266
f 375/375/375 371/371/371 265/265/265
f 295/295/295 376/376/376 374/374/374
f 374/374/374 376/376/376 377/377/377
f 375/375/375 266/266/266 376/376/376
f 207/207/207 374/374/374 377/377/377
f 380/380/380 206/206/206 392/392/392
f 378/378/378 379/379/379 205/205/205
f 378/378/378 380/380/380 296/296/296
f 379/379/379 204/204/204 205/205/205
f 383/383/383 270/270/270 384/384/384
f 381/381/381 296/296/296 382/382/382
f 392/392/392 207/207/207 377/377/377
f 268/268/268 381/381/381 382/382/382
f 296/296/296 383/383/383 379/379/379
f 268/268/268 385/385/385 267/267/267
f 382/382/382 380/380/380 385/385/385
f 379/379/379 383/383/383 384/384/384
f 381/381/381 269/269/269 383/383/383
f 384/384/384 204/204/204 379/379/379
f 297/297/297 384/384/384 387/387/387
f 377/377/377 385/385/385 392/392/392
f 385/385/385 268/268/268 382/382/382
f 386/386/386 307/307/307 203/203/203
f 386/386/386 384/384/384 297/297/297
f 387/387/387 384/384/384 270/270/270
f 387/387/387 306/306/306 297/297/297
f 388/388/388 231/231/231 232/232/232
f 388/388/388 320/320/320 315/315/315
f 389/389/389 226/226/226 227/227/227
f 389/389/389 333/333/333 328/328/328
f 390/390/390 221/221/221 222/222/222
f 390/390/390 346/346/346 341/341/341
f 391/391/391 211/211/211 212/212/212
f 391/391/391 372/372/372 367/367/367
f 392/392/392 206/206/206 207/207/207
f 392/392/392 385/385/385 380/380/380
# 618 faces
# End of File
