solid finger_convex_hull_120
  facet normal 0.000926450662 -0.000809407136 -0.999999243
    outer loop
      vertex 0.0124418401 0.00100826924 -0.00621824063
      vertex -0.0124516323 0.000995180898 -0.00624129263
      vertex 0.0124549203 0.0295018326 -0.00624129143
    endloop
  endfacet
  facet normal -0.819236104 -0.573445823 -0.00347767268
    outer loop
      vertex -0.0105384662 -0.00200094728 0.0371159991
      vertex -0.0105226602 -0.00207053648 0.0448673775
      vertex -0.0124516323 0.000995180898 -0.00624129263
    endloop
  endfacet
  facet normal -0.999994281 0.00298121113 -0.00159669533
    outer loop
      vertex -0.0125692918 0.0228711975 -0.00431188709
      vertex -0.012609336 0.0107677091 -0.00183116533
      vertex -0.0126132006 0.0184087929 0.0148559643
    endloop
  endfacet
  facet normal -0.999908038 0.0135342359 0.000860317324
    outer loop
      vertex -0.0124787404 0.0282303248 0.0166238529
      vertex -0.0125692918 0.0228711975 -0.00431188709
      vertex -0.0126132006 0.0184087929 0.0148559643
    endloop
  endfacet
  facet normal -0.999888576 0.0121202977 0.00871399255
    outer loop
      vertex -0.0125870279 0.0191796262 0.016787005
      vertex -0.0124787404 0.0282303248 0.0166238529
      vertex -0.0126132006 0.0184087929 0.0148559643
    endloop
  endfacet
  facet normal -0.999703358 -0.0219818725 0.0104877789
    outer loop
      vertex -0.0124316766 0.00104181529 -0.00424136189
      vertex -0.0126132006 0.0184087929 0.0148559643
      vertex -0.0124516323 0.000995180898 -0.00624129263
    endloop
  endfacet
  facet normal -0.999672231 -0.0229422712 0.0113614549
    outer loop
      vertex -0.0124316766 0.00104181529 -0.00424136189
      vertex -0.0124620717 0.0118582696 0.0149259855
      vertex -0.0126132006 0.0184087929 0.0148559643
    endloop
  endfacet
  facet normal -0.00807868737 -0.99996735 -0.000183101388
    outer loop
      vertex -0.0093939151 -0.00208167572 0.0559000587
      vertex -0.0105226602 -0.00207053648 0.0448673775
      vertex -0.00272687304 -0.00213451556 0.0503139024
    endloop
  endfacet
  facet normal 0.998698991 -0.0189542066 0.0473398749
    outer loop
      vertex 0.0107556247 0.014901961 0.0532160525
      vertex 0.0103977822 -0.00204239797 0.053980947
      vertex 0.0125635677 0.0191795547 0.0167877246
    endloop
  endfacet
  facet normal 0.999825698 -0.0170634017 0.00757725968
    outer loop
      vertex 0.0124787395 0.0119063292 0.0148609687
      vertex 0.0125855998 0.0107504055 -0.00184239512
      vertex 0.0125897516 0.0184088667 0.0148560379
    endloop
  endfacet
  facet normal 0.999805203 -0.0181920977 0.00765523777
    outer loop
      vertex 0.0124787395 0.0119063292 0.0148609687
      vertex 0.0124418401 0.00100826924 -0.00621824063
      vertex 0.0125855998 0.0107504055 -0.00184239512
    endloop
  endfacet
  facet normal 0.999647455 -0.0170506711 0.0203528849
    outer loop
      vertex 0.0124787395 0.0119063292 0.0148609687
      vertex 0.0125897516 0.0184088667 0.0148560379
      vertex 0.0125635677 0.0191795547 0.0167877246
    endloop
  endfacet
  facet normal 0.998721896 -0.0235019607 0.0447463213
    outer loop
      vertex 0.0124787395 0.0119063292 0.0148609687
      vertex 0.0125635677 0.0191795547 0.0167877246
      vertex 0.0103977822 -0.00204239797 0.053980947
    endloop
  endfacet
  facet normal 0.999999973 -5.01619384e-05 -0.000225625759
    outer loop
      vertex 0.012586248 0.018644749 -0.000724949975
      vertex 0.0125897516 0.0184088667 0.0148560379
      vertex 0.0125855998 0.0107504055 -0.00184239512
    endloop
  endfacet
  facet normal 0.998606805 -0.000501106276 -0.0527655069
    outer loop
      vertex 0.0125459042 0.00765242283 -0.00431188709
      vertex 0.0124418401 0.00100826924 -0.00621824063
      vertex 0.0124549203 0.0295018326 -0.00624129143
    endloop
  endfacet
  facet normal 0.999835413 -0.0172619133 0.00558333515
    outer loop
      vertex 0.0125459042 0.00765242283 -0.00431188709
      vertex 0.0125855998 0.0107504055 -0.00184239512
      vertex 0.0124418401 0.00100826924 -0.00621824063
    endloop
  endfacet
  facet normal -0.0100399634 -0.99760098 -0.068494414
    outer loop
      vertex -0.00274060567 -0.00207820328 0.0370981936
      vertex -0.0105384662 -0.00200094728 0.0371159991
      vertex -0.0124516323 0.000995180898 -0.00624129263
    endloop
  endfacet
  facet normal -0.00992689826 -0.999910614 -0.00895661006
    outer loop
      vertex -0.00274060567 -0.00207820328 0.0370981936
      vertex -0.0105226602 -0.00207053648 0.0448673775
      vertex -0.0105384662 -0.00200094728 0.0371159991
    endloop
  endfacet
  facet normal -0.999869741 0 -0.0161400704
    outer loop
      vertex -0.0125692918 0.00765242283 -0.00431188709
      vertex -0.012609336 0.0107677091 -0.00183116533
      vertex -0.0125692918 0.0228711975 -0.00431188709
    endloop
  endfacet
  facet normal -0.999752283 -0.0203087653 0.00910642661
    outer loop
      vertex -0.0125692918 0.00765242283 -0.00431188709
      vertex -0.0124516323 0.000995180898 -0.00624129263
      vertex -0.0126132006 0.0184087929 0.0148559643
    endloop
  endfacet
  facet normal -0.999761671 -0.0199359301 0.00889718224
    outer loop
      vertex -0.0125692918 0.00765242283 -0.00431188709
      vertex -0.0126132006 0.0184087929 0.0148559643
      vertex -0.012609336 0.0107677091 -0.00183116533
    endloop
  endfacet
  facet normal 0.000655616169 0.954066796 0.299593256
    outer loop
      vertex 0.0124684442 0.028270093 0.016442616
      vertex -0.0124787404 0.0282303248 0.0166238529
      vertex 0.00574840537 0.0151632496 0.0581965929
    endloop
  endfacet
  facet normal 0.998621014 0.0123863362 0.0510161657
    outer loop
      vertex 0.0124684442 0.028270093 0.016442616
      vertex 0.0107556247 0.014901961 0.0532160525
      vertex 0.0125635677 0.0191795547 0.0167877246
    endloop
  endfacet
  facet normal 0.999898845 0.0108137077 0.00923919845
    outer loop
      vertex 0.0124684442 0.028270093 0.016442616
      vertex 0.0125635677 0.0191795547 0.0167877246
      vertex 0.0125897516 0.0184088667 0.0148560379
    endloop
  endfacet
  facet normal -0.999907976 0.0135389088 0.000859120902
    outer loop
      vertex -0.0124807443 0.0295309458 -0.00620493143
      vertex -0.0125692918 0.0228711975 -0.00431188709
      vertex -0.0124787404 0.0282303248 0.0166238529
    endloop
  endfacet
  facet normal -0.00145666364 0.00127274415 -0.999998129
    outer loop
      vertex -0.0124807443 0.0295309458 -0.00620493143
      vertex 0.0124549203 0.0295018326 -0.00624129143
      vertex -0.0124516323 0.000995180898 -0.00624129263
    endloop
  endfacet
  facet normal -0.998338139 -0.000945076707 -0.0576200179
    outer loop
      vertex -0.0124807443 0.0295309458 -0.00620493143
      vertex -0.0124516323 0.000995180898 -0.00624129263
      vertex -0.0125692918 0.00765242283 -0.00431188709
    endloop
  endfacet
  facet normal -0.998907832 0 -0.0467241096
    outer loop
      vertex -0.0124807443 0.0295309458 -0.00620493143
      vertex -0.0125692918 0.00765242283 -0.00431188709
      vertex -0.0125692918 0.0228711975 -0.00431188709
    endloop
  endfacet
  facet normal -0.00340199651 0.95355165 0.301210355
    outer loop
      vertex -0.00640850917 0.0151280534 0.0581707095
      vertex 0.00574840537 0.0151632496 0.0581965929
      vertex -0.0124787404 0.0282303248 0.0166238529
    endloop
  endfacet
  facet normal -0.999499667 -0.0228256895 0.0218952938
    outer loop
      vertex -0.0124670046 0.013316666 0.0162211684
      vertex -0.0126132006 0.0184087929 0.0148559643
      vertex -0.0124620717 0.0118582696 0.0149259855
    endloop
  endfacet
  facet normal -0.999488542 -0.0226406098 0.0225844384
    outer loop
      vertex -0.0124670046 0.013316666 0.0162211684
      vertex -0.0125870279 0.0191796262 0.016787005
      vertex -0.0126132006 0.0184087929 0.0148559643
    endloop
  endfacet
  facet normal 0 -0.999973403 0.00729338384
    outer loop
      vertex 0.00271064384 -0.00207777008 0.0580941011
      vertex -0.00272687304 -0.00213451556 0.0503139024
      vertex 0.00270356254 -0.00213451556 0.0503139024
    endloop
  endfacet
  facet normal -0.998749707 -0.0246434674 0.0434939229
    outer loop
      vertex -0.0104633655 -0.0020463686 0.0535260489
      vertex -0.0125870279 0.0191796262 0.016787005
      vertex -0.0124670046 0.013316666 0.0162211684
    endloop
  endfacet
  facet normal -0.998569909 -0.0373486846 0.0382519562
    outer loop
      vertex -0.0104633655 -0.0020463686 0.0535260489
      vertex -0.0124670046 0.013316666 0.0162211684
      vertex -0.0124620717 0.0118582696 0.0149259855
    endloop
  endfacet
  facet normal -0.997860902 -0.0575978236 0.0309210343
    outer loop
      vertex -0.0104633655 -0.0020463686 0.0535260489
      vertex -0.0124620717 0.0118582696 0.0149259855
      vertex -0.0124316766 0.00104181529 -0.00424136189
    endloop
  endfacet
  facet normal 0.999145093 -0.0374109814 0.0175926554
    outer loop
      vertex 0.0124082878 0.00104181529 -0.00424136189
      vertex 0.0124418401 0.00100826924 -0.00621824063
      vertex 0.0124787395 0.0119063292 0.0148609687
    endloop
  endfacet
  facet normal 0.997629896 -0.0613277289 0.0312009731
    outer loop
      vertex 0.0124082878 0.00104181529 -0.00424136189
      vertex 0.0124787395 0.0119063292 0.0148609687
      vertex 0.0103977822 -0.00204239797 0.053980947
    endloop
  endfacet
  facet normal 0.999150918 0.000522736803 -0.0411967232
    outer loop
      vertex 0.0125381035 0.0229290616 -0.00430723709
      vertex 0.0125459042 0.00765242283 -0.00431188709
      vertex 0.0124549203 0.0295018326 -0.00624129143
    endloop
  endfacet
  facet normal 0.999860094 0.00051564826 -0.0167190484
    outer loop
      vertex 0.0125381035 0.0229290616 -0.00430723709
      vertex 0.0125855998 0.0107504055 -0.00184239512
      vertex 0.0125459042 0.00765242283 -0.00431188709
    endloop
  endfacet
  facet normal 0.999931773 0.00155663051 -0.0115769904
    outer loop
      vertex 0.0125381035 0.0229290616 -0.00430723709
      vertex 0.012586248 0.018644749 -0.000724949975
      vertex 0.0125855998 0.0107504055 -0.00184239512
    endloop
  endfacet
  facet normal 0.999937385 0.0111903275 -5.54406571e-05
    outer loop
      vertex 0.0125381035 0.0229290616 -0.00430723709
      vertex 0.0125897516 0.0184088667 0.0148560379
      vertex 0.012586248 0.018644749 -0.000724949975
    endloop
  endfacet
  facet normal 0.999924719 0.012268522 0.000198915846
    outer loop
      vertex 0.0125381035 0.0229290616 -0.00430723709
      vertex 0.0124684442 0.028270093 0.016442616
      vertex 0.0125897516 0.0184088667 0.0148560379
    endloop
  endfacet
  facet normal 0.999919577 0.0126819191 9.24898005e-05
    outer loop
      vertex 0.0125381035 0.0229290616 -0.00430723709
      vertex 0.0124549203 0.0295018326 -0.00624129143
      vertex 0.0124684442 0.028270093 0.016442616
    endloop
  endfacet
  facet normal -0.00108431502 0.997571703 0.0696385123
    outer loop
      vertex -0.00581777891 0.0295233618 -0.00179518825
      vertex -0.0124787404 0.0282303248 0.0166238529
      vertex 0.0124684442 0.028270093 0.016442616
    endloop
  endfacet
  facet normal -0.998590536 0.0128758558 0.0514893507
    outer loop
      vertex -0.0107466056 0.0148979534 0.0535510828
      vertex -0.0124787404 0.0282303248 0.0166238529
      vertex -0.0125870279 0.0191796262 0.016787005
    endloop
  endfacet
  facet normal -0.22179762 0.920183428 0.322596147
    outer loop
      vertex -0.00937417348 0.0150521658 0.0563481618
      vertex -0.00640850917 0.0151280534 0.0581707095
      vertex -0.0124787404 0.0282303248 0.0166238529
    endloop
  endfacet
  facet normal -0.656043285 0.699521699 0.283331257
    outer loop
      vertex -0.00937417348 0.0150521658 0.0563481618
      vertex -0.0124787404 0.0282303248 0.0166238529
      vertex -0.0107466056 0.0148979534 0.0535510828
    endloop
  endfacet
  facet normal -0.00216870357 0.0137472303 0.999903151
    outer loop
      vertex 0.00566393366 0.00918764775 0.0582785656
      vertex 0.00574840537 0.0151632496 0.0581965929
      vertex -0.00640850917 0.0151280534 0.0581707095
    endloop
  endfacet
  facet normal -0.00678154162 -0.999974925 -0.00203983698
    outer loop
      vertex -0.00270491413 -0.0021236318 0.0449054291
      vertex -0.00272687304 -0.00213451556 0.0503139024
      vertex -0.0105226602 -0.00207053648 0.0448673775
    endloop
  endfacet
  facet normal -0.00676320109 -0.99996038 -0.00578762273
    outer loop
      vertex -0.00270491413 -0.0021236318 0.0449054291
      vertex -0.0105226602 -0.00207053648 0.0448673775
      vertex -0.00274060567 -0.00207820328 0.0370981936
    endloop
  endfacet
  facet normal -0.0159416256 -0.998613572 0.0501676986
    outer loop
      vertex -0.00273402504 -0.00207776972 0.0580941011
      vertex -0.00684245428 -0.00202075748 0.0579234366
      vertex -0.0093939151 -0.00208167572 0.0559000587
    endloop
  endfacet
  facet normal -2.38318853e-09 -0.0362489452 0.999342791
    outer loop
      vertex -0.00273402504 -0.00207776972 0.0580941011
      vertex 0.00271064384 -0.00207777008 0.0580941011
      vertex -1.1681887e-05 -0.000163319658 0.0581635435
    endloop
  endfacet
  facet normal -0.00181572289 -0.999971766 0.00729174879
    outer loop
      vertex -0.00273402504 -0.00207776972 0.0580941011
      vertex -0.0093939151 -0.00208167572 0.0559000587
      vertex -0.00272687304 -0.00213451556 0.0503139024
    endloop
  endfacet
  facet normal -6.57432962e-08 -0.999973403 0.00729342978
    outer loop
      vertex -0.00273402504 -0.00207776972 0.0580941011
      vertex -0.00272687304 -0.00213451556 0.0503139024
      vertex 0.00271064384 -0.00207777008 0.0580941011
    endloop
  endfacet
  facet normal 0.00514221122 -0.999960216 0.00728860737
    outer loop
      vertex 0.00847796488 -0.00205665692 0.056921797
      vertex 0.00271064384 -0.00207777008 0.0580941011
      vertex 0.00270356254 -0.00213451556 0.0503139024
    endloop
  endfacet
  facet normal 0.837032157 -0.0310354662 0.546272797
    outer loop
      vertex 0.00847796488 -0.00205665692 0.056921797
      vertex 0.0103977822 -0.00204239797 0.053980947
      vertex 0.00982443324 0.0149038934 0.0558222388
    endloop
  endfacet
  facet normal 0.70529812 -0.0100380611 0.708839756
    outer loop
      vertex 0.00847796488 -0.00205665692 0.056921797
      vertex 0.00982443324 0.0149038934 0.0558222388
      vertex 0.00927325772 0.00940615838 0.0562928056
    endloop
  endfacet
  facet normal -0.0130620904 -0.999914634 0.000326799947
    outer loop
      vertex -0.0105213727 -0.0020687696 0.0503249889
      vertex -0.0105226602 -0.00207053648 0.0448673775
      vertex -0.0093939151 -0.00208167572 0.0559000587
    endloop
  endfacet
  facet normal -0.0505173212 -0.998691906 0.0079042775
    outer loop
      vertex -0.0105213727 -0.0020687696 0.0503249889
      vertex -0.0093939151 -0.00208167572 0.0559000587
      vertex -0.0104633655 -0.0020463686 0.0535260489
    endloop
  endfacet
  facet normal -0.849172367 -0.528115663 0.000371296064
    outer loop
      vertex -0.0105213727 -0.0020687696 0.0503249889
      vertex -0.0124516323 0.000995180898 -0.00624129263
      vertex -0.0105226602 -0.00207053648 0.0448673775
    endloop
  endfacet
  facet normal -0.9545887 -0.297471736 0.0164614904
    outer loop
      vertex -0.0105213727 -0.0020687696 0.0503249889
      vertex -0.0124316766 0.00104181529 -0.00424136189
      vertex -0.0124516323 0.000995180898 -0.00624129263
    endloop
  endfacet
  facet normal -0.966728614 -0.255074827 0.0193033537
    outer loop
      vertex -0.0105213727 -0.0020687696 0.0503249889
      vertex -0.0104633655 -0.0020463686 0.0535260489
      vertex -0.0124316766 0.00104181529 -0.00424136189
    endloop
  endfacet
  facet normal 0.127663668 0.940234217 0.315692263
    outer loop
      vertex 0.00784381914 0.0151146132 0.0574940776
      vertex 0.0124684442 0.028270093 0.016442616
      vertex 0.00574840537 0.0151632496 0.0581965929
    endloop
  endfacet
  facet normal 0.364114338 0.874223678 0.321175512
    outer loop
      vertex 0.00784381914 0.0151146132 0.0574940776
      vertex 0.00982443324 0.0149038934 0.0558222388
      vertex 0.0124684442 0.028270093 0.016442616
    endloop
  endfacet
  facet normal 0.816607918 0.529206706 0.230416515
    outer loop
      vertex 0.0102331304 0.0152628131 0.0542390158
      vertex 0.0107556247 0.014901961 0.0532160525
      vertex 0.0124684442 0.028270093 0.016442616
    endloop
  endfacet
  facet normal 0.871213577 0.379820768 0.311003356
    outer loop
      vertex 0.0102331304 0.0152628131 0.0542390158
      vertex 0.00982443324 0.0149038934 0.0558222388
      vertex 0.0107556247 0.014901961 0.0532160525
    endloop
  endfacet
  facet normal 0.483147275 0.818699685 0.310321666
    outer loop
      vertex 0.0102331304 0.0152628131 0.0542390158
      vertex 0.0124684442 0.028270093 0.016442616
      vertex 0.00982443324 0.0149038934 0.0558222388
    endloop
  endfacet
  facet normal 0.991769032 -0.0152058401 0.127133667
    outer loop
      vertex 0.0105310355 0.00918378649 0.0542841484
      vertex 0.0103977822 -0.00204239797 0.053980947
      vertex 0.0107556247 0.014901961 0.0532160525
    endloop
  endfacet
  facet normal 0.872349238 -0.0235433031 0.488316003
    outer loop
      vertex 0.0105310355 0.00918378649 0.0542841484
      vertex 0.00982443324 0.0149038934 0.0558222388
      vertex 0.0103977822 -0.00204239797 0.053980947
    endloop
  endfacet
  facet normal 0.941386288 0.02585032 0.336338546
    outer loop
      vertex 0.0105310355 0.00918378649 0.0542841484
      vertex 0.0107556247 0.014901961 0.0532160525
      vertex 0.00982443324 0.0149038934 0.0558222388
    endloop
  endfacet
  facet normal 0.00445114745 0.997932708 0.0641131616
    outer loop
      vertex 0.0057944684 0.0294680056 -0.00173975537
      vertex -0.00581777891 0.0295233618 -0.00179518825
      vertex 0.0124684442 0.028270093 0.016442616
    endloop
  endfacet
  facet normal 0.00111345752 0.999331236 -0.0365491472
    outer loop
      vertex 0.00586878347 0.029580589 -0.00428856989
      vertex 0.0124549203 0.0295018326 -0.00624129143
      vertex -0.0124807443 0.0295309458 -0.00620493143
    endloop
  endfacet
  facet normal 0.00455105442 0.999009687 0.0442598385
    outer loop
      vertex 0.00586878347 0.029580589 -0.00428856989
      vertex -0.00581777891 0.0295233618 -0.00179518825
      vertex 0.0057944684 0.0294680056 -0.00173975537
    endloop
  endfacet
  facet normal -0.788224148 0.61438799 0.0350726288
    outer loop
      vertex -0.0124316766 0.0294818055 -0.00424136189
      vertex -0.0124807443 0.0295309458 -0.00620493143
      vertex -0.0124787404 0.0282303248 0.0166238529
    endloop
  endfacet
  facet normal -0.02838066 0.997807816 0.0597837865
    outer loop
      vertex -0.0124316766 0.0294818055 -0.00424136189
      vertex -0.0124787404 0.0282303248 0.0166238529
      vertex -0.00581777891 0.0295233618 -0.00179518825
    endloop
  endfacet
  facet normal -0.0156771216 0.999554266 0.0254066356
    outer loop
      vertex -0.0124316766 0.0294818055 -0.00424136189
      vertex -0.00581777891 0.0295233618 -0.00179518825
      vertex -0.0124807443 0.0295309458 -0.00620493143
    endloop
  endfacet
  facet normal -0.998729 -0.0194191193 0.0465110948
    outer loop
      vertex -0.0106838062 0.00917649087 0.0534782652
      vertex -0.0125870279 0.0191796262 0.016787005
      vertex -0.0104633655 -0.0020463686 0.0535260489
    endloop
  endfacet
  facet normal -0.998748794 -0.0115815447 0.0486488789
    outer loop
      vertex -0.0106838062 0.00917649087 0.0534782652
      vertex -0.0107466056 0.0148979534 0.0535510828
      vertex -0.0125870279 0.0191796262 0.016787005
    endloop
  endfacet
  facet normal -0.523811249 0.0159834507 0.851684393
    outer loop
      vertex -0.0085130771 0.00937111084 0.0569843773
      vertex -0.00640850917 0.0151280534 0.0581707095
      vertex -0.00937417348 0.0150521658 0.0563481618
    endloop
  endfacet
  facet normal -0.628971378 -0.00827679964 0.777384396
    outer loop
      vertex -0.0085130771 0.00937111084 0.0569843773
      vertex -0.00937417348 0.0150521658 0.0563481618
      vertex -0.00944505476 0.00919236843 0.0562284235
    endloop
  endfacet
  facet normal -0.620753117 -0.0264429847 0.78356004
    outer loop
      vertex -0.0085130771 0.00937111084 0.0569843773
      vertex -0.0093939151 -0.00208167572 0.0559000587
      vertex -0.00684245428 -0.00202075748 0.0579234366
    endloop
  endfacet
  facet normal -0.626788313 -0.0255254382 0.77877138
    outer loop
      vertex -0.0085130771 0.00937111084 0.0569843773
      vertex -0.00944505476 0.00919236843 0.0562284235
      vertex -0.0093939151 -0.00208167572 0.0559000587
    endloop
  endfacet
  facet normal -0.00798761346 -0.00745169466 0.999940333
    outer loop
      vertex -0.00641988119 0.00919222651 0.0581820731
      vertex -1.1681887e-05 -0.000163319658 0.0581635435
      vertex 0.00566393366 0.00918764775 0.0582785656
    endloop
  endfacet
  facet normal -0.00798426577 0.00192964756 0.999966263
    outer loop
      vertex -0.00641988119 0.00919222651 0.0581820731
      vertex 0.00566393366 0.00918764775 0.0582785656
      vertex -0.00640850917 0.0151280534 0.0581707095
    endloop
  endfacet
  facet normal -0.0162721147 -0.0131259535 0.99978144
    outer loop
      vertex -0.00641988119 0.00919222651 0.0581820731
      vertex -0.00273402504 -0.00207776972 0.0580941011
      vertex -1.1681887e-05 -0.000163319658 0.0581635435
    endloop
  endfacet
  facet normal -0.0417920808 -0.0214653534 0.998895721
    outer loop
      vertex -0.00641988119 0.00919222651 0.0581820731
      vertex -0.00684245428 -0.00202075748 0.0579234366
      vertex -0.00273402504 -0.00207776972 0.0580941011
    endloop
  endfacet
  facet normal 0.0196875085 -0.999774138 0.00800472314
    outer loop
      vertex 0.0104962741 -0.00206973116 0.0503248458
      vertex 0.0103977822 -0.00204239797 0.053980947
      vertex 0.00847796488 -0.00205665692 0.056921797
    endloop
  endfacet
  facet normal 0.00830673697 -0.999955268 0.00452318338
    outer loop
      vertex 0.0104962741 -0.00206973116 0.0503248458
      vertex 0.00847796488 -0.00205665692 0.056921797
      vertex 0.00270356254 -0.00213451556 0.0503139024
    endloop
  endfacet
  facet normal 0.971252607 -0.237166095 0.0205089391
    outer loop
      vertex 0.0104962741 -0.00206973116 0.0503248458
      vertex 0.0124418401 0.00100826924 -0.00621824063
      vertex 0.0124082878 0.00104181529 -0.00424136189
    endloop
  endfacet
  facet normal 0.991824889 -0.124574716 0.0276501315
    outer loop
      vertex 0.0104962741 -0.00206973116 0.0503248458
      vertex 0.0124082878 0.00104181529 -0.00424136189
      vertex 0.0103977822 -0.00204239797 0.053980947
    endloop
  endfacet
  facet normal -0.000389083195 -0.999983006 -0.00581689428
    outer loop
      vertex 0.00268575211 -0.00212570468 0.0449012046
      vertex -0.00270491413 -0.0021236318 0.0449054291
      vertex -0.00274060567 -0.00207820328 0.0370981936
    endloop
  endfacet
  facet normal 0 -0.999998675 -0.00162781494
    outer loop
      vertex 0.00268575211 -0.00212570468 0.0449012046
      vertex 0.00270356254 -0.00213451556 0.0503139024
      vertex -0.00272687304 -0.00213451556 0.0503139024
    endloop
  endfacet
  facet normal -0.000386108659 -0.999997898 -0.00201391716
    outer loop
      vertex 0.00268575211 -0.00212570468 0.0449012046
      vertex -0.00272687304 -0.00213451556 0.0503139024
      vertex -0.00270491413 -0.0021236318 0.0449054291
    endloop
  endfacet
  facet normal 0.00776808513 -0.999765569 0.0202104825
    outer loop
      vertex 0.00579961769 -0.00205447184 0.0580593352
      vertex 0.00271064384 -0.00207777008 0.0580941011
      vertex 0.00847796488 -0.00205665692 0.056921797
    endloop
  endfacet
  facet normal 0.0114030611 -0.0200481142 0.999733986
    outer loop
      vertex 0.00579961769 -0.00205447184 0.0580593352
      vertex -1.1681887e-05 -0.000163319658 0.0581635435
      vertex 0.00271064384 -0.00207777008 0.0580941011
    endloop
  endfacet
  facet normal 0.0116286592 -0.0193554854 0.999745037
    outer loop
      vertex 0.00579961769 -0.00205447184 0.0580593352
      vertex 0.00566393366 0.00918764775 0.0582785656
      vertex -1.1681887e-05 -0.000163319658 0.0581635435
    endloop
  endfacet
  facet normal 0.703431884 -0.00980677856 0.71069502
    outer loop
      vertex 0.00823027181 0.00918857758 0.0573221301
      vertex 0.00847796488 -0.00205665692 0.056921797
      vertex 0.00927325772 0.00940615838 0.0562928056
    endloop
  endfacet
  facet normal 0.70342035 -0.00968989349 0.710708039
    outer loop
      vertex 0.00823027181 0.00918857758 0.0573221301
      vertex 0.00927325772 0.00940615838 0.0562928056
      vertex 0.00982443324 0.0149038934 0.0558222388
    endloop
  endfacet
  facet normal 0.646140301 0.0199988925 0.762956588
    outer loop
      vertex 0.00823027181 0.00918857758 0.0573221301
      vertex 0.00982443324 0.0149038934 0.0558222388
      vertex 0.00784381914 0.0151146132 0.0574940776
    endloop
  endfacet
  facet normal 0.879643816 0.474961455 0.0252660463
    outer loop
      vertex 0.0124082878 0.0294818055 -0.00424129106
      vertex 0.0124684442 0.028270093 0.016442616
      vertex 0.0124549203 0.0295018326 -0.00624129143
    endloop
  endfacet
  facet normal 0.0200107008 0.998091961 0.0584124029
    outer loop
      vertex 0.0124082878 0.0294818055 -0.00424129106
      vertex 0.0057944684 0.0294680056 -0.00173975537
      vertex 0.0124684442 0.028270093 0.016442616
    endloop
  endfacet
  facet normal 0.0150282249 0.999833374 0.0103623113
    outer loop
      vertex 0.0124082878 0.0294818055 -0.00424129106
      vertex 0.0124549203 0.0295018326 -0.00624129143
      vertex 0.00586878347 0.029580589 -0.00428856989
    endloop
  endfacet
  facet normal 0.0147669062 0.998897888 0.044552761
    outer loop
      vertex 0.0124082878 0.0294818055 -0.00424129106
      vertex 0.00586878347 0.029580589 -0.00428856989
      vertex 0.0057944684 0.0294680056 -0.00173975537
    endloop
  endfacet
  facet normal -0.00452642639 0.999953126 0.008559017
    outer loop
      vertex -0.0059078296 0.0295441088 -0.0042666818
      vertex -0.0124807443 0.0295309458 -0.00620493143
      vertex -0.00581777891 0.0295233618 -0.00179518825
    endloop
  endfacet
  facet normal -0.00309079049 0.999988414 0.00369030624
    outer loop
      vertex -0.0059078296 0.0295441088 -0.0042666818
      vertex 0.00586878347 0.029580589 -0.00428856989
      vertex -0.0124807443 0.0295309458 -0.00620493143
    endloop
  endfacet
  facet normal -0.00308174831 0.999959071 0.00850642899
    outer loop
      vertex -0.0059078296 0.0295441088 -0.0042666818
      vertex -0.00581777891 0.0295233618 -0.00179518825
      vertex 0.00586878347 0.029580589 -0.00428856989
    endloop
  endfacet
  facet normal -0.897941912 0.0372083208 0.438538327
    outer loop
      vertex -0.0100857093 0.0096212369 0.0553520297
      vertex -0.00937417348 0.0150521658 0.0563481618
      vertex -0.0107466056 0.0148979534 0.0535510828
    endloop
  endfacet
  facet normal -0.807825078 -0.00227246855 0.589417915
    outer loop
      vertex -0.0100857093 0.0096212369 0.0553520297
      vertex -0.00944505476 0.00919236843 0.0562284235
      vertex -0.00937417348 0.0150521658 0.0563481618
    endloop
  endfacet
  facet normal -0.951556362 -0.0143533838 0.307139172
    outer loop
      vertex -0.0100857093 0.0096212369 0.0553520297
      vertex -0.0107466056 0.0148979534 0.0535510828
      vertex -0.0106838062 0.00917649087 0.0534782652
    endloop
  endfacet
  facet normal -0.81191836 -0.0206750008 0.583404766
    outer loop
      vertex -0.0100857093 0.0096212369 0.0553520297
      vertex -0.0093939151 -0.00208167572 0.0559000587
      vertex -0.00944505476 0.00919236843 0.0562284235
    endloop
  endfacet
  facet normal -0.9114015 -0.0346734462 0.410054946
    outer loop
      vertex -0.0100857093 0.0096212369 0.0553520297
      vertex -0.0104633655 -0.0020463686 0.0535260489
      vertex -0.0093939151 -0.00208167572 0.0559000587
    endloop
  endfacet
  facet normal -0.951300585 -0.0173751409 0.307774756
    outer loop
      vertex -0.0100857093 0.0096212369 0.0553520297
      vertex -0.0106838062 0.00917649087 0.0534782652
      vertex -0.0104633655 -0.0020463686 0.0535260489
    endloop
  endfacet
  facet normal -0.496997473 0.00287105924 0.867747238
    outer loop
      vertex -0.00657337451 0.00935516065 0.0580953841
      vertex -0.00640850917 0.0151280534 0.0581707095
      vertex -0.0085130771 0.00937111084 0.0569843773
    endloop
  endfacet
  facet normal -0.489662846 0.00260730347 0.871907965
    outer loop
      vertex -0.00657337451 0.00935516065 0.0580953841
      vertex -0.00641988119 0.00919222651 0.0581820731
      vertex -0.00640850917 0.0151280534 0.0581707095
    endloop
  endfacet
  facet normal -0.497025256 -0.00135948958 0.867735009
    outer loop
      vertex -0.00657337451 0.00935516065 0.0580953841
      vertex -0.0085130771 0.00937111084 0.0569843773
      vertex -0.00684245428 -0.00202075748 0.0579234366
    endloop
  endfacet
  facet normal -0.49296289 -0.00149055558 0.87004906
    outer loop
      vertex -0.00657337451 0.00935516065 0.0580953841
      vertex -0.00684245428 -0.00202075748 0.0579234366
      vertex -0.00641988119 0.00919222651 0.0581820731
    endloop
  endfacet
  facet normal 0.000539015045 -0.999978974 -0.00646228637
    outer loop
      vertex 0.00271214504 -0.00207525812 0.0370972683
      vertex 0.00268575211 -0.00212570468 0.0449012046
      vertex -0.00274060567 -0.00207820328 0.0370981936
    endloop
  endfacet
  facet normal 0.00698239997 -0.999954883 -0.0064403391
    outer loop
      vertex 0.00271214504 -0.00207525812 0.0370972683
      vertex 0.0105029975 -0.0020209886 0.0371177291
      vertex 0.00268575211 -0.00212570468 0.0449012046
    endloop
  endfacet
  facet normal 0.00713111657 -0.997562571 -0.0694122721
    outer loop
      vertex 0.00271214504 -0.00207525812 0.0370972683
      vertex 0.0124418401 0.00100826924 -0.00621824063
      vertex 0.0105029975 -0.0020209886 0.0371177291
    endloop
  endfacet
  facet normal 0.000590084657 -0.997484958 -0.0708760186
    outer loop
      vertex 0.00271214504 -0.00207525812 0.0370972683
      vertex -0.0124516323 0.000995180898 -0.00624129263
      vertex 0.0124418401 0.00100826924 -0.00621824063
    endloop
  endfacet
  facet normal 0.000526741706 -0.99748656 -0.070853969
    outer loop
      vertex 0.00271214504 -0.00207525812 0.0370972683
      vertex -0.00274060567 -0.00207820328 0.0370981936
      vertex -0.0124516323 0.000995180898 -0.00624129263
    endloop
  endfacet
  facet normal 0.00729797156 -0.999954621 -0.00612339482
    outer loop
      vertex 0.0104985618 -0.00206850704 0.0448722367
      vertex 0.00268575211 -0.00212570468 0.0449012046
      vertex 0.0105029975 -0.0020209886 0.0371177291
    endloop
  endfacet
  facet normal 0.822087947 -0.569352522 -0.00301865778
    outer loop
      vertex 0.0104985618 -0.00206850704 0.0448722367
      vertex 0.0105029975 -0.0020209886 0.0371177291
      vertex 0.0124418401 0.00100826924 -0.00621824063
    endloop
  endfacet
  facet normal 0.84724883 -0.531196163 0.000236218395
    outer loop
      vertex 0.0104985618 -0.00206850704 0.0448722367
      vertex 0.0124418401 0.00100826924 -0.00621824063
      vertex 0.0104962741 -0.00206973116 0.0503248458
    endloop
  endfacet
  facet normal 0.00831348367 -0.999965418 -0.000221005962
    outer loop
      vertex 0.0104985618 -0.00206850704 0.0448722367
      vertex 0.0104962741 -0.00206973116 0.0503248458
      vertex 0.00270356254 -0.00213451556 0.0503139024
    endloop
  endfacet
  facet normal 0.00731467731 -0.999971883 -0.0016518402
    outer loop
      vertex 0.0104985618 -0.00206850704 0.0448722367
      vertex 0.00270356254 -0.00213451556 0.0503139024
      vertex 0.00268575211 -0.00212570468 0.0449012046
    endloop
  endfacet
  facet normal 0.0611834237 -0.0187224097 0.997950931
    outer loop
      vertex 0.00662652595 0.00962645825 0.0582277824
      vertex 0.00566393366 0.00918764775 0.0582785656
      vertex 0.00579961769 -0.00205447184 0.0580593352
    endloop
  endfacet
  facet normal 0.4931425 0.00691785729 0.869921041
    outer loop
      vertex 0.00662652595 0.00962645825 0.0582277824
      vertex 0.00823027181 0.00918857758 0.0573221301
      vertex 0.00784381914 0.0151146132 0.0574940776
    endloop
  endfacet
  facet normal 0.390564045 -0.0409107731 0.919666263
    outer loop
      vertex 0.00662652595 0.00962645825 0.0582277824
      vertex 0.00579961769 -0.00205447184 0.0580593352
      vertex 0.00847796488 -0.00205665692 0.056921797
    endloop
  endfacet
  facet normal 0.487404347 -0.0203410477 0.872939428
    outer loop
      vertex 0.00662652595 0.00962645825 0.0582277824
      vertex 0.00847796488 -0.00205665692 0.056921797
      vertex 0.00823027181 0.00918857758 0.0573221301
    endloop
  endfacet
  facet normal 0.0467496352 0.0130408779 0.998821509
    outer loop
      vertex 0.00662652595 0.00962645825 0.0582277824
      vertex 0.00574840537 0.0151632496 0.0581965929
      vertex 0.00566393366 0.00918764775 0.0582785656
    endloop
  endfacet
  facet normal 0.3185431 0.0558505306 0.946261598
    outer loop
      vertex 0.00662652595 0.00962645825 0.0582277824
      vertex 0.00784381914 0.0151146132 0.0574940776
      vertex 0.00574840537 0.0151632496 0.0581965929
    endloop
  endfacet
endsolid finger_convex_hull_120
