solid finger_convex_hull_105
  facet normal 0.000926450662 -0.000809407136 -0.999999243
    outer loop
      vertex 0.0108941852 0.00215348458 -0.00144015366
      vertex -0.0108876031 0.00214203228 -0.00146032416
      vertex 0.0109056304 0.0270853526 -0.00146032311
    endloop
  endfacet
  facet normal -0.819236104 -0.573445823 -0.00347767268
    outer loop
      vertex -0.00921358283 -0.00047957987 0.0364773061
      vertex -0.00919975255 -0.00054047042 0.0432597622
      vertex -0.0108876031 0.00214203228 -0.00146032416
    endloop
  endfacet
  facet normal -0.999994281 0.00298121113 -0.00159669533
    outer loop
      vertex -0.0109905552 0.0212835468 0.000227905691
      vertex -0.0110255939 0.0106929945 0.00239853723
      vertex -0.0110289755 0.0173789428 0.0169997756
    endloop
  endfacet
  facet normal -0.999908038 0.0135342359 0.000860317324
    outer loop
      vertex -0.0109113228 0.0259727832 0.0185466781
      vertex -0.0109905552 0.0212835468 0.000227905691
      vertex -0.0110289755 0.0173789428 0.0169997756
    endloop
  endfacet
  facet normal -0.999888576 0.0121202977 0.00871399255
    outer loop
      vertex -0.0110060743 0.0180534219 0.0186894362
      vertex -0.0109113228 0.0259727832 0.0185466781
      vertex -0.0110289755 0.0173789428 0.0169997756
    endloop
  endfacet
  facet normal -0.999703358 -0.0219818725 0.0104877789
    outer loop
      vertex -0.010870142 0.00218283737 0.000289615241
      vertex -0.0110289755 0.0173789428 0.0169997756
      vertex -0.0108876031 0.00214203228 -0.00146032416
    endloop
  endfacet
  facet normal -0.999672231 -0.0229422712 0.0113614549
    outer loop
      vertex -0.010870142 0.00218283737 0.000289615241
      vertex -0.0108967376 0.0116472349 0.0170610442
      vertex -0.0110289755 0.0173789428 0.0169997756
    endloop
  endfacet
  facet normal -0.00807868737 -0.99996735 -0.000183101388
    outer loop
      vertex -0.0082121006 -0.000550217256 0.0529133582
      vertex -0.00919975255 -0.00054047042 0.0432597622
      vertex -0.0023784388 -0.000596452117 0.0480254715
    endloop
  endfacet
  facet normal 0.998698991 -0.0189542066 0.0473398749
    outer loop
      vertex 0.0094187467 0.0143104649 0.0505648528
      vertex 0.00910563456 -0.000515849221 0.0512341355
      vertex 0.0110006969 0.0180533593 0.0186900659
    endloop
  endfacet
  facet normal 0.999825698 -0.0170634017 0.00757725968
    outer loop
      vertex 0.0109264721 0.0116892871 0.0170041545
      vertex 0.011019975 0.0106778538 0.00238871116
      vertex 0.0110236077 0.0173790073 0.0169998401
    endloop
  endfacet
  facet normal 0.999805203 -0.0181920977 0.00765523777
    outer loop
      vertex 0.0109264721 0.0116892871 0.0170041545
      vertex 0.0108941852 0.00215348458 -0.00144015366
      vertex 0.011019975 0.0106778538 0.00238871116
    endloop
  endfacet
  facet normal 0.999647455 -0.0170506711 0.0203528849
    outer loop
      vertex 0.0109264721 0.0116892871 0.0170041545
      vertex 0.0110236077 0.0173790073 0.0169998401
      vertex 0.0110006969 0.0180533593 0.0186900659
    endloop
  endfacet
  facet normal 0.998721896 -0.0235019607 0.0447463213
    outer loop
      vertex 0.0109264721 0.0116892871 0.0170041545
      vertex 0.0110006969 0.0180533593 0.0186900659
      vertex 0.00910563456 -0.000515849221 0.0512341355
    endloop
  endfacet
  facet normal 0.999999973 -5.01619384e-05 -0.000225625759
    outer loop
      vertex 0.0110205421 0.0175854044 0.00336647566
      vertex 0.0110236077 0.0173790073 0.0169998401
      vertex 0.011019975 0.0106778538 0.00238871116
    endloop
  endfacet
  facet normal 0.998606805 -0.000501106276 -0.0527655069
    outer loop
      vertex 0.0109852413 0.00796711898 0.000227905691
      vertex 0.0108941852 0.00215348458 -0.00144015366
      vertex 0.0109056304 0.0270853526 -0.00146032311
    endloop
  endfacet
  facet normal 0.999835413 -0.0172619133 0.00558333515
    outer loop
      vertex 0.0109852413 0.00796711898 0.000227905691
      vertex 0.011019975 0.0106778538 0.00238871116
      vertex 0.0108941852 0.00215348458 -0.00144015366
    endloop
  endfacet
  facet normal -0.0100399634 -0.99760098 -0.068494414
    outer loop
      vertex -0.00239045486 -0.000547178868 0.0364617263
      vertex -0.00921358283 -0.00047957987 0.0364773061
      vertex -0.0108876031 0.00214203228 -0.00146032416
    endloop
  endfacet
  facet normal -0.00992689826 -0.999910614 -0.00895661006
    outer loop
      vertex -0.00239045486 -0.000547178868 0.0364617263
      vertex -0.00919975255 -0.00054047042 0.0432597622
      vertex -0.00921358283 -0.00047957987 0.0364773061
    endloop
  endfacet
  facet normal -0.999869741 0 -0.0161400704
    outer loop
      vertex -0.0109905552 0.00796711898 0.000227905691
      vertex -0.0110255939 0.0106929945 0.00239853723
      vertex -0.0109905552 0.0212835468 0.000227905691
    endloop
  endfacet
  facet normal -0.999752283 -0.0203087653 0.00910642661
    outer loop
      vertex -0.0109905552 0.00796711898 0.000227905691
      vertex -0.0108876031 0.00214203228 -0.00146032416
      vertex -0.0110289755 0.0173789428 0.0169997756
    endloop
  endfacet
  facet normal -0.999761671 -0.0199359301 0.00889718224
    outer loop
      vertex -0.0109905552 0.00796711898 0.000227905691
      vertex -0.0110289755 0.0173789428 0.0169997756
      vertex -0.0110255939 0.0106929945 0.00239853723
    endloop
  endfacet
  facet normal 0.000655616169 0.954066796 0.299593256
    outer loop
      vertex 0.0109174638 0.0260075804 0.0183880959
      vertex -0.0109113228 0.0259727832 0.0185466781
      vertex 0.00503742981 0.0145390924 0.0549228256
    endloop
  endfacet
  facet normal 0.998621014 0.0123863362 0.0510161657
    outer loop
      vertex 0.0109174638 0.0260075804 0.0183880959
      vertex 0.0094187467 0.0143104649 0.0505648528
      vertex 0.0110006969 0.0180533593 0.0186900659
    endloop
  endfacet
  facet normal 0.999898845 0.0108137077 0.00923919845
    outer loop
      vertex 0.0109174638 0.0260075804 0.0183880959
      vertex 0.0110006969 0.0180533593 0.0186900659
      vertex 0.0110236077 0.0173790073 0.0169998401
    endloop
  endfacet
  facet normal -0.999907976 0.0135389088 0.000859120902
    outer loop
      vertex -0.0109130761 0.0271108266 -0.00142850811
      vertex -0.0109905552 0.0212835468 0.000227905691
      vertex -0.0109113228 0.0259727832 0.0185466781
    endloop
  endfacet
  facet normal -0.00145666364 0.00127274415 -0.999998129
    outer loop
      vertex -0.0109130761 0.0271108266 -0.00142850811
      vertex 0.0109056304 0.0270853526 -0.00146032311
      vertex -0.0108876031 0.00214203228 -0.00146032416
    endloop
  endfacet
  facet normal -0.998338139 -0.000945076707 -0.0576200179
    outer loop
      vertex -0.0109130761 0.0271108266 -0.00142850811
      vertex -0.0108876031 0.00214203228 -0.00146032416
      vertex -0.0109905552 0.00796711898 0.000227905691
    endloop
  endfacet
  facet normal -0.998907832 0 -0.0467241096
    outer loop
      vertex -0.0109130761 0.0271108266 -0.00142850811
      vertex -0.0109905552 0.00796711898 0.000227905691
      vertex -0.0109905552 0.0212835468 0.000227905691
    endloop
  endfacet
  facet normal -0.00340199651 0.95355165 0.301210355
    outer loop
      vertex -0.00559987042 0.0145082957 0.0549001777
      vertex 0.00503742981 0.0145390924 0.0549228256
      vertex -0.0109113228 0.0259727832 0.0185466781
    endloop
  endfacet
  facet normal -0.999499667 -0.0228256895 0.0218952938
    outer loop
      vertex -0.010901054 0.0129233317 0.0181943292
      vertex -0.0110289755 0.0173789428 0.0169997756
      vertex -0.0108967376 0.0116472349 0.0170610442
    endloop
  endfacet
  facet normal -0.999488542 -0.0226406098 0.0225844384
    outer loop
      vertex -0.010901054 0.0129233317 0.0181943292
      vertex -0.0110060743 0.0180534219 0.0186894362
      vertex -0.0110289755 0.0173789428 0.0169997756
    endloop
  endfacet
  facet normal 0 -0.999973403 0.00729338384
    outer loop
      vertex 0.00237938847 -0.000546799818 0.0548331453
      vertex -0.0023784388 -0.000596452117 0.0480254715
      vertex 0.00237319232 -0.000596452117 0.0480254715
    endloop
  endfacet
  facet normal -0.998749707 -0.0246434674 0.0434939229
    outer loop
      vertex -0.00914786969 -0.000519323525 0.0508360996
      vertex -0.0110060743 0.0180534219 0.0186894362
      vertex -0.010901054 0.0129233317 0.0181943292
    endloop
  endfacet
  facet normal -0.998569909 -0.0373486846 0.0382519562
    outer loop
      vertex -0.00914786969 -0.000519323525 0.0508360996
      vertex -0.010901054 0.0129233317 0.0181943292
      vertex -0.0108967376 0.0116472349 0.0170610442
    endloop
  endfacet
  facet normal -0.997860902 -0.0575978236 0.0309210343
    outer loop
      vertex -0.00914786969 -0.000519323525 0.0508360996
      vertex -0.0108967376 0.0116472349 0.0170610442
      vertex -0.010870142 0.00218283737 0.000289615241
    endloop
  endfacet
  facet normal 0.999145093 -0.0374109814 0.0175926554
    outer loop
      vertex 0.010864827 0.00218283737 0.000289615241
      vertex 0.0108941852 0.00215348458 -0.00144015366
      vertex 0.0109264721 0.0116892871 0.0170041545
    endloop
  endfacet
  facet normal 0.997629896 -0.0613277289 0.0312009731
    outer loop
      vertex 0.010864827 0.00218283737 0.000289615241
      vertex 0.0109264721 0.0116892871 0.0170041545
      vertex 0.00910563456 -0.000515849221 0.0512341355
    endloop
  endfacet
  facet normal 0.999150918 0.000522736803 -0.0411967232
    outer loop
      vertex 0.0109784156 0.0213341779 0.000231974441
      vertex 0.0109852413 0.00796711898 0.000227905691
      vertex 0.0109056304 0.0270853526 -0.00146032311
    endloop
  endfacet
  facet normal 0.999860094 0.00051564826 -0.0167190484
    outer loop
      vertex 0.0109784156 0.0213341779 0.000231974441
      vertex 0.011019975 0.0106778538 0.00238871116
      vertex 0.0109852413 0.00796711898 0.000227905691
    endloop
  endfacet
  facet normal 0.999931773 0.00155663051 -0.0115769904
    outer loop
      vertex 0.0109784156 0.0213341779 0.000231974441
      vertex 0.0110205421 0.0175854044 0.00336647566
      vertex 0.011019975 0.0106778538 0.00238871116
    endloop
  endfacet
  facet normal 0.999937385 0.0111903275 -5.54406571e-05
    outer loop
      vertex 0.0109784156 0.0213341779 0.000231974441
      vertex 0.0110236077 0.0173790073 0.0169998401
      vertex 0.0110205421 0.0175854044 0.00336647566
    endloop
  endfacet
  facet normal 0.999924719 0.012268522 0.000198915846
    outer loop
      vertex 0.0109784156 0.0213341779 0.000231974441
      vertex 0.0109174638 0.0260075804 0.0183880959
      vertex 0.0110236077 0.0173790073 0.0169998401
    endloop
  endfacet
  facet normal 0.999919577 0.0126819191 9.24898005e-05
    outer loop
      vertex 0.0109784156 0.0213341779 0.000231974441
      vertex 0.0109056304 0.0270853526 -0.00146032311
      vertex 0.0109174638 0.0260075804 0.0183880959
    endloop
  endfacet
  facet normal -0.00108431502 0.997571703 0.0696385123
    outer loop
      vertex -0.00508298144 0.0271041906 0.00243001717
      vertex -0.0109113228 0.0259727832 0.0185466781
      vertex 0.0109174638 0.0260075804 0.0183880959
    endloop
  endfacet
  facet normal -0.998590536 0.0128758558 0.0514893507
    outer loop
      vertex -0.00939570482 0.0143069582 0.0508580043
      vertex -0.0109113228 0.0259727832 0.0185466781
      vertex -0.0110060743 0.0180534219 0.0186894362
    endloop
  endfacet
  facet normal -0.22179762 0.920183428 0.322596147
    outer loop
      vertex -0.00819482669 0.0144418941 0.0533054485
      vertex -0.00559987042 0.0145082957 0.0549001777
      vertex -0.0109113228 0.0259727832 0.0185466781
    endloop
  endfacet
  facet normal -0.656043285 0.699521699 0.283331257
    outer loop
      vertex -0.00819482669 0.0144418941 0.0533054485
      vertex -0.0109113228 0.0259727832 0.0185466781
      vertex -0.00939570482 0.0143069582 0.0508580043
    endloop
  endfacet
  facet normal -0.00216870357 0.0137472303 0.999903151
    outer loop
      vertex 0.00496351706 0.00931044078 0.0549945518
      vertex 0.00503742981 0.0145390924 0.0549228256
      vertex -0.00559987042 0.0145082957 0.0549001777
    endloop
  endfacet
  facet normal -0.00678154162 -0.999974925 -0.00203983698
    outer loop
      vertex -0.00235922476 -0.000586928825 0.0432930573
      vertex -0.0023784388 -0.000596452117 0.0480254715
      vertex -0.00919975255 -0.00054047042 0.0432597622
    endloop
  endfacet
  facet normal -0.00676320109 -0.99996038 -0.00578762273
    outer loop
      vertex -0.00235922476 -0.000586928825 0.0432930573
      vertex -0.00919975255 -0.00054047042 0.0432597622
      vertex -0.00239045486 -0.000547178868 0.0364617263
    endloop
  endfacet
  facet normal -0.0159416256 -0.998613572 0.0501676986
    outer loop
      vertex -0.0023846968 -0.000546799504 0.0548331453
      vertex -0.00597957239 -0.000496913795 0.0546838139
      vertex -0.0082121006 -0.000550217256 0.0529133582
    endloop
  endfacet
  facet normal -2.38318852e-09 -0.0362489452 0.999342791
    outer loop
      vertex -0.0023846968 -0.000546799504 0.0548331453
      vertex 0.00237938847 -0.000546799818 0.0548331453
      vertex -2.64654624e-06 0.0011283443 0.0548939075
    endloop
  endfacet
  facet normal -0.00181572289 -0.999971766 0.00729174879
    outer loop
      vertex -0.0023846968 -0.000546799504 0.0548331453
      vertex -0.0082121006 -0.000550217256 0.0529133582
      vertex -0.0023784388 -0.000596452117 0.0480254715
    endloop
  endfacet
  facet normal -6.5743296e-08 -0.999973403 0.00729342978
    outer loop
      vertex -0.0023846968 -0.000546799504 0.0548331453
      vertex -0.0023784388 -0.000596452117 0.0480254715
      vertex 0.00237938847 -0.000546799818 0.0548331453
    endloop
  endfacet
  facet normal 0.00514221122 -0.999960216 0.00728860737
    outer loop
      vertex 0.00742579437 -0.000528325804 0.0538073792
      vertex 0.00237938847 -0.000546799818 0.0548331453
      vertex 0.00237319232 -0.000596452117 0.0480254715
    endloop
  endfacet
  facet normal 0.837032157 -0.0310354662 0.546272797
    outer loop
      vertex 0.00742579437 -0.000528325804 0.0538073792
      vertex 0.00910563456 -0.000515849221 0.0512341355
      vertex 0.00860395419 0.0143121557 0.0528452658
    endloop
  endfacet
  facet normal 0.70529812 -0.0100380611 0.708839756
    outer loop
      vertex 0.00742579437 -0.000528325804 0.0538073792
      vertex 0.00860395419 0.0143121557 0.0528452658
      vertex 0.00812167561 0.00950163758 0.0532570118
    endloop
  endfacet
  facet normal -0.0130620904 -0.999914634 0.000326799947
    outer loop
      vertex -0.00919862602 -0.000538924399 0.0480351721
      vertex -0.00919975255 -0.00054047042 0.0432597622
      vertex -0.0082121006 -0.000550217256 0.0529133582
    endloop
  endfacet
  facet normal -0.0505173212 -0.998691906 0.0079042775
    outer loop
      vertex -0.00919862602 -0.000538924399 0.0480351721
      vertex -0.0082121006 -0.000550217256 0.0529133582
      vertex -0.00914786969 -0.000519323525 0.0508360996
    endloop
  endfacet
  facet normal -0.849172367 -0.528115663 0.000371296064
    outer loop
      vertex -0.00919862602 -0.000538924399 0.0480351721
      vertex -0.0108876031 0.00214203228 -0.00146032416
      vertex -0.00919975255 -0.00054047042 0.0432597622
    endloop
  endfacet
  facet normal -0.9545887 -0.297471736 0.0164614904
    outer loop
      vertex -0.00919862602 -0.000538924399 0.0480351721
      vertex -0.010870142 0.00218283737 0.000289615241
      vertex -0.0108876031 0.00214203228 -0.00146032416
    endloop
  endfacet
  facet normal -0.966728614 -0.255074827 0.0193033537
    outer loop
      vertex -0.00919862602 -0.000538924399 0.0480351721
      vertex -0.00914786969 -0.000519323525 0.0508360996
      vertex -0.010870142 0.00218283737 0.000289615241
    endloop
  endfacet
  facet normal 0.127663668 0.940234217 0.315692263
    outer loop
      vertex 0.00687091685 0.0144965356 0.0543081248
      vertex 0.0109174638 0.0260075804 0.0183880959
      vertex 0.00503742981 0.0145390924 0.0549228256
    endloop
  endfacet
  facet normal 0.364114338 0.874223678 0.321175512
    outer loop
      vertex 0.00687091685 0.0144965356 0.0543081248
      vertex 0.00860395419 0.0143121557 0.0528452658
      vertex 0.0109174638 0.0260075804 0.0183880959
    endloop
  endfacet
  facet normal 0.816607918 0.529206706 0.230416515
    outer loop
      vertex 0.00896156418 0.0146262105 0.0514599457
      vertex 0.0094187467 0.0143104649 0.0505648528
      vertex 0.0109174638 0.0260075804 0.0183880959
    endloop
  endfacet
  facet normal 0.871213577 0.379820768 0.311003356
    outer loop
      vertex 0.00896156418 0.0146262105 0.0514599457
      vertex 0.00860395419 0.0143121557 0.0528452658
      vertex 0.0094187467 0.0143104649 0.0505648528
    endloop
  endfacet
  facet normal 0.483147275 0.818699685 0.310321666
    outer loop
      vertex 0.00896156418 0.0146262105 0.0514599457
      vertex 0.0109174638 0.0260075804 0.0183880959
      vertex 0.00860395419 0.0143121557 0.0528452658
    endloop
  endfacet
  facet normal 0.991769032 -0.0152058401 0.127133667
    outer loop
      vertex 0.00922223117 0.00930706217 0.0514994367
      vertex 0.00910563456 -0.000515849221 0.0512341355
      vertex 0.0094187467 0.0143104649 0.0505648528
    endloop
  endfacet
  facet normal 0.872349238 -0.0235433031 0.488316003
    outer loop
      vertex 0.00922223117 0.00930706217 0.0514994367
      vertex 0.00860395419 0.0143121557 0.0528452658
      vertex 0.00910563456 -0.000515849221 0.0512341355
    endloop
  endfacet
  facet normal 0.941386288 0.02585032 0.336338546
    outer loop
      vertex 0.00922223117 0.00930706217 0.0514994367
      vertex 0.0094187467 0.0143104649 0.0505648528
      vertex 0.00860395419 0.0143121557 0.0528452658
    endloop
  endfacet
  facet normal 0.00445114745 0.997932708 0.0641131616
    outer loop
      vertex 0.00507773496 0.0270557539 0.00247852095
      vertex -0.00508298144 0.0271041906 0.00243001717
      vertex 0.0109174638 0.0260075804 0.0183880959
    endloop
  endfacet
  facet normal 0.00111345752 0.999331236 -0.0365491472
    outer loop
      vertex 0.00514276064 0.0271542644 0.000248308241
      vertex 0.0109056304 0.0270853526 -0.00146032311
      vertex -0.0109130761 0.0271108266 -0.00142850811
    endloop
  endfacet
  facet normal 0.00455105442 0.999009687 0.0442598385
    outer loop
      vertex 0.00514276064 0.0271542644 0.000248308241
      vertex -0.00508298144 0.0271041906 0.00243001717
      vertex 0.00507773496 0.0270557539 0.00247852095
    endloop
  endfacet
  facet normal -0.788224148 0.61438799 0.0350726288
    outer loop
      vertex -0.010870142 0.0270678288 0.000289615241
      vertex -0.0109130761 0.0271108266 -0.00142850811
      vertex -0.0109113228 0.0259727832 0.0185466781
    endloop
  endfacet
  facet normal -0.02838066 0.997807816 0.0597837865
    outer loop
      vertex -0.010870142 0.0270678288 0.000289615241
      vertex -0.0109113228 0.0259727832 0.0185466781
      vertex -0.00508298144 0.0271041906 0.00243001717
    endloop
  endfacet
  facet normal -0.0156771216 0.999554266 0.0254066356
    outer loop
      vertex -0.010870142 0.0270678288 0.000289615241
      vertex -0.00508298144 0.0271041906 0.00243001717
      vertex -0.0109130761 0.0271108266 -0.00142850811
    endloop
  endfacet
  facet normal -0.998729 -0.0194191193 0.0465110948
    outer loop
      vertex -0.0093407553 0.00930067851 0.050794289
      vertex -0.0110060743 0.0180534219 0.0186894362
      vertex -0.00914786969 -0.000519323525 0.0508360996
    endloop
  endfacet
  facet normal -0.998748794 -0.0115815447 0.0486488789
    outer loop
      vertex -0.0093407553 0.00930067851 0.050794289
      vertex -0.00939570482 0.0143069582 0.0508580043
      vertex -0.0110060743 0.0180534219 0.0186894362
    endloop
  endfacet
  facet normal -0.523811249 0.0159834507 0.851684393
    outer loop
      vertex -0.00744136736 0.00947097099 0.0538621371
      vertex -0.00559987042 0.0145082957 0.0549001777
      vertex -0.00819482669 0.0144418941 0.0533054485
    endloop
  endfacet
  facet normal -0.628971378 -0.00827679964 0.777384396
    outer loop
      vertex -0.00744136736 0.00947097099 0.0538621371
      vertex -0.00819482669 0.0144418941 0.0533054485
      vertex -0.00825684781 0.00931457138 0.0532006775
    endloop
  endfacet
  facet normal -0.620753117 -0.0264429847 0.78356004
    outer loop
      vertex -0.00744136736 0.00947097099 0.0538621371
      vertex -0.0082121006 -0.000550217256 0.0529133582
      vertex -0.00597957239 -0.000496913795 0.0546838139
    endloop
  endfacet
  facet normal -0.626788313 -0.0255254382 0.77877138
    outer loop
      vertex -0.00744136736 0.00947097099 0.0538621371
      vertex -0.00825684781 0.00931457138 0.0532006775
      vertex -0.0082121006 -0.000550217256 0.0529133582
    endloop
  endfacet
  facet normal -0.00798761346 -0.00745169466 0.999940333
    outer loop
      vertex -0.00560982093 0.00931444719 0.0549101208
      vertex -2.64654624e-06 0.0011283443 0.0548939075
      vertex 0.00496351706 0.00931044078 0.0549945518
    endloop
  endfacet
  facet normal -0.00798426577 0.00192964756 0.999966263
    outer loop
      vertex -0.00560982093 0.00931444719 0.0549101208
      vertex 0.00496351706 0.00931044078 0.0549945518
      vertex -0.00559987042 0.0145082957 0.0549001777
    endloop
  endfacet
  facet normal -0.0162721147 -0.0131259535 0.99978144
    outer loop
      vertex -0.00560982093 0.00931444719 0.0549101208
      vertex -0.0023846968 -0.000546799504 0.0548331453
      vertex -2.64654624e-06 0.0011283443 0.0548939075
    endloop
  endfacet
  facet normal -0.0417920808 -0.0214653534 0.998895721
    outer loop
      vertex -0.00560982093 0.00931444719 0.0549101208
      vertex -0.00597957239 -0.000496913795 0.0546838139
      vertex -0.0023846968 -0.000546799504 0.0548331453
    endloop
  endfacet
  facet normal 0.0196875085 -0.999774138 0.00800472314
    outer loop
      vertex 0.00919181492 -0.000539765765 0.048035047
      vertex 0.00910563456 -0.000515849221 0.0512341355
      vertex 0.00742579437 -0.000528325804 0.0538073792
    endloop
  endfacet
  facet normal 0.00830673697 -0.999955268 0.00452318338
    outer loop
      vertex 0.00919181492 -0.000539765765 0.048035047
      vertex 0.00742579437 -0.000528325804 0.0538073792
      vertex 0.00237319232 -0.000596452117 0.0480254715
    endloop
  endfacet
  facet normal 0.971252607 -0.237166095 0.0205089391
    outer loop
      vertex 0.00919181492 -0.000539765765 0.048035047
      vertex 0.0108941852 0.00215348458 -0.00144015366
      vertex 0.010864827 0.00218283737 0.000289615241
    endloop
  endfacet
  facet normal 0.991824889 -0.124574716 0.0276501315
    outer loop
      vertex 0.00919181492 -0.000539765765 0.048035047
      vertex 0.010864827 0.00218283737 0.000289615241
      vertex 0.00910563456 -0.000515849221 0.0512341355
    endloop
  endfacet
  facet normal -0.000389083195 -0.999983006 -0.00581689428
    outer loop
      vertex 0.0023576082 -0.000588742595 0.0432893609
      vertex -0.00235922476 -0.000586928825 0.0432930573
      vertex -0.00239045486 -0.000547178868 0.0364617263
    endloop
  endfacet
  facet normal 0 -0.999998675 -0.00162781494
    outer loop
      vertex 0.0023576082 -0.000588742595 0.0432893609
      vertex 0.00237319232 -0.000596452117 0.0480254715
      vertex -0.0023784388 -0.000596452117 0.0480254715
    endloop
  endfacet
  facet normal -0.000386108659 -0.999997898 -0.00201391716
    outer loop
      vertex 0.0023576082 -0.000588742595 0.0432893609
      vertex -0.0023784388 -0.000596452117 0.0480254715
      vertex -0.00235922476 -0.000586928825 0.0432930573
    endloop
  endfacet
  facet normal 0.00776808513 -0.999765569 0.0202104825
    outer loop
      vertex 0.00508224058 -0.00052641386 0.0548027252
      vertex 0.00237938847 -0.000546799818 0.0548331453
      vertex 0.00742579437 -0.000528325804 0.0538073792
    endloop
  endfacet
  facet normal 0.0114030611 -0.0200481142 0.999733986
    outer loop
      vertex 0.00508224058 -0.00052641386 0.0548027252
      vertex -2.64654624e-06 0.0011283443 0.0548939075
      vertex 0.00237938847 -0.000546799818 0.0548331453
    endloop
  endfacet
  facet normal 0.0116286592 -0.0193554854 0.999745037
    outer loop
      vertex 0.00508224058 -0.00052641386 0.0548027252
      vertex 0.00496351706 0.00931044078 0.0549945518
      vertex -2.64654624e-06 0.0011283443 0.0548939075
    endloop
  endfacet
  facet normal 0.703431884 -0.00980677856 0.71069502
    outer loop
      vertex 0.00720906294 0.00931125438 0.0541576707
      vertex 0.00742579437 -0.000528325804 0.0538073792
      vertex 0.00812167561 0.00950163758 0.0532570118
    endloop
  endfacet
  facet normal 0.70342035 -0.00968989349 0.710708039
    outer loop
      vertex 0.00720906294 0.00931125438 0.0541576707
      vertex 0.00812167561 0.00950163758 0.0532570118
      vertex 0.00860395419 0.0143121557 0.0528452658
    endloop
  endfacet
  facet normal 0.646140301 0.0199988925 0.762956588
    outer loop
      vertex 0.00720906294 0.00931125438 0.0541576707
      vertex 0.00860395419 0.0143121557 0.0528452658
      vertex 0.00687091685 0.0144965356 0.0543081248
    endloop
  endfacet
  facet normal 0.879643816 0.474961455 0.0252660463
    outer loop
      vertex 0.010864827 0.0270678288 0.000289677212
      vertex 0.0109174638 0.0260075804 0.0183880959
      vertex 0.0109056304 0.0270853526 -0.00146032311
    endloop
  endfacet
  facet normal 0.0200107008 0.998091961 0.0584124029
    outer loop
      vertex 0.010864827 0.0270678288 0.000289677212
      vertex 0.00507773496 0.0270557539 0.00247852095
      vertex 0.0109174638 0.0260075804 0.0183880959
    endloop
  endfacet
  facet normal 0.0150282249 0.999833374 0.0103623113
    outer loop
      vertex 0.010864827 0.0270678288 0.000289677212
      vertex 0.0109056304 0.0270853526 -0.00146032311
      vertex 0.00514276064 0.0271542644 0.000248308241
    endloop
  endfacet
  facet normal 0.0147669062 0.998897888 0.044552761
    outer loop
      vertex 0.010864827 0.0270678288 0.000289677212
      vertex 0.00514276064 0.0271542644 0.000248308241
      vertex 0.00507773496 0.0270557539 0.00247852095
    endloop
  endfacet
  facet normal -0.00452642639 0.999953126 0.008559017
    outer loop
      vertex -0.00516177579 0.0271223442 0.000267460314
      vertex -0.0109130761 0.0271108266 -0.00142850811
      vertex -0.00508298144 0.0271041906 0.00243001717
    endloop
  endfacet
  facet normal -0.00309079049 0.999988414 0.00369030624
    outer loop
      vertex -0.00516177579 0.0271223442 0.000267460314
      vertex 0.00514276064 0.0271542644 0.000248308241
      vertex -0.0109130761 0.0271108266 -0.00142850811
    endloop
  endfacet
  facet normal -0.00308174831 0.999959071 0.00850642899
    outer loop
      vertex -0.00516177579 0.0271223442 0.000267460314
      vertex -0.00508298144 0.0271041906 0.00243001717
      vertex 0.00514276064 0.0271542644 0.000248308241
    endloop
  endfacet
  facet normal -0.897941912 0.0372083208 0.438538327
    outer loop
      vertex -0.00881742055 0.00968983128 0.0524338329
      vertex -0.00819482669 0.0144418941 0.0533054485
      vertex -0.00939570482 0.0143069582 0.0508580043
    endloop
  endfacet
  facet normal -0.807825078 -0.00227246855 0.589417915
    outer loop
      vertex -0.00881742055 0.00968983128 0.0524338329
      vertex -0.00825684781 0.00931457138 0.0532006775
      vertex -0.00819482669 0.0144418941 0.0533054485
    endloop
  endfacet
  facet normal -0.951556362 -0.0143533838 0.307139172
    outer loop
      vertex -0.00881742055 0.00968983128 0.0524338329
      vertex -0.00939570482 0.0143069582 0.0508580043
      vertex -0.0093407553 0.00930067851 0.050794289
    endloop
  endfacet
  facet normal -0.81191836 -0.0206750008 0.583404766
    outer loop
      vertex -0.00881742055 0.00968983128 0.0524338329
      vertex -0.0082121006 -0.000550217256 0.0529133582
      vertex -0.00825684781 0.00931457138 0.0532006775
    endloop
  endfacet
  facet normal -0.9114015 -0.0346734462 0.410054946
    outer loop
      vertex -0.00881742055 0.00968983128 0.0524338329
      vertex -0.00914786969 -0.000519323525 0.0508360996
      vertex -0.0082121006 -0.000550217256 0.0529133582
    endloop
  endfacet
  facet normal -0.951300585 -0.0173751409 0.307774756
    outer loop
      vertex -0.00881742055 0.00968983128 0.0524338329
      vertex -0.0093407553 0.00930067851 0.050794289
      vertex -0.00914786969 -0.000519323525 0.0508360996
    endloop
  endfacet
  facet normal -0.496997473 0.00287105924 0.867747238
    outer loop
      vertex -0.00574412759 0.00945701456 0.054834268
      vertex -0.00559987042 0.0145082957 0.0549001777
      vertex -0.00744136736 0.00947097099 0.0538621371
    endloop
  endfacet
  facet normal -0.489662846 0.00260730347 0.871907965
    outer loop
      vertex -0.00574412759 0.00945701456 0.054834268
      vertex -0.00560982093 0.00931444719 0.0549101208
      vertex -0.00559987042 0.0145082957 0.0549001777
    endloop
  endfacet
  facet normal -0.497025256 -0.00135948958 0.867735009
    outer loop
      vertex -0.00574412759 0.00945701456 0.054834268
      vertex -0.00744136736 0.00947097099 0.0538621371
      vertex -0.00597957239 -0.000496913795 0.0546838139
    endloop
  endfacet
  facet normal -0.49296289 -0.00149055558 0.87004906
    outer loop
      vertex -0.00574412759 0.00945701456 0.054834268
      vertex -0.00597957239 -0.000496913795 0.0546838139
      vertex -0.00560982093 0.00931444719 0.0549101208
    endloop
  endfacet
  facet normal 0.000539015045 -0.999978974 -0.00646228637
    outer loop
      vertex 0.00238070202 -0.000544601856 0.0364609166
      vertex 0.0023576082 -0.000588742595 0.0432893609
      vertex -0.00239045486 -0.000547178868 0.0364617263
    endloop
  endfacet
  facet normal 0.00698239997 -0.999954883 -0.0064403391
    outer loop
      vertex 0.00238070202 -0.000544601856 0.0364609166
      vertex 0.0091976979 -0.000497116025 0.0364788198
      vertex 0.0023576082 -0.000588742595 0.0432893609
    endloop
  endfacet
  facet normal 0.00713111657 -0.997562571 -0.0694122721
    outer loop
      vertex 0.00238070202 -0.000544601856 0.0364609166
      vertex 0.0108941852 0.00215348458 -0.00144015366
      vertex 0.0091976979 -0.000497116025 0.0364788198
    endloop
  endfacet
  facet normal 0.000590084657 -0.997484958 -0.0708760186
    outer loop
      vertex 0.00238070202 -0.000544601856 0.0364609166
      vertex -0.0108876031 0.00214203228 -0.00146032416
      vertex 0.0108941852 0.00215348458 -0.00144015366
    endloop
  endfacet
  facet normal 0.000526741706 -0.99748656 -0.070853969
    outer loop
      vertex 0.00238070202 -0.000544601856 0.0364609166
      vertex -0.00239045486 -0.000547178868 0.0364617263
      vertex -0.0108876031 0.00214203228 -0.00146032416
    endloop
  endfacet
  facet normal 0.00729797156 -0.999954621 -0.00612339482
    outer loop
      vertex 0.00919381666 -0.00053869466 0.043264014
      vertex 0.0023576082 -0.000588742595 0.0432893609
      vertex 0.0091976979 -0.000497116025 0.0364788198
    endloop
  endfacet
  facet normal 0.822087947 -0.569352522 -0.00301865778
    outer loop
      vertex 0.00919381666 -0.00053869466 0.043264014
      vertex 0.0091976979 -0.000497116025 0.0364788198
      vertex 0.0108941852 0.00215348458 -0.00144015366
    endloop
  endfacet
  facet normal 0.84724883 -0.531196163 0.000236218395
    outer loop
      vertex 0.00919381666 -0.00053869466 0.043264014
      vertex 0.0108941852 0.00215348458 -0.00144015366
      vertex 0.00919181492 -0.000539765765 0.048035047
    endloop
  endfacet
  facet normal 0.00831348367 -0.999965418 -0.000221005962
    outer loop
      vertex 0.00919381666 -0.00053869466 0.043264014
      vertex 0.00919181492 -0.000539765765 0.048035047
      vertex 0.00237319232 -0.000596452117 0.0480254715
    endloop
  endfacet
  facet normal 0.00731467731 -0.999971883 -0.0016518402
    outer loop
      vertex 0.00919381666 -0.00053869466 0.043264014
      vertex 0.00237319232 -0.000596452117 0.0480254715
      vertex 0.0023576082 -0.000588742595 0.0432893609
    endloop
  endfacet
  facet normal 0.0611834237 -0.0187224097 0.997950931
    outer loop
      vertex 0.00580578531 0.00969439997 0.0549501165
      vertex 0.00496351706 0.00931044078 0.0549945518
      vertex 0.00508224058 -0.00052641386 0.0548027252
    endloop
  endfacet
  facet normal 0.4931425 0.00691785729 0.869921041
    outer loop
      vertex 0.00580578531 0.00969439997 0.0549501165
      vertex 0.00720906294 0.00931125438 0.0541576707
      vertex 0.00687091685 0.0144965356 0.0543081248
    endloop
  endfacet
  facet normal 0.390564045 -0.0409107731 0.919666263
    outer loop
      vertex 0.00580578531 0.00969439997 0.0549501165
      vertex 0.00508224058 -0.00052641386 0.0548027252
      vertex 0.00742579437 -0.000528325804 0.0538073792
    endloop
  endfacet
  facet normal 0.487404347 -0.0203410477 0.872939428
    outer loop
      vertex 0.00580578531 0.00969439997 0.0549501165
      vertex 0.00742579437 -0.000528325804 0.0538073792
      vertex 0.00720906294 0.00931125438 0.0541576707
    endloop
  endfacet
  facet normal 0.0467496352 0.0130408779 0.998821509
    outer loop
      vertex 0.00580578531 0.00969439997 0.0549501165
      vertex 0.00503742981 0.0145390924 0.0549228256
      vertex 0.00496351706 0.00931044078 0.0549945518
    endloop
  endfacet
  facet normal 0.3185431 0.0558505306 0.946261598
    outer loop
      vertex 0.00580578531 0.00969439997 0.0549501165
      vertex 0.00687091685 0.0144965356 0.0543081248
      vertex 0.00503742981 0.0145390924 0.0549228256
    endloop
  endfacet
endsolid finger_convex_hull_105
