solid finger_convex_hull_130
  facet normal 0.000926450662 -0.000809407136 -0.999999243
    outer loop
      vertex 0.01347361 0.000244792343 -0.00940363195
      vertex -0.0134943184 0.000230613308 -0.00942860495
      vertex 0.0134877803 0.0311128194 -0.00942860364
    endloop
  endfacet
  facet normal -0.819236104 -0.573445823 -0.00347767268
    outer loop
      vertex -0.0114217218 -0.00301519222 0.0375417944
      vertex -0.0114045986 -0.00309058052 0.045939121
      vertex -0.0134943184 0.000230613308 -0.00942860495
    endloop
  endfacet
  facet normal -0.999994281 0.00298121113 -0.00159669533
    outer loop
      vertex -0.0136217829 0.0239296313 -0.00733841561
      vertex -0.0136651641 0.0108175189 -0.00465096704
      vertex -0.0136693508 0.0190953596 0.0134267567
    endloop
  endfacet
  facet normal -0.999908038 0.0135342359 0.000860317324
    outer loop
      vertex -0.0135236855 0.0297353525 0.0153419693
      vertex -0.0136217829 0.0239296313 -0.00733841561
      vertex -0.0136693508 0.0190953596 0.0134267567
    endloop
  endfacet
  facet normal -0.999888576 0.0121202977 0.00871399255
    outer loop
      vertex -0.013640997 0.0199304291 0.0155187175
      vertex -0.0135236855 0.0297353525 0.0153419693
      vertex -0.0136693508 0.0190953596 0.0134267567
    endloop
  endfacet
  facet normal -0.999703358 -0.0219818725 0.0104877789
    outer loop
      vertex -0.0134726998 0.000281133895 -0.00726201331
      vertex -0.0136693508 0.0190953596 0.0134267567
      vertex -0.0134943184 0.000230613308 -0.00942860495
    endloop
  endfacet
  facet normal -0.999672231 -0.0229422712 0.0113614549
    outer loop
      vertex -0.0134726998 0.000281133895 -0.00726201331
      vertex -0.0135056277 0.0119989594 0.013502613
      vertex -0.0136693508 0.0190953596 0.0134267567
    endloop
  endfacet
  facet normal -0.00807868737 -0.99996735 -0.000183101388
    outer loop
      vertex -0.0101817914 -0.00310264803 0.0578911923
      vertex -0.0114045986 -0.00309058052 0.045939121
      vertex -0.00295916253 -0.00315989119 0.051839523
    endloop
  endfacet
  facet normal 0.998698991 -0.0189542066 0.0473398749
    outer loop
      vertex 0.0116468767 0.0152962918 0.0549835189
      vertex 0.011259214 -0.00306009713 0.0558121547
      vertex 0.0136054816 0.0199303516 0.0155194971
    endloop
  endfacet
  facet normal 0.999825698 -0.0170634017 0.00757725968
    outer loop
      vertex 0.0135135844 0.012051024 0.0134321782
      vertex 0.0136293497 0.0107987733 -0.00466313264
      vertex 0.0136338475 0.0190954396 0.0134268365
    endloop
  endfacet
  facet normal 0.999805203 -0.0181920977 0.00765523777
    outer loop
      vertex 0.0135135844 0.012051024 0.0134321782
      vertex 0.01347361 0.000244792343 -0.00940363195
      vertex 0.0136293497 0.0107987733 -0.00466313264
    endloop
  endfacet
  facet normal 0.999647455 -0.0170506711 0.0203528849
    outer loop
      vertex 0.0135135844 0.012051024 0.0134321782
      vertex 0.0136338475 0.0190954396 0.0134268365
      vertex 0.0136054816 0.0199303516 0.0155194971
    endloop
  endfacet
  facet normal 0.998721896 -0.0235019607 0.0447463213
    outer loop
      vertex 0.0135135844 0.012051024 0.0134321782
      vertex 0.0136054816 0.0199303516 0.0155194971
      vertex 0.011259214 -0.00306009713 0.0558121547
    endloop
  endfacet
  facet normal 0.999999973 -5.01619384e-05 -0.000225625759
    outer loop
      vertex 0.0136300519 0.0193509788 -0.00345256707
      vertex 0.0136338475 0.0190954396 0.0134268365
      vertex 0.0136293497 0.0107987733 -0.00466313264
    endloop
  endfacet
  facet normal 0.998606805 -0.000501106276 -0.0527655069
    outer loop
      vertex 0.0135863461 0.0074426254 -0.00733841561
      vertex 0.01347361 0.000244792343 -0.00940363195
      vertex 0.0134877803 0.0311128194 -0.00942860364
    endloop
  endfacet
  facet normal 0.999835413 -0.0172619133 0.00558333515
    outer loop
      vertex 0.0135863461 0.0074426254 -0.00733841561
      vertex 0.0136293497 0.0107987733 -0.00466313264
      vertex 0.01347361 0.000244792343 -0.00940363195
    endloop
  endfacet
  facet normal -0.0100399634 -0.99760098 -0.068494414
    outer loop
      vertex -0.00297403955 -0.00309888621 0.0375225051
      vertex -0.0114217218 -0.00301519222 0.0375417944
      vertex -0.0134943184 0.000230613308 -0.00942860495
    endloop
  endfacet
  facet normal -0.00992689826 -0.999910614 -0.00895661006
    outer loop
      vertex -0.00297403955 -0.00309888621 0.0375225051
      vertex -0.0114045986 -0.00309058052 0.045939121
      vertex -0.0114217218 -0.00301519222 0.0375417944
    endloop
  endfacet
  facet normal -0.999869741 0 -0.0161400704
    outer loop
      vertex -0.0136217829 0.0074426254 -0.00733841561
      vertex -0.0136651641 0.0108175189 -0.00465096704
      vertex -0.0136217829 0.0239296313 -0.00733841561
    endloop
  endfacet
  facet normal -0.999752283 -0.0203087653 0.00910642661
    outer loop
      vertex -0.0136217829 0.0074426254 -0.00733841561
      vertex -0.0134943184 0.000230613308 -0.00942860495
      vertex -0.0136693508 0.0190953596 0.0134267567
    endloop
  endfacet
  facet normal -0.999761671 -0.0199359301 0.00889718224
    outer loop
      vertex -0.0136217829 0.0074426254 -0.00733841561
      vertex -0.0136693508 0.0190953596 0.0134267567
      vertex -0.0136651641 0.0108175189 -0.00465096704
    endloop
  endfacet
  facet normal 0.000655616169 0.954066796 0.299593256
    outer loop
      vertex 0.0135024311 0.0297784348 0.0151456294
      vertex -0.0135236855 0.0297353525 0.0153419693
      vertex 0.00622238908 0.0155793544 0.0603791043
    endloop
  endfacet
  facet normal 0.998621014 0.0123863362 0.0510161657
    outer loop
      vertex 0.0135024311 0.0297784348 0.0151456294
      vertex 0.0116468767 0.0152962918 0.0549835189
      vertex 0.0136054816 0.0199303516 0.0155194971
    endloop
  endfacet
  facet normal 0.999898845 0.0108137077 0.00923919845
    outer loop
      vertex 0.0135024311 0.0297784348 0.0151456294
      vertex 0.0136054816 0.0199303516 0.0155194971
      vertex 0.0136338475 0.0190954396 0.0134268365
    endloop
  endfacet
  facet normal -0.999907976 0.0135389088 0.000859120902
    outer loop
      vertex -0.0135258564 0.0311443587 -0.00938921364
      vertex -0.0136217829 0.0239296313 -0.00733841561
      vertex -0.0135236855 0.0297353525 0.0153419693
    endloop
  endfacet
  facet normal -0.00145666364 0.00127274415 -0.999998129
    outer loop
      vertex -0.0135258564 0.0311443587 -0.00938921364
      vertex 0.0134877803 0.0311128194 -0.00942860364
      vertex -0.0134943184 0.000230613308 -0.00942860495
    endloop
  endfacet
  facet normal -0.998338139 -0.000945076707 -0.0576200179
    outer loop
      vertex -0.0135258564 0.0311443587 -0.00938921364
      vertex -0.0134943184 0.000230613308 -0.00942860495
      vertex -0.0136217829 0.0074426254 -0.00733841561
    endloop
  endfacet
  facet normal -0.998907832 0 -0.0467241096
    outer loop
      vertex -0.0135258564 0.0311443587 -0.00938921364
      vertex -0.0136217829 0.0074426254 -0.00733841561
      vertex -0.0136217829 0.0239296313 -0.00733841561
    endloop
  endfacet
  facet normal -0.00340199651 0.95355165 0.301210355
    outer loop
      vertex -0.00694760167 0.0155412251 0.060351064
      vertex 0.00622238908 0.0155793544 0.0603791043
      vertex -0.0135236855 0.0297353525 0.0153419693
    endloop
  endfacet
  facet normal -0.999499667 -0.0228256895 0.0218952938
    outer loop
      vertex -0.0135109718 0.0135788888 0.0149057278
      vertex -0.0136693508 0.0190953596 0.0134267567
      vertex -0.0135056277 0.0119989594 0.013502613
    endloop
  endfacet
  facet normal -0.999488542 -0.0226406098 0.0225844384
    outer loop
      vertex -0.0135109718 0.0135788888 0.0149057278
      vertex -0.013640997 0.0199304291 0.0155187175
      vertex -0.0136693508 0.0190953596 0.0134267567
    endloop
  endfacet
  facet normal 0 -0.999973403 0.00729338384
    outer loop
      vertex 0.00293148076 -0.00309841691 0.0602680716
      vertex -0.00295916253 -0.00315989119 0.051839523
      vertex 0.00292380934 -0.00315989119 0.051839523
    endloop
  endfacet
  facet normal -0.998749707 -0.0246434674 0.0434939229
    outer loop
      vertex -0.0113403627 -0.00306439865 0.0553193483
      vertex -0.013640997 0.0199304291 0.0155187175
      vertex -0.0135109718 0.0135788888 0.0149057278
    endloop
  endfacet
  facet normal -0.998569909 -0.0373486846 0.0382519562
    outer loop
      vertex -0.0113403627 -0.00306439865 0.0553193483
      vertex -0.0135109718 0.0135788888 0.0149057278
      vertex -0.0135056277 0.0119989594 0.013502613
    endloop
  endfacet
  facet normal -0.997860902 -0.0575978236 0.0309210343
    outer loop
      vertex -0.0113403627 -0.00306439865 0.0553193483
      vertex -0.0135056277 0.0119989594 0.013502613
      vertex -0.0134726998 0.000281133895 -0.00726201331
    endloop
  endfacet
  facet normal 0.999145093 -0.0374109814 0.0175926554
    outer loop
      vertex 0.0134372617 0.000281133895 -0.00726201331
      vertex 0.01347361 0.000244792343 -0.00940363195
      vertex 0.0135135844 0.012051024 0.0134321782
    endloop
  endfacet
  facet normal 0.997629896 -0.0613277289 0.0312009731
    outer loop
      vertex 0.0134372617 0.000281133895 -0.00726201331
      vertex 0.0135135844 0.012051024 0.0134321782
      vertex 0.011259214 -0.00306009713 0.0558121547
    endloop
  endfacet
  facet normal 0.999150918 0.000522736803 -0.0411967232
    outer loop
      vertex 0.0135778954 0.0239923174 -0.00733337811
      vertex 0.0135863461 0.0074426254 -0.00733841561
      vertex 0.0134877803 0.0311128194 -0.00942860364
    endloop
  endfacet
  facet normal 0.999860094 0.00051564826 -0.0167190484
    outer loop
      vertex 0.0135778954 0.0239923174 -0.00733337811
      vertex 0.0136293497 0.0107987733 -0.00466313264
      vertex 0.0135863461 0.0074426254 -0.00733841561
    endloop
  endfacet
  facet normal 0.999931773 0.00155663051 -0.0115769904
    outer loop
      vertex 0.0135778954 0.0239923174 -0.00733337811
      vertex 0.0136300519 0.0193509788 -0.00345256707
      vertex 0.0136293497 0.0107987733 -0.00466313264
    endloop
  endfacet
  facet normal 0.999937385 0.0111903275 -5.54406571e-05
    outer loop
      vertex 0.0135778954 0.0239923174 -0.00733337811
      vertex 0.0136338475 0.0190954396 0.0134268365
      vertex 0.0136300519 0.0193509788 -0.00345256707
    endloop
  endfacet
  facet normal 0.999924719 0.012268522 0.000198915846
    outer loop
      vertex 0.0135778954 0.0239923174 -0.00733337811
      vertex 0.0135024311 0.0297784348 0.0151456294
      vertex 0.0136338475 0.0190954396 0.0134268365
    endloop
  endfacet
  facet normal 0.999919577 0.0126819191 9.24898005e-05
    outer loop
      vertex 0.0135778954 0.0239923174 -0.00733337811
      vertex 0.0134877803 0.0311128194 -0.00942860364
      vertex 0.0135024311 0.0297784348 0.0151456294
    endloop
  endfacet
  facet normal -0.00108431502 0.997571703 0.0696385123
    outer loop
      vertex -0.00630764389 0.0311361427 -0.00461199187
      vertex -0.0135236855 0.0297353525 0.0153419693
      vertex 0.0135024311 0.0297784348 0.0151456294
    endloop
  endfacet
  facet normal -0.998590536 0.0128758558 0.0514893507
    outer loop
      vertex -0.0116472062 0.0152919501 0.0553464684
      vertex -0.0135236855 0.0297353525 0.0153419693
      vertex -0.013640997 0.0199304291 0.0155187175
    endloop
  endfacet
  facet normal -0.22179762 0.920183428 0.322596147
    outer loop
      vertex -0.0101604047 0.0154590137 0.0583766374
      vertex -0.00694760167 0.0155412251 0.060351064
      vertex -0.0135236855 0.0297353525 0.0153419693
    endloop
  endfacet
  facet normal -0.656043285 0.699521699 0.283331257
    outer loop
      vertex -0.0101604047 0.0154590137 0.0583766374
      vertex -0.0135236855 0.0297353525 0.0153419693
      vertex -0.0116472062 0.0152919501 0.0553464684
    endloop
  endfacet
  facet normal -0.00216870357 0.0137472303 0.999903151
    outer loop
      vertex 0.00613087807 0.00910578573 0.0604679081
      vertex 0.00622238908 0.0155793544 0.0603791043
      vertex -0.00694760167 0.0155412251 0.060351064
    endloop
  endfacet
  facet normal -0.00678154162 -0.999974925 -0.00203983698
    outer loop
      vertex -0.00293537371 -0.00314810045 0.0459803436
      vertex -0.00295916253 -0.00315989119 0.051839523
      vertex -0.0114045986 -0.00309058052 0.045939121
    endloop
  endfacet
  facet normal -0.00676320109 -0.99996038 -0.00578762273
    outer loop
      vertex -0.00293537371 -0.00314810045 0.0459803436
      vertex -0.0114045986 -0.00309058052 0.045939121
      vertex -0.00297403955 -0.00309888621 0.0375225051
    endloop
  endfacet
  facet normal -0.0159416256 -0.998613572 0.0501676986
    outer loop
      vertex -0.00296691053 -0.00309841653 0.0602680716
      vertex -0.00741770887 -0.00303665327 0.0600831851
      vertex -0.0101817914 -0.00310264803 0.0578911923
    endloop
  endfacet
  facet normal -2.38318853e-09 -0.0362489452 0.999342791
    outer loop
      vertex -0.00296691053 -0.00309841653 0.0602680716
      vertex 0.00293148076 -0.00309841691 0.0602680716
      vertex -1.77054475e-05 -0.00102442896 0.0603433009
    endloop
  endfacet
  facet normal -0.00181572289 -0.999971766 0.00729174879
    outer loop
      vertex -0.00296691053 -0.00309841653 0.0602680716
      vertex -0.0101817914 -0.00310264803 0.0578911923
      vertex -0.00295916253 -0.00315989119 0.051839523
    endloop
  endfacet
  facet normal -6.57432962e-08 -0.999973403 0.00729342978
    outer loop
      vertex -0.00296691053 -0.00309841653 0.0602680716
      vertex -0.00295916253 -0.00315989119 0.051839523
      vertex 0.00293148076 -0.00309841691 0.0602680716
    endloop
  endfacet
  facet normal 0.00514221122 -0.999960216 0.00728860737
    outer loop
      vertex 0.00917941188 -0.00307554433 0.0589980755
      vertex 0.00293148076 -0.00309841691 0.0602680716
      vertex 0.00292380934 -0.00315989119 0.051839523
    endloop
  endfacet
  facet normal 0.837032157 -0.0310354662 0.546272797
    outer loop
      vertex 0.00917941188 -0.00307554433 0.0589980755
      vertex 0.011259214 -0.00306009713 0.0558121547
      vertex 0.0106380859 0.0152983851 0.0578068874
    endloop
  endfacet
  facet normal 0.70529812 -0.0100380611 0.708839756
    outer loop
      vertex 0.00917941188 -0.00307554433 0.0589980755
      vertex 0.0106380859 0.0152983851 0.0578068874
      vertex 0.0100409791 0.00934250558 0.0583166681
    endloop
  endfacet
  facet normal -0.0130620904 -0.999914634 0.000326799947
    outer loop
      vertex -0.0114032038 -0.0030886664 0.0518515333
      vertex -0.0114045986 -0.00309058052 0.045939121
      vertex -0.0101817914 -0.00310264803 0.0578911923
    endloop
  endfacet
  facet normal -0.0505173212 -0.998691906 0.0079042775
    outer loop
      vertex -0.0114032038 -0.0030886664 0.0518515333
      vertex -0.0101817914 -0.00310264803 0.0578911923
      vertex -0.0113403627 -0.00306439865 0.0553193483
    endloop
  endfacet
  facet normal -0.849172367 -0.528115663 0.000371296064
    outer loop
      vertex -0.0114032038 -0.0030886664 0.0518515333
      vertex -0.0134943184 0.000230613308 -0.00942860495
      vertex -0.0114045986 -0.00309058052 0.045939121
    endloop
  endfacet
  facet normal -0.9545887 -0.297471736 0.0164614904
    outer loop
      vertex -0.0114032038 -0.0030886664 0.0518515333
      vertex -0.0134726998 0.000281133895 -0.00726201331
      vertex -0.0134943184 0.000230613308 -0.00942860495
    endloop
  endfacet
  facet normal -0.966728614 -0.255074827 0.0193033537
    outer loop
      vertex -0.0114032038 -0.0030886664 0.0518515333
      vertex -0.0113403627 -0.00306439865 0.0553193483
      vertex -0.0134726998 0.000281133895 -0.00726201331
    endloop
  endfacet
  facet normal 0.127663668 0.940234217 0.315692263
    outer loop
      vertex 0.00849242067 0.015526665 0.0596180461
      vertex 0.0135024311 0.0297784348 0.0151456294
      vertex 0.00622238908 0.0155793544 0.0603791043
    endloop
  endfacet
  facet normal 0.364114338 0.874223678 0.321175512
    outer loop
      vertex 0.00849242067 0.015526665 0.0596180461
      vertex 0.0106380859 0.0152983851 0.0578068874
      vertex 0.0135024311 0.0297784348 0.0151456294
    endloop
  endfacet
  facet normal 0.816607918 0.529206706 0.230416515
    outer loop
      vertex 0.0110808412 0.0156872149 0.0560917292
      vertex 0.0116468767 0.0152962918 0.0549835189
      vertex 0.0135024311 0.0297784348 0.0151456294
    endloop
  endfacet
  facet normal 0.871213577 0.379820768 0.311003356
    outer loop
      vertex 0.0110808412 0.0156872149 0.0560917292
      vertex 0.0106380859 0.0152983851 0.0578068874
      vertex 0.0116468767 0.0152962918 0.0549835189
    endloop
  endfacet
  facet normal 0.483147275 0.818699685 0.310321666
    outer loop
      vertex 0.0110808412 0.0156872149 0.0560917292
      vertex 0.0135024311 0.0297784348 0.0151456294
      vertex 0.0106380859 0.0152983851 0.0578068874
    endloop
  endfacet
  facet normal 0.991769032 -0.0152058401 0.127133667
    outer loop
      vertex 0.0114035717 0.00910160269 0.0561406228
      vertex 0.011259214 -0.00306009713 0.0558121547
      vertex 0.0116468767 0.0152962918 0.0549835189
    endloop
  endfacet
  facet normal 0.872349238 -0.0235433031 0.488316003
    outer loop
      vertex 0.0114035717 0.00910160269 0.0561406228
      vertex 0.0106380859 0.0152983851 0.0578068874
      vertex 0.011259214 -0.00306009713 0.0558121547
    endloop
  endfacet
  facet normal 0.941386288 0.02585032 0.336338546
    outer loop
      vertex 0.0114035717 0.00910160269 0.0561406228
      vertex 0.0116468767 0.0152962918 0.0549835189
      vertex 0.0106380859 0.0152983851 0.0578068874
    endloop
  endfacet
  facet normal 0.00445114745 0.997932708 0.0641131616
    outer loop
      vertex 0.0062722907 0.0310761734 -0.00455193958
      vertex -0.00630764389 0.0311361427 -0.00461199187
      vertex 0.0135024311 0.0297784348 0.0151456294
    endloop
  endfacet
  facet normal 0.00111345752 0.999331236 -0.0365491472
    outer loop
      vertex 0.00635279869 0.0311981388 -0.00731315531
      vertex 0.0134877803 0.0311128194 -0.00942860364
      vertex -0.0135258564 0.0311443587 -0.00938921364
    endloop
  endfacet
  facet normal 0.00455105442 0.999009687 0.0442598385
    outer loop
      vertex 0.00635279869 0.0311981388 -0.00731315531
      vertex -0.00630764389 0.0311361427 -0.00461199187
      vertex 0.0062722907 0.0310761734 -0.00455193958
    endloop
  endfacet
  facet normal -0.788224148 0.61438799 0.0350726288
    outer loop
      vertex -0.0134726998 0.0310911233 -0.00726201331
      vertex -0.0135258564 0.0311443587 -0.00938921364
      vertex -0.0135236855 0.0297353525 0.0153419693
    endloop
  endfacet
  facet normal -0.02838066 0.997807816 0.0597837865
    outer loop
      vertex -0.0134726998 0.0310911233 -0.00726201331
      vertex -0.0135236855 0.0297353525 0.0153419693
      vertex -0.00630764389 0.0311361427 -0.00461199187
    endloop
  endfacet
  facet normal -0.0156771216 0.999554266 0.0254066356
    outer loop
      vertex -0.0134726998 0.0310911233 -0.00726201331
      vertex -0.00630764389 0.0311361427 -0.00461199187
      vertex -0.0135258564 0.0311443587 -0.00938921364
    endloop
  endfacet
  facet normal -0.998729 -0.0194191193 0.0465110948
    outer loop
      vertex -0.0115791734 0.00909369911 0.0552675827
      vertex -0.013640997 0.0199304291 0.0155187175
      vertex -0.0113403627 -0.00306439865 0.0553193483
    endloop
  endfacet
  facet normal -0.998748794 -0.0115815447 0.0486488789
    outer loop
      vertex -0.0115791734 0.00909369911 0.0552675827
      vertex -0.0116472062 0.0152919501 0.0553464684
      vertex -0.013640997 0.0199304291 0.0155187175
    endloop
  endfacet
  facet normal -0.523811249 0.0159834507 0.851684393
    outer loop
      vertex -0.00922755027 0.00930453741 0.0590658708
      vertex -0.00694760167 0.0155412251 0.060351064
      vertex -0.0101604047 0.0154590137 0.0583766374
    endloop
  endfacet
  facet normal -0.628971378 -0.00827679964 0.777384396
    outer loop
      vertex -0.00922755027 0.00930453741 0.0590658708
      vertex -0.0101604047 0.0154590137 0.0583766374
      vertex -0.0102371927 0.0091108998 0.0582469209
    endloop
  endfacet
  facet normal -0.620753117 -0.0264429847 0.78356004
    outer loop
      vertex -0.00922755027 0.00930453741 0.0590658708
      vertex -0.0101817914 -0.00310264803 0.0578911923
      vertex -0.00741770887 -0.00303665327 0.0600831851
    endloop
  endfacet
  facet normal -0.626788313 -0.0255254382 0.77877138
    outer loop
      vertex -0.00922755027 0.00930453741 0.0590658708
      vertex -0.0102371927 0.0091108998 0.0582469209
      vertex -0.0101817914 -0.00310264803 0.0578911923
    endloop
  endfacet
  facet normal -0.00798761346 -0.00745169466 0.999940333
    outer loop
      vertex -0.00695992136 0.00911074605 0.0603633746
      vertex -1.77054475e-05 -0.00102442896 0.0603433009
      vertex 0.00613087807 0.00910578573 0.0604679081
    endloop
  endfacet
  facet normal -0.00798426577 0.00192964756 0.999966263
    outer loop
      vertex -0.00695992136 0.00911074605 0.0603633746
      vertex 0.00613087807 0.00910578573 0.0604679081
      vertex -0.00694760167 0.0155412251 0.060351064
    endloop
  endfacet
  facet normal -0.0162721147 -0.0131259535 0.99978144
    outer loop
      vertex -0.00695992136 0.00911074605 0.0603633746
      vertex -0.00296691053 -0.00309841653 0.0602680716
      vertex -1.77054475e-05 -0.00102442896 0.0603433009
    endloop
  endfacet
  facet normal -0.0417920808 -0.0214653534 0.998895721
    outer loop
      vertex -0.00695992136 0.00911074605 0.0603633746
      vertex -0.00741770887 -0.00303665327 0.0600831851
      vertex -0.00296691053 -0.00309841653 0.0602680716
    endloop
  endfacet
  facet normal 0.0196875085 -0.999774138 0.00800472314
    outer loop
      vertex 0.0113659135 -0.00308970809 0.0518513784
      vertex 0.011259214 -0.00306009713 0.0558121547
      vertex 0.00917941188 -0.00307554433 0.0589980755
    endloop
  endfacet
  facet normal 0.00830673697 -0.999955268 0.00452318338
    outer loop
      vertex 0.0113659135 -0.00308970809 0.0518513784
      vertex 0.00917941188 -0.00307554433 0.0589980755
      vertex 0.00292380934 -0.00315989119 0.051839523
    endloop
  endfacet
  facet normal 0.971252607 -0.237166095 0.0205089391
    outer loop
      vertex 0.0113659135 -0.00308970809 0.0518513784
      vertex 0.01347361 0.000244792343 -0.00940363195
      vertex 0.0134372617 0.000281133895 -0.00726201331
    endloop
  endfacet
  facet normal 0.991824889 -0.124574716 0.0276501315
    outer loop
      vertex 0.0113659135 -0.00308970809 0.0518513784
      vertex 0.0134372617 0.000281133895 -0.00726201331
      vertex 0.011259214 -0.00306009713 0.0558121547
    endloop
  endfacet
  facet normal -0.000389083195 -0.999983006 -0.00581689428
    outer loop
      vertex 0.00290451472 -0.00315034607 0.0459757671
      vertex -0.00293537371 -0.00314810045 0.0459803436
      vertex -0.00297403955 -0.00309888621 0.0375225051
    endloop
  endfacet
  facet normal 0 -0.999998675 -0.00162781494
    outer loop
      vertex 0.00290451472 -0.00315034607 0.0459757671
      vertex 0.00292380934 -0.00315989119 0.051839523
      vertex -0.00295916253 -0.00315989119 0.051839523
    endloop
  endfacet
  facet normal -0.000386108659 -0.999997898 -0.00201391716
    outer loop
      vertex 0.00290451472 -0.00315034607 0.0459757671
      vertex -0.00295916253 -0.00315989119 0.051839523
      vertex -0.00293537371 -0.00314810045 0.0459803436
    endloop
  endfacet
  facet normal 0.00776808513 -0.999765569 0.0202104825
    outer loop
      vertex 0.00627786909 -0.00307317716 0.0602304085
      vertex 0.00293148076 -0.00309841691 0.0602680716
      vertex 0.00917941188 -0.00307554433 0.0589980755
    endloop
  endfacet
  facet normal 0.0114030611 -0.0200481142 0.999733986
    outer loop
      vertex 0.00627786909 -0.00307317716 0.0602304085
      vertex -1.77054475e-05 -0.00102442896 0.0603433009
      vertex 0.00293148076 -0.00309841691 0.0602680716
    endloop
  endfacet
  facet normal 0.0116286592 -0.0193554854 0.999745037
    outer loop
      vertex 0.00627786909 -0.00307317716 0.0602304085
      vertex 0.00613087807 0.00910578573 0.0604679081
      vertex -1.77054475e-05 -0.00102442896 0.0603433009
    endloop
  endfacet
  facet normal 0.703431884 -0.00980677856 0.71069502
    outer loop
      vertex 0.00891107772 0.00910679305 0.0594317696
      vertex 0.00917941188 -0.00307554433 0.0589980755
      vertex 0.0100409791 0.00934250558 0.0583166681
    endloop
  endfacet
  facet normal 0.70342035 -0.00968989349 0.710708039
    outer loop
      vertex 0.00891107772 0.00910679305 0.0594317696
      vertex 0.0100409791 0.00934250558 0.0583166681
      vertex 0.0106380859 0.0152983851 0.0578068874
    endloop
  endfacet
  facet normal 0.646140301 0.0199988925 0.762956588
    outer loop
      vertex 0.00891107772 0.00910679305 0.0594317696
      vertex 0.0106380859 0.0152983851 0.0578068874
      vertex 0.00849242067 0.015526665 0.0596180461
    endloop
  endfacet
  facet normal 0.879643816 0.474961455 0.0252660463
    outer loop
      vertex 0.0134372617 0.0310911233 -0.00726193658
      vertex 0.0135024311 0.0297784348 0.0151456294
      vertex 0.0134877803 0.0311128194 -0.00942860364
    endloop
  endfacet
  facet normal 0.0200107008 0.998091961 0.0584124029
    outer loop
      vertex 0.0134372617 0.0310911233 -0.00726193658
      vertex 0.0062722907 0.0310761734 -0.00455193958
      vertex 0.0135024311 0.0297784348 0.0151456294
    endloop
  endfacet
  facet normal 0.0150282249 0.999833374 0.0103623113
    outer loop
      vertex 0.0134372617 0.0310911233 -0.00726193658
      vertex 0.0134877803 0.0311128194 -0.00942860364
      vertex 0.00635279869 0.0311981388 -0.00731315531
    endloop
  endfacet
  facet normal 0.0147669062 0.998897888 0.044552761
    outer loop
      vertex 0.0134372617 0.0310911233 -0.00726193658
      vertex 0.00635279869 0.0311981388 -0.00731315531
      vertex 0.0062722907 0.0310761734 -0.00455193958
    endloop
  endfacet
  facet normal -0.00452642639 0.999953126 0.008559017
    outer loop
      vertex -0.0064051988 0.0311586185 -0.00728944321
      vertex -0.0135258564 0.0311443587 -0.00938921364
      vertex -0.00630764389 0.0311361427 -0.00461199187
    endloop
  endfacet
  facet normal -0.00309079049 0.999988414 0.00369030624
    outer loop
      vertex -0.0064051988 0.0311586185 -0.00728944321
      vertex 0.00635279869 0.0311981388 -0.00731315531
      vertex -0.0135258564 0.0311443587 -0.00938921364
    endloop
  endfacet
  facet normal -0.00308174831 0.999959071 0.00850642899
    outer loop
      vertex -0.0064051988 0.0311586185 -0.00728944321
      vertex -0.00630764389 0.0311361427 -0.00461199187
      vertex 0.00635279869 0.0311981388 -0.00731315531
    endloop
  endfacet
  facet normal -0.897941912 0.0372083208 0.438538327
    outer loop
      vertex -0.0109312352 0.00957550731 0.0572974942
      vertex -0.0101604047 0.0154590137 0.0583766374
      vertex -0.0116472062 0.0152919501 0.0553464684
    endloop
  endfacet
  facet normal -0.807825078 -0.00227246855 0.589417915
    outer loop
      vertex -0.0109312352 0.00957550731 0.0572974942
      vertex -0.0102371927 0.0091108998 0.0582469209
      vertex -0.0101604047 0.0154590137 0.0583766374
    endloop
  endfacet
  facet normal -0.951556362 -0.0143533838 0.307139172
    outer loop
      vertex -0.0109312352 0.00957550731 0.0572974942
      vertex -0.0116472062 0.0152919501 0.0553464684
      vertex -0.0115791734 0.00909369911 0.0552675827
    endloop
  endfacet
  facet normal -0.81191836 -0.0206750008 0.583404766
    outer loop
      vertex -0.0109312352 0.00957550731 0.0572974942
      vertex -0.0101817914 -0.00310264803 0.0578911923
      vertex -0.0102371927 0.0091108998 0.0582469209
    endloop
  endfacet
  facet normal -0.9114015 -0.0346734462 0.410054946
    outer loop
      vertex -0.0109312352 0.00957550731 0.0572974942
      vertex -0.0113403627 -0.00306439865 0.0553193483
      vertex -0.0101817914 -0.00310264803 0.0578911923
    endloop
  endfacet
  facet normal -0.951300585 -0.0173751409 0.307774756
    outer loop
      vertex -0.0109312352 0.00957550731 0.0572974942
      vertex -0.0115791734 0.00909369911 0.0552675827
      vertex -0.0113403627 -0.00306439865 0.0553193483
    endloop
  endfacet
  facet normal -0.496997473 0.00287105924 0.867747238
    outer loop
      vertex -0.00712620579 0.00928725803 0.0602694615
      vertex -0.00694760167 0.0155412251 0.060351064
      vertex -0.00922755027 0.00930453741 0.0590658708
    endloop
  endfacet
  facet normal -0.489662846 0.00260730347 0.871907965
    outer loop
      vertex -0.00712620579 0.00928725803 0.0602694615
      vertex -0.00695992136 0.00911074605 0.0603633746
      vertex -0.00694760167 0.0155412251 0.060351064
    endloop
  endfacet
  facet normal -0.497025256 -0.00135948958 0.867735009
    outer loop
      vertex -0.00712620579 0.00928725803 0.0602694615
      vertex -0.00922755027 0.00930453741 0.0590658708
      vertex -0.00741770887 -0.00303665327 0.0600831851
    endloop
  endfacet
  facet normal -0.49296289 -0.00149055558 0.87004906
    outer loop
      vertex -0.00712620579 0.00928725803 0.0602694615
      vertex -0.00741770887 -0.00303665327 0.0600831851
      vertex -0.00695992136 0.00911074605 0.0603633746
    endloop
  endfacet
  facet normal 0.000539015045 -0.999978974 -0.00646228637
    outer loop
      vertex 0.00293310706 -0.00309569563 0.0375215027
      vertex 0.00290451472 -0.00315034607 0.0459757671
      vertex -0.00297403955 -0.00309888621 0.0375225051
    endloop
  endfacet
  facet normal 0.00698239997 -0.999954883 -0.0064403391
    outer loop
      vertex 0.00293310706 -0.00309569563 0.0375215027
      vertex 0.0113731972 -0.00303690365 0.0375436686
      vertex 0.00290451472 -0.00315034607 0.0459757671
    endloop
  endfacet
  facet normal 0.00713111657 -0.997562571 -0.0694122721
    outer loop
      vertex 0.00293310706 -0.00309569563 0.0375215027
      vertex 0.01347361 0.000244792343 -0.00940363195
      vertex 0.0113731972 -0.00303690365 0.0375436686
    endloop
  endfacet
  facet normal 0.000590084657 -0.997484958 -0.0708760186
    outer loop
      vertex 0.00293310706 -0.00309569563 0.0375215027
      vertex -0.0134943184 0.000230613308 -0.00942860495
      vertex 0.01347361 0.000244792343 -0.00940363195
    endloop
  endfacet
  facet normal 0.000526741706 -0.99748656 -0.070853969
    outer loop
      vertex 0.00293310706 -0.00309569563 0.0375215027
      vertex -0.00297403955 -0.00309888621 0.0375225051
      vertex -0.0134943184 0.000230613308 -0.00942860495
    endloop
  endfacet
  facet normal 0.00729797156 -0.999954621 -0.00612339482
    outer loop
      vertex 0.0113683919 -0.00308838196 0.0459443852
      vertex 0.00290451472 -0.00315034607 0.0459757671
      vertex 0.0113731972 -0.00303690365 0.0375436686
    endloop
  endfacet
  facet normal 0.822087947 -0.569352522 -0.00301865778
    outer loop
      vertex 0.0113683919 -0.00308838196 0.0459443852
      vertex 0.0113731972 -0.00303690365 0.0375436686
      vertex 0.01347361 0.000244792343 -0.00940363195
    endloop
  endfacet
  facet normal 0.84724883 -0.531196163 0.000236218395
    outer loop
      vertex 0.0113683919 -0.00308838196 0.0459443852
      vertex 0.01347361 0.000244792343 -0.00940363195
      vertex 0.0113659135 -0.00308970809 0.0518513784
    endloop
  endfacet
  facet normal 0.00831348367 -0.999965418 -0.000221005962
    outer loop
      vertex 0.0113683919 -0.00308838196 0.0459443852
      vertex 0.0113659135 -0.00308970809 0.0518513784
      vertex 0.00292380934 -0.00315989119 0.051839523
    endloop
  endfacet
  facet normal 0.00731467731 -0.999971883 -0.0016518402
    outer loop
      vertex 0.0113683919 -0.00308838196 0.0459443852
      vertex 0.00292380934 -0.00315989119 0.051839523
      vertex 0.00290451472 -0.00315034607 0.0459757671
    endloop
  endfacet
  facet normal 0.0611834237 -0.0187224097 0.997950931
    outer loop
      vertex 0.00717368638 0.00958116378 0.060412893
      vertex 0.00613087807 0.00910578573 0.0604679081
      vertex 0.00627786909 -0.00307317716 0.0602304085
    endloop
  endfacet
  facet normal 0.4931425 0.00691785729 0.869921041
    outer loop
      vertex 0.00717368638 0.00958116378 0.060412893
      vertex 0.00891107772 0.00910679305 0.0594317696
      vertex 0.00849242067 0.015526665 0.0596180461
    endloop
  endfacet
  facet normal 0.390564045 -0.0409107731 0.919666263
    outer loop
      vertex 0.00717368638 0.00958116378 0.060412893
      vertex 0.00627786909 -0.00307317716 0.0602304085
      vertex 0.00917941188 -0.00307554433 0.0589980755
    endloop
  endfacet
  facet normal 0.487404347 -0.0203410477 0.872939428
    outer loop
      vertex 0.00717368638 0.00958116378 0.060412893
      vertex 0.00917941188 -0.00307554433 0.0589980755
      vertex 0.00891107772 0.00910679305 0.0594317696
    endloop
  endfacet
  facet normal 0.0467496352 0.0130408779 0.998821509
    outer loop
      vertex 0.00717368638 0.00958116378 0.060412893
      vertex 0.00622238908 0.0155793544 0.0603791043
      vertex 0.00613087807 0.00910578573 0.0604679081
    endloop
  endfacet
  facet normal 0.3185431 0.0558505306 0.946261598
    outer loop
      vertex 0.00717368638 0.00958116378 0.060412893
      vertex 0.00849242067 0.015526665 0.0596180461
      vertex 0.00622238908 0.0155793544 0.0603791043
    endloop
  endfacet
endsolid finger_convex_hull_130
