solid finger_convex_hull_110
  facet normal 0.000926450662 -0.000809407136 -0.999999243
    outer loop
      vertex 0.0114100701 0.00177174613 -0.00303284932
      vertex -0.0114089462 0.00175974849 -0.00305398032
      vertex 0.0114220604 0.0278908459 -0.00305397921
    endloop
  endfacet
  facet normal -0.819236104 -0.573445823 -0.00347767268
    outer loop
      vertex -0.00965521063 -0.00098670234 0.0366902037
      vertex -0.00964072176 -0.00105049244 0.0437956339
      vertex -0.0114089462 0.00175974849 -0.00305398032
    endloop
  endfacet
  facet normal -0.999994281 0.00298121113 -0.00159669533
    outer loop
      vertex -0.0115168008 0.0218127637 -0.00128535857
      vertex -0.011553508 0.0107178994 0.000988636375
      vertex -0.0115570505 0.0177222261 0.0162851718
    endloop
  endfacet
  facet normal -0.999908038 0.0135342359 0.000860317324
    outer loop
      vertex -0.0114337953 0.026725297 0.0179057364
      vertex -0.0115168008 0.0218127637 -0.00128535857
      vertex -0.0115570505 0.0177222261 0.0162851718
    endloop
  endfacet
  facet normal -0.999888576 0.0121202977 0.00871399255
    outer loop
      vertex -0.0115330589 0.0184288234 0.0180552925
      vertex -0.0114337953 0.026725297 0.0179057364
      vertex -0.0115570505 0.0177222261 0.0162851718
    endloop
  endfacet
  facet normal -0.999703358 -0.0219818725 0.0104877789
    outer loop
      vertex -0.0113906535 0.00180249668 -0.00122071047
      vertex -0.0115570505 0.0177222261 0.0162851718
      vertex -0.0114089462 0.00175974849 -0.00305398032
    endloop
  endfacet
  facet normal -0.999672231 -0.0229422712 0.0113614549
    outer loop
      vertex -0.0113906535 0.00180249668 -0.00122071047
      vertex -0.0114185156 0.0117175798 0.0163493579
      vertex -0.0115570505 0.0177222261 0.0162851718
    endloop
  endfacet
  facet normal -0.00807868737 -0.99996735 -0.000183101388
    outer loop
      vertex -0.00860603877 -0.00106070341 0.053908925
      vertex -0.00964072176 -0.00105049244 0.0437956339
      vertex -0.00249458355 -0.00110913993 0.0487882818
    endloop
  endfacet
  facet normal 0.998698991 -0.0189542066 0.0473398749
    outer loop
      vertex 0.0098643727 0.0145076303 0.051448586
      vertex 0.00953635045 -0.0010246988 0.0521497394
      vertex 0.0115216538 0.0184287578 0.0180559522
    endloop
  endfacet
  facet normal 0.999825698 -0.0170634017 0.00757725968
    outer loop
      vertex 0.0114438946 0.0117616345 0.0162897593
      vertex 0.0115418499 0.0107020377 0.000978342399
      vertex 0.0115456557 0.0177222938 0.0162852394
    endloop
  endfacet
  facet normal 0.999805203 -0.0181920977 0.00765523777
    outer loop
      vertex 0.0114438946 0.0117616345 0.0162897593
      vertex 0.0114100701 0.00177174613 -0.00303284932
      vertex 0.0115418499 0.0107020377 0.000978342399
    endloop
  endfacet
  facet normal 0.999647455 -0.0170506711 0.0203528849
    outer loop
      vertex 0.0114438946 0.0117616345 0.0162897593
      vertex 0.0115456557 0.0177222938 0.0162852394
      vertex 0.0115216538 0.0184287578 0.0180559522
    endloop
  endfacet
  facet normal 0.998721896 -0.0235019607 0.0447463213
    outer loop
      vertex 0.0114438946 0.0117616345 0.0162897593
      vertex 0.0115216538 0.0184287578 0.0180559522
      vertex 0.00953635045 -0.0010246988 0.0521497394
    endloop
  endfacet
  facet normal 0.999999973 -5.01619384e-05 -0.000225625759
    outer loop
      vertex 0.011542444 0.0179385193 0.00200266712
      vertex 0.0115456557 0.0177222938 0.0162852394
      vertex 0.0115418499 0.0107020377 0.000978342399
    endloop
  endfacet
  facet normal 0.998606805 -0.000501106276 -0.0527655069
    outer loop
      vertex 0.0115054622 0.00786222026 -0.00128535857
      vertex 0.0114100701 0.00177174613 -0.00303284932
      vertex 0.0114220604 0.0278908459 -0.00305397921
    endloop
  endfacet
  facet normal 0.999835413 -0.0172619133 0.00558333515
    outer loop
      vertex 0.0115054622 0.00786222026 -0.00128535857
      vertex 0.0115418499 0.0107020377 0.000978342399
      vertex 0.0114100701 0.00177174613 -0.00303284932
    endloop
  endfacet
  facet normal -0.0100399634 -0.99760098 -0.068494414
    outer loop
      vertex -0.0025071718 -0.00105752034 0.036673882
      vertex -0.00965521063 -0.00098670234 0.0366902037
      vertex -0.0114089462 0.00175974849 -0.00305398032
    endloop
  endfacet
  facet normal -0.00992689826 -0.999910614 -0.00895661006
    outer loop
      vertex -0.0025071718 -0.00105752034 0.036673882
      vertex -0.00964072176 -0.00105049244 0.0437956339
      vertex -0.00965521063 -0.00098670234 0.0366902037
    endloop
  endfacet
  facet normal -0.999869741 0 -0.0161400704
    outer loop
      vertex -0.0115168008 0.00786222026 -0.00128535857
      vertex -0.011553508 0.0107178994 0.000988636375
      vertex -0.0115168008 0.0218127637 -0.00128535857
    endloop
  endfacet
  facet normal -0.999752283 -0.0203087653 0.00910642661
    outer loop
      vertex -0.0115168008 0.00786222026 -0.00128535857
      vertex -0.0114089462 0.00175974849 -0.00305398032
      vertex -0.0115570505 0.0177222261 0.0162851718
    endloop
  endfacet
  facet normal -0.999761671 -0.0199359301 0.00889718224
    outer loop
      vertex -0.0115168008 0.00786222026 -0.00128535857
      vertex -0.0115570505 0.0177222261 0.0162851718
      vertex -0.011553508 0.0107178994 0.000988636375
    endloop
  endfacet
  facet normal 0.000655616169 0.954066796 0.299593256
    outer loop
      vertex 0.0114344572 0.0267617513 0.0177396026
      vertex -0.0114337953 0.026725297 0.0179057364
      vertex 0.00527442166 0.0147471448 0.0560140814
    endloop
  endfacet
  facet normal 0.998621014 0.0123863362 0.0510161657
    outer loop
      vertex 0.0114344572 0.0267617513 0.0177396026
      vertex 0.0098643727 0.0145076303 0.051448586
      vertex 0.0115216538 0.0184287578 0.0180559522
    endloop
  endfacet
  facet normal 0.999898845 0.0108137077 0.00923919845
    outer loop
      vertex 0.0114344572 0.0267617513 0.0177396026
      vertex 0.0115216538 0.0184287578 0.0180559522
      vertex 0.0115456557 0.0177222938 0.0162852394
    endloop
  endfacet
  facet normal -0.999907976 0.0135389088 0.000859120902
    outer loop
      vertex -0.0114356322 0.027917533 -0.00302064922
      vertex -0.0115168008 0.0218127637 -0.00128535857
      vertex -0.0114337953 0.026725297 0.0179057364
    endloop
  endfacet
  facet normal -0.00145666364 0.00127274415 -0.999998129
    outer loop
      vertex -0.0114356322 0.027917533 -0.00302064922
      vertex 0.0114220604 0.0278908459 -0.00305397921
      vertex -0.0114089462 0.00175974849 -0.00305398032
    endloop
  endfacet
  facet normal -0.998338139 -0.000945076707 -0.0576200179
    outer loop
      vertex -0.0114356322 0.027917533 -0.00302064922
      vertex -0.0114089462 0.00175974849 -0.00305398032
      vertex -0.0115168008 0.00786222026 -0.00128535857
    endloop
  endfacet
  facet normal -0.998907832 0 -0.0467241096
    outer loop
      vertex -0.0114356322 0.027917533 -0.00302064922
      vertex -0.0115168008 0.00786222026 -0.00128535857
      vertex -0.0115168008 0.0218127637 -0.00128535857
    endloop
  endfacet
  facet normal -0.00340199651 0.95355165 0.301210355
    outer loop
      vertex -0.00586941667 0.0147148816 0.0559903549
      vertex 0.00527442166 0.0147471448 0.0560140814
      vertex -0.0114337953 0.026725297 0.0179057364
    endloop
  endfacet
  facet normal -0.999499667 -0.0228256895 0.0218952938
    outer loop
      vertex -0.0114230375 0.0130544431 0.0175366089
      vertex -0.0115570505 0.0177222261 0.0162851718
      vertex -0.0114185156 0.0117175798 0.0163493579
    endloop
  endfacet
  facet normal -0.999488542 -0.0226406098 0.0225844384
    outer loop
      vertex -0.0114230375 0.0130544431 0.0175366089
      vertex -0.0115330589 0.0184288234 0.0180552925
      vertex -0.0115570505 0.0177222261 0.0162851718
    endloop
  endfacet
  facet normal 0 -0.999973403 0.00729338384
    outer loop
      vertex 0.00248980693 -0.00105712324 0.0559201306
      vertex -0.00249458355 -0.00110913993 0.0487882818
      vertex 0.00248331573 -0.00110913993 0.0487882818
    endloop
  endfacet
  facet normal -0.998749707 -0.0246434674 0.0434939229
    outer loop
      vertex -0.00958636828 -0.00102833855 0.0517327494
      vertex -0.0115330589 0.0184288234 0.0180552925
      vertex -0.0114230375 0.0130544431 0.0175366089
    endloop
  endfacet
  facet normal -0.998569909 -0.0373486846 0.0382519562
    outer loop
      vertex -0.00958636828 -0.00102833855 0.0517327494
      vertex -0.0114230375 0.0130544431 0.0175366089
      vertex -0.0114185156 0.0117175798 0.0163493579
    endloop
  endfacet
  facet normal -0.997860902 -0.0575978236 0.0309210343
    outer loop
      vertex -0.00958636828 -0.00102833855 0.0517327494
      vertex -0.0114185156 0.0117175798 0.0163493579
      vertex -0.0113906535 0.00180249668 -0.00122071047
    endloop
  endfacet
  facet normal 0.999145093 -0.0374109814 0.0175926554
    outer loop
      vertex 0.0113793139 0.00180249668 -0.00122071047
      vertex 0.0114100701 0.00177174613 -0.00303284932
      vertex 0.0114438946 0.0117616345 0.0162897593
    endloop
  endfacet
  facet normal 0.997629896 -0.0613277289 0.0312009731
    outer loop
      vertex 0.0113793139 0.00180249668 -0.00122071047
      vertex 0.0114438946 0.0117616345 0.0162897593
      vertex 0.00953635045 -0.0010246988 0.0521497394
    endloop
  endfacet
  facet normal 0.999150918 0.000522736803 -0.0411967232
    outer loop
      vertex 0.0114983116 0.0218658058 -0.00128109607
      vertex 0.0115054622 0.00786222026 -0.00128535857
      vertex 0.0114220604 0.0278908459 -0.00305397921
    endloop
  endfacet
  facet normal 0.999860094 0.00051564826 -0.0167190484
    outer loop
      vertex 0.0114983116 0.0218658058 -0.00128109607
      vertex 0.0115418499 0.0107020377 0.000978342399
      vertex 0.0115054622 0.00786222026 -0.00128535857
    endloop
  endfacet
  facet normal 0.999931773 0.00155663051 -0.0115769904
    outer loop
      vertex 0.0114983116 0.0218658058 -0.00128109607
      vertex 0.011542444 0.0179385193 0.00200266712
      vertex 0.0115418499 0.0107020377 0.000978342399
    endloop
  endfacet
  facet normal 0.999937385 0.0111903275 -5.54406571e-05
    outer loop
      vertex 0.0114983116 0.0218658058 -0.00128109607
      vertex 0.0115456557 0.0177222938 0.0162852394
      vertex 0.011542444 0.0179385193 0.00200266712
    endloop
  endfacet
  facet normal 0.999924719 0.012268522 0.000198915846
    outer loop
      vertex 0.0114983116 0.0218658058 -0.00128109607
      vertex 0.0114344572 0.0267617513 0.0177396026
      vertex 0.0115456557 0.0177222938 0.0162852394
    endloop
  endfacet
  facet normal 0.999919577 0.0126819191 9.24898005e-05
    outer loop
      vertex 0.0114983116 0.0218658058 -0.00128109607
      vertex 0.0114220604 0.0278908459 -0.00305397921
      vertex 0.0114344572 0.0267617513 0.0177396026
    endloop
  endfacet
  facet normal -0.00108431502 0.997571703 0.0696385123
    outer loop
      vertex -0.00532791393 0.027910581 0.00102161536
      vertex -0.0114337953 0.026725297 0.0179057364
      vertex 0.0114344572 0.0267617513 0.0177396026
    endloop
  endfacet
  facet normal -0.998590536 0.0128758558 0.0514893507
    outer loop
      vertex -0.00984600509 0.0145039566 0.0517556971
      vertex -0.0114337953 0.026725297 0.0179057364
      vertex -0.0115330589 0.0184288234 0.0180552925
    endloop
  endfacet
  facet normal -0.22179762 0.920183428 0.322596147
    outer loop
      vertex -0.00858794228 0.014645318 0.0543196863
      vertex -0.00586941667 0.0147148816 0.0559903549
      vertex -0.0114337953 0.026725297 0.0179057364
    endloop
  endfacet
  facet normal -0.656043285 0.699521699 0.283331257
    outer loop
      vertex -0.00858794228 0.014645318 0.0543196863
      vertex -0.0114337953 0.026725297 0.0179057364
      vertex -0.00984600509 0.0145039566 0.0517556971
    endloop
  endfacet
  facet normal -0.00216870357 0.0137472303 0.999903151
    outer loop
      vertex 0.00519698926 0.00926950977 0.056089223
      vertex 0.00527442166 0.0147471448 0.0560140814
      vertex -0.00586941667 0.0147148816 0.0559903549
    endloop
  endfacet
  facet normal -0.00678154162 -0.999974925 -0.00203983698
    outer loop
      vertex -0.00247445455 -0.00109916315 0.0438305146
      vertex -0.00249458355 -0.00110913993 0.0487882818
      vertex -0.00964072176 -0.00105049244 0.0437956339
    endloop
  endfacet
  facet normal -0.00676320109 -0.99996038 -0.00578762273
    outer loop
      vertex -0.00247445455 -0.00109916315 0.0438305146
      vertex -0.00964072176 -0.00105049244 0.0437956339
      vertex -0.0025071718 -0.00105752034 0.036673882
    endloop
  endfacet
  facet normal -0.0159416256 -0.998613572 0.0501676986
    outer loop
      vertex -0.00250113955 -0.00105712291 0.0559201306
      vertex -0.00626719968 -0.00100486169 0.0557636882
      vertex -0.00860603877 -0.00106070341 0.053908925
    endloop
  endfacet
  facet normal -2.38318852e-09 -0.0362489452 0.999342791
    outer loop
      vertex -0.00250113955 -0.00105712291 0.0559201306
      vertex 0.00248980693 -0.00105712324 0.0559201306
      vertex -5.65832649e-06 0.000697789646 0.0559837862
    endloop
  endfacet
  facet normal -0.00181572289 -0.999971766 0.00729174879
    outer loop
      vertex -0.00250113955 -0.00105712291 0.0559201306
      vertex -0.00860603877 -0.00106070341 0.053908925
      vertex -0.00249458355 -0.00110913993 0.0487882818
    endloop
  endfacet
  facet normal -6.5743296e-08 -0.999973403 0.00729342978
    outer loop
      vertex -0.00250113955 -0.00105712291 0.0559201306
      vertex -0.00249458355 -0.00110913993 0.0487882818
      vertex 0.00248980693 -0.00105712324 0.0559201306
    endloop
  endfacet
  facet normal 0.00514221122 -0.999960216 0.00728860737
    outer loop
      vertex 0.00777651787 -0.00103776951 0.0548455185
      vertex 0.00248980693 -0.00105712324 0.0559201306
      vertex 0.00248331573 -0.00110913993 0.0487882818
    endloop
  endfacet
  facet normal 0.837032157 -0.0310354662 0.546272797
    outer loop
      vertex 0.00777651787 -0.00103776951 0.0548455185
      vertex 0.00953635045 -0.0010246988 0.0521497394
      vertex 0.00901078054 0.0145094016 0.0538375901
    endloop
  endfacet
  facet normal 0.70529812 -0.0100380611 0.708839756
    outer loop
      vertex 0.00777651787 -0.00103776951 0.0548455185
      vertex 0.00901078054 0.0145094016 0.0538375901
      vertex 0.00850553632 0.00946981118 0.054268943
    endloop
  endfacet
  facet normal -0.0130620904 -0.999914634 0.000326799947
    outer loop
      vertex -0.00963954159 -0.0010488728 0.0487984444
      vertex -0.00964072176 -0.00105049244 0.0437956339
      vertex -0.00860603877 -0.00106070341 0.053908925
    endloop
  endfacet
  facet normal -0.0505173212 -0.998691906 0.0079042775
    outer loop
      vertex -0.00963954159 -0.0010488728 0.0487984444
      vertex -0.00860603877 -0.00106070341 0.053908925
      vertex -0.00958636828 -0.00102833855 0.0517327494
    endloop
  endfacet
  facet normal -0.849172367 -0.528115663 0.000371296064
    outer loop
      vertex -0.00963954159 -0.0010488728 0.0487984444
      vertex -0.0114089462 0.00175974849 -0.00305398032
      vertex -0.00964072176 -0.00105049244 0.0437956339
    endloop
  endfacet
  facet normal -0.9545887 -0.297471736 0.0164614904
    outer loop
      vertex -0.00963954159 -0.0010488728 0.0487984444
      vertex -0.0113906535 0.00180249668 -0.00122071047
      vertex -0.0114089462 0.00175974849 -0.00305398032
    endloop
  endfacet
  facet normal -0.966728614 -0.255074827 0.0193033537
    outer loop
      vertex -0.00963954159 -0.0010488728 0.0487984444
      vertex -0.00958636828 -0.00102833855 0.0517327494
      vertex -0.0113906535 0.00180249668 -0.00122071047
    endloop
  endfacet
  facet normal 0.127663668 0.940234217 0.315692263
    outer loop
      vertex 0.00719521762 0.0147025615 0.055370109
      vertex 0.0114344572 0.0267617513 0.0177396026
      vertex 0.00527442166 0.0147471448 0.0560140814
    endloop
  endfacet
  facet normal 0.364114338 0.874223678 0.321175512
    outer loop
      vertex 0.00719521762 0.0147025615 0.055370109
      vertex 0.00901078054 0.0145094016 0.0538375901
      vertex 0.0114344572 0.0267617513 0.0177396026
    endloop
  endfacet
  facet normal 0.816607918 0.529206706 0.230416515
    outer loop
      vertex 0.00938541957 0.0148384114 0.0523863024
      vertex 0.0098643727 0.0145076303 0.051448586
      vertex 0.0114344572 0.0267617513 0.0177396026
    endloop
  endfacet
  facet normal 0.871213577 0.379820768 0.311003356
    outer loop
      vertex 0.00938541957 0.0148384114 0.0523863024
      vertex 0.00901078054 0.0145094016 0.0538375901
      vertex 0.0098643727 0.0145076303 0.051448586
    endloop
  endfacet
  facet normal 0.483147275 0.818699685 0.310321666
    outer loop
      vertex 0.00938541957 0.0148384114 0.0523863024
      vertex 0.0114344572 0.0267617513 0.0177396026
      vertex 0.00901078054 0.0145094016 0.0538375901
    endloop
  endfacet
  facet normal 0.991769032 -0.0152058401 0.127133667
    outer loop
      vertex 0.00965849928 0.00926597028 0.0524276739
      vertex 0.00953635045 -0.0010246988 0.0521497394
      vertex 0.0098643727 0.0145076303 0.051448586
    endloop
  endfacet
  facet normal 0.872349238 -0.0235433031 0.488316003
    outer loop
      vertex 0.00965849928 0.00926597028 0.0524276739
      vertex 0.00901078054 0.0145094016 0.0538375901
      vertex 0.00953635045 -0.0010246988 0.0521497394
    endloop
  endfacet
  facet normal 0.941386288 0.02585032 0.336338546
    outer loop
      vertex 0.00965849928 0.00926597028 0.0524276739
      vertex 0.0098643727 0.0145076303 0.051448586
      vertex 0.00901078054 0.0145094016 0.0538375901
    endloop
  endfacet
  facet normal 0.00445114745 0.997932708 0.0641131616
    outer loop
      vertex 0.00531664611 0.0278598378 0.00107242884
      vertex -0.00532791393 0.027910581 0.00102161536
      vertex 0.0114344572 0.0267617513 0.0177396026
    endloop
  endfacet
  facet normal 0.00111345752 0.999331236 -0.0365491472
    outer loop
      vertex 0.00538476825 0.0279630393 -0.00126398447
      vertex 0.0114220604 0.0278908459 -0.00305397921
      vertex -0.0114356322 0.027917533 -0.00302064922
    endloop
  endfacet
  facet normal 0.00455105442 0.999009687 0.0442598385
    outer loop
      vertex 0.00538476825 0.0279630393 -0.00126398447
      vertex -0.00532791393 0.027910581 0.00102161536
      vertex 0.00531664611 0.0278598378 0.00107242884
    endloop
  endfacet
  facet normal -0.788224148 0.61438799 0.0350726288
    outer loop
      vertex -0.0113906535 0.0278724877 -0.00122071047
      vertex -0.0114356322 0.027917533 -0.00302064922
      vertex -0.0114337953 0.026725297 0.0179057364
    endloop
  endfacet
  facet normal -0.02838066 0.997807816 0.0597837865
    outer loop
      vertex -0.0113906535 0.0278724877 -0.00122071047
      vertex -0.0114337953 0.026725297 0.0179057364
      vertex -0.00532791393 0.027910581 0.00102161536
    endloop
  endfacet
  facet normal -0.0156771216 0.999554266 0.0254066356
    outer loop
      vertex -0.0113906535 0.0278724877 -0.00122071047
      vertex -0.00532791393 0.027910581 0.00102161536
      vertex -0.0114356322 0.027917533 -0.00302064922
    endloop
  endfacet
  facet normal -0.998729 -0.0194191193 0.0465110948
    outer loop
      vertex -0.00978843892 0.00925928263 0.0516889477
      vertex -0.0115330589 0.0184288234 0.0180552925
      vertex -0.00958636828 -0.00102833855 0.0517327494
    endloop
  endfacet
  facet normal -0.998748794 -0.0115815447 0.0486488789
    outer loop
      vertex -0.00978843892 0.00925928263 0.0516889477
      vertex -0.00984600509 0.0145039566 0.0517556971
      vertex -0.0115330589 0.0184288234 0.0180552925
    endloop
  endfacet
  facet normal -0.523811249 0.0159834507 0.851684393
    outer loop
      vertex -0.00779860394 0.00943768427 0.0549028838
      vertex -0.00586941667 0.0147148816 0.0559903549
      vertex -0.00858794228 0.014645318 0.0543196863
    endloop
  endfacet
  facet normal -0.628971378 -0.00827679964 0.777384396
    outer loop
      vertex -0.00779860394 0.00943768427 0.0549028838
      vertex -0.00858794228 0.014645318 0.0543196863
      vertex -0.0086529168 0.00927383706 0.0542099262
    endloop
  endfacet
  facet normal -0.620753117 -0.0264429847 0.78356004
    outer loop
      vertex -0.00779860394 0.00943768427 0.0549028838
      vertex -0.00860603877 -0.00106070341 0.053908925
      vertex -0.00626719968 -0.00100486169 0.0557636882
    endloop
  endfacet
  facet normal -0.626788313 -0.0255254382 0.77877138
    outer loop
      vertex -0.00779860394 0.00943768427 0.0549028838
      vertex -0.0086529168 0.00927383706 0.0542099262
      vertex -0.00860603877 -0.00106070341 0.053908925
    endloop
  endfacet
  facet normal -0.00798761346 -0.00745169466 0.999940333
    outer loop
      vertex -0.00587984102 0.00927370696 0.0560007716
      vertex -5.65832649e-06 0.000697789646 0.0559837862
      vertex 0.00519698926 0.00926950977 0.056089223
    endloop
  endfacet
  facet normal -0.00798426577 0.00192964756 0.999966263
    outer loop
      vertex -0.00587984102 0.00927370696 0.0560007716
      vertex 0.00519698926 0.00926950977 0.056089223
      vertex -0.00586941667 0.0147148816 0.0559903549
    endloop
  endfacet
  facet normal -0.0162721147 -0.0131259535 0.99978144
    outer loop
      vertex -0.00587984102 0.00927370696 0.0560007716
      vertex -0.00250113955 -0.00105712291 0.0559201306
      vertex -5.65832649e-06 0.000697789646 0.0559837862
    endloop
  endfacet
  facet normal -0.0417920808 -0.0214653534 0.998895721
    outer loop
      vertex -0.00587984102 0.00927370696 0.0560007716
      vertex -0.00626719968 -0.00100486169 0.0557636882
      vertex -0.00250113955 -0.00105712291 0.0559201306
    endloop
  endfacet
  facet normal 0.0196875085 -0.999774138 0.00800472314
    outer loop
      vertex 0.00962663464 -0.00104975423 0.0487983133
      vertex 0.00953635045 -0.0010246988 0.0521497394
      vertex 0.00777651787 -0.00103776951 0.0548455185
    endloop
  endfacet
  facet normal 0.00830673697 -0.999955268 0.00452318338
    outer loop
      vertex 0.00962663464 -0.00104975423 0.0487983133
      vertex 0.00777651787 -0.00103776951 0.0548455185
      vertex 0.00248331573 -0.00110913993 0.0487882818
    endloop
  endfacet
  facet normal 0.971252607 -0.237166095 0.0205089391
    outer loop
      vertex 0.00962663464 -0.00104975423 0.0487983133
      vertex 0.0114100701 0.00177174613 -0.00303284932
      vertex 0.0113793139 0.00180249668 -0.00122071047
    endloop
  endfacet
  facet normal 0.991824889 -0.124574716 0.0276501315
    outer loop
      vertex 0.00962663464 -0.00104975423 0.0487983133
      vertex 0.0113793139 0.00180249668 -0.00122071047
      vertex 0.00953635045 -0.0010246988 0.0521497394
    endloop
  endfacet
  facet normal -0.000389083195 -0.999983006 -0.00581689428
    outer loop
      vertex 0.00246698951 -0.00110106329 0.0438266422
      vertex -0.00247445455 -0.00109916315 0.0438305146
      vertex -0.0025071718 -0.00105752034 0.036673882
    endloop
  endfacet
  facet normal 0 -0.999998675 -0.00162781494
    outer loop
      vertex 0.00246698951 -0.00110106329 0.0438266422
      vertex 0.00248331573 -0.00110913993 0.0487882818
      vertex -0.00249458355 -0.00110913993 0.0487882818
    endloop
  endfacet
  facet normal -0.000386108659 -0.999997898 -0.00201391716
    outer loop
      vertex 0.00246698951 -0.00110106329 0.0438266422
      vertex -0.00249458355 -0.00110913993 0.0487882818
      vertex -0.00247445455 -0.00109916315 0.0438305146
    endloop
  endfacet
  facet normal 0.00776808513 -0.999765569 0.0202104825
    outer loop
      vertex 0.00532136628 -0.00103576652 0.0558882618
      vertex 0.00248980693 -0.00105712324 0.0559201306
      vertex 0.00777651787 -0.00103776951 0.0548455185
    endloop
  endfacet
  facet normal 0.0114030611 -0.0200481142 0.999733986
    outer loop
      vertex 0.00532136628 -0.00103576652 0.0558882618
      vertex -5.65832649e-06 0.000697789646 0.0559837862
      vertex 0.00248980693 -0.00105712324 0.0559201306
    endloop
  endfacet
  facet normal 0.0116286592 -0.0193554854 0.999745037
    outer loop
      vertex 0.00532136628 -0.00103576652 0.0558882618
      vertex 0.00519698926 0.00926950977 0.056089223
      vertex -5.65832649e-06 0.000697789646 0.0559837862
    endloop
  endfacet
  facet normal 0.703431884 -0.00980677856 0.71069502
    outer loop
      vertex 0.00754946589 0.00927036212 0.0552124905
      vertex 0.00777651787 -0.00103776951 0.0548455185
      vertex 0.00850553632 0.00946981118 0.054268943
    endloop
  endfacet
  facet normal 0.70342035 -0.00968989349 0.710708039
    outer loop
      vertex 0.00754946589 0.00927036212 0.0552124905
      vertex 0.00850553632 0.00946981118 0.054268943
      vertex 0.00901078054 0.0145094016 0.0538375901
    endloop
  endfacet
  facet normal 0.646140301 0.0199988925 0.762956588
    outer loop
      vertex 0.00754946589 0.00927036212 0.0552124905
      vertex 0.00901078054 0.0145094016 0.0538375901
      vertex 0.00719521762 0.0147025615 0.055370109
    endloop
  endfacet
  facet normal 0.879643816 0.474961455 0.0252660463
    outer loop
      vertex 0.0113793139 0.0278724877 -0.00122064555
      vertex 0.0114344572 0.0267617513 0.0177396026
      vertex 0.0114220604 0.0278908459 -0.00305397921
    endloop
  endfacet
  facet normal 0.0200107008 0.998091961 0.0584124029
    outer loop
      vertex 0.0113793139 0.0278724877 -0.00122064555
      vertex 0.00531664611 0.0278598378 0.00107242884
      vertex 0.0114344572 0.0267617513 0.0177396026
    endloop
  endfacet
  facet normal 0.0150282249 0.999833374 0.0103623113
    outer loop
      vertex 0.0113793139 0.0278724877 -0.00122064555
      vertex 0.0114220604 0.0278908459 -0.00305397921
      vertex 0.00538476825 0.0279630393 -0.00126398447
    endloop
  endfacet
  facet normal 0.0147669062 0.998897888 0.044552761
    outer loop
      vertex 0.0113793139 0.0278724877 -0.00122064555
      vertex 0.00538476825 0.0279630393 -0.00126398447
      vertex 0.00531664611 0.0278598378 0.00107242884
    endloop
  endfacet
  facet normal -0.00452642639 0.999953126 0.008559017
    outer loop
      vertex -0.00541046039 0.027929599 -0.00124392039
      vertex -0.0114356322 0.027917533 -0.00302064922
      vertex -0.00532791393 0.027910581 0.00102161536
    endloop
  endfacet
  facet normal -0.00309079049 0.999988414 0.00369030624
    outer loop
      vertex -0.00541046039 0.027929599 -0.00124392039
      vertex 0.00538476825 0.0279630393 -0.00126398447
      vertex -0.0114356322 0.027917533 -0.00302064922
    endloop
  endfacet
  facet normal -0.00308174831 0.999959071 0.00850642899
    outer loop
      vertex -0.00541046039 0.027929599 -0.00124392039
      vertex -0.00532791393 0.027910581 0.00102161536
      vertex 0.00538476825 0.0279630393 -0.00126398447
    endloop
  endfacet
  facet normal -0.897941912 0.0372083208 0.438538327
    outer loop
      vertex -0.00924018348 0.00966696649 0.0534065651
      vertex -0.00858794228 0.014645318 0.0543196863
      vertex -0.00984600509 0.0145039566 0.0517556971
    endloop
  endfacet
  facet normal -0.807825078 -0.00227246855 0.589417915
    outer loop
      vertex -0.00924018348 0.00966696649 0.0534065651
      vertex -0.0086529168 0.00927383706 0.0542099262
      vertex -0.00858794228 0.014645318 0.0543196863
    endloop
  endfacet
  facet normal -0.951556362 -0.0143533838 0.307139172
    outer loop
      vertex -0.00924018348 0.00966696649 0.0534065651
      vertex -0.00984600509 0.0145039566 0.0517556971
      vertex -0.00978843892 0.00925928263 0.0516889477
    endloop
  endfacet
  facet normal -0.81191836 -0.0206750008 0.583404766
    outer loop
      vertex -0.00924018348 0.00966696649 0.0534065651
      vertex -0.00860603877 -0.00106070341 0.053908925
      vertex -0.0086529168 0.00927383706 0.0542099262
    endloop
  endfacet
  facet normal -0.9114015 -0.0346734462 0.410054946
    outer loop
      vertex -0.00924018348 0.00966696649 0.0534065651
      vertex -0.00958636828 -0.00102833855 0.0517327494
      vertex -0.00860603877 -0.00106070341 0.053908925
    endloop
  endfacet
  facet normal -0.951300585 -0.0173751409 0.307774756
    outer loop
      vertex -0.00924018348 0.00966696649 0.0534065651
      vertex -0.00978843892 0.00925928263 0.0516889477
      vertex -0.00958636828 -0.00102833855 0.0517327494
    endloop
  endfacet
  facet normal -0.496997473 0.00287105924 0.867747238
    outer loop
      vertex -0.00602054323 0.00942306326 0.0559213067
      vertex -0.00586941667 0.0147148816 0.0559903549
      vertex -0.00779860394 0.00943768427 0.0549028838
    endloop
  endfacet
  facet normal -0.489662846 0.00260730347 0.871907965
    outer loop
      vertex -0.00602054323 0.00942306326 0.0559213067
      vertex -0.00587984102 0.00927370696 0.0560007716
      vertex -0.00586941667 0.0147148816 0.0559903549
    endloop
  endfacet
  facet normal -0.497025256 -0.00135948958 0.867735009
    outer loop
      vertex -0.00602054323 0.00942306326 0.0559213067
      vertex -0.00779860394 0.00943768427 0.0549028838
      vertex -0.00626719968 -0.00100486169 0.0557636882
    endloop
  endfacet
  facet normal -0.49296289 -0.00149055558 0.87004906
    outer loop
      vertex -0.00602054323 0.00942306326 0.0559213067
      vertex -0.00626719968 -0.00100486169 0.0557636882
      vertex -0.00587984102 0.00927370696 0.0560007716
    endloop
  endfacet
  facet normal 0.000539015045 -0.999978974 -0.00646228637
    outer loop
      vertex 0.00249118303 -0.00105482061 0.0366730338
      vertex 0.00246698951 -0.00110106329 0.0438266422
      vertex -0.0025071718 -0.00105752034 0.036673882
    endloop
  endfacet
  facet normal 0.00698239997 -0.999954883 -0.0064403391
    outer loop
      vertex 0.00249118303 -0.00105482061 0.0366730338
      vertex 0.00963279776 -0.00100507355 0.0366917896
      vertex 0.00246698951 -0.00110106329 0.0438266422
    endloop
  endfacet
  facet normal 0.00713111657 -0.997562571 -0.0694122721
    outer loop
      vertex 0.00249118303 -0.00105482061 0.0366730338
      vertex 0.0114100701 0.00177174613 -0.00303284932
      vertex 0.00963279776 -0.00100507355 0.0366917896
    endloop
  endfacet
  facet normal 0.000590084657 -0.997484958 -0.0708760186
    outer loop
      vertex 0.00249118303 -0.00105482061 0.0366730338
      vertex -0.0114089462 0.00175974849 -0.00305398032
      vertex 0.0114100701 0.00177174613 -0.00303284932
    endloop
  endfacet
  facet normal 0.000526741706 -0.99748656 -0.070853969
    outer loop
      vertex 0.00249118303 -0.00105482061 0.0366730338
      vertex -0.0025071718 -0.00105752034 0.036673882
      vertex -0.0114089462 0.00175974849 -0.00305398032
    endloop
  endfacet
  facet normal 0.00729797156 -0.999954621 -0.00612339482
    outer loop
      vertex 0.0096287317 -0.00104863212 0.0438000883
      vertex 0.00246698951 -0.00110106329 0.0438266422
      vertex 0.00963279776 -0.00100507355 0.0366917896
    endloop
  endfacet
  facet normal 0.822087947 -0.569352522 -0.00301865778
    outer loop
      vertex 0.0096287317 -0.00104863212 0.0438000883
      vertex 0.00963279776 -0.00100507355 0.0366917896
      vertex 0.0114100701 0.00177174613 -0.00303284932
    endloop
  endfacet
  facet normal 0.84724883 -0.531196163 0.000236218395
    outer loop
      vertex 0.0096287317 -0.00104863212 0.0438000883
      vertex 0.0114100701 0.00177174613 -0.00303284932
      vertex 0.00962663464 -0.00104975423 0.0487983133
    endloop
  endfacet
  facet normal 0.00831348367 -0.999965418 -0.000221005962
    outer loop
      vertex 0.0096287317 -0.00104863212 0.0438000883
      vertex 0.00962663464 -0.00104975423 0.0487983133
      vertex 0.00248331573 -0.00110913993 0.0487882818
    endloop
  endfacet
  facet normal 0.00731467731 -0.999971883 -0.0016518402
    outer loop
      vertex 0.0096287317 -0.00104863212 0.0438000883
      vertex 0.00248331573 -0.00110913993 0.0487882818
      vertex 0.00246698951 -0.00110106329 0.0438266422
    endloop
  endfacet
  facet normal 0.0611834237 -0.0187224097 0.997950931
    outer loop
      vertex 0.00607936553 0.00967175273 0.0560426718
      vertex 0.00519698926 0.00926950977 0.056089223
      vertex 0.00532136628 -0.00103576652 0.0558882618
    endloop
  endfacet
  facet normal 0.4931425 0.00691785729 0.869921041
    outer loop
      vertex 0.00607936553 0.00967175273 0.0560426718
      vertex 0.00754946589 0.00927036212 0.0552124905
      vertex 0.00719521762 0.0147025615 0.055370109
    endloop
  endfacet
  facet normal 0.390564045 -0.0409107731 0.919666263
    outer loop
      vertex 0.00607936553 0.00967175273 0.0560426718
      vertex 0.00532136628 -0.00103576652 0.0558882618
      vertex 0.00777651787 -0.00103776951 0.0548455185
    endloop
  endfacet
  facet normal 0.487404347 -0.0203410477 0.872939428
    outer loop
      vertex 0.00607936553 0.00967175273 0.0560426718
      vertex 0.00777651787 -0.00103776951 0.0548455185
      vertex 0.00754946589 0.00927036212 0.0552124905
    endloop
  endfacet
  facet normal 0.0467496352 0.0130408779 0.998821509
    outer loop
      vertex 0.00607936553 0.00967175273 0.0560426718
      vertex 0.00527442166 0.0147471448 0.0560140814
      vertex 0.00519698926 0.00926950977 0.056089223
    endloop
  endfacet
  facet normal 0.3185431 0.0558505306 0.946261598
    outer loop
      vertex 0.00607936553 0.00967175273 0.0560426718
      vertex 0.00719521762 0.0147025615 0.055370109
      vertex 0.00527442166 0.0147471448 0.0560140814
    endloop
  endfacet
endsolid finger_convex_hull_110
