solid finger_convex_hull_125
  facet normal 0.000926450662 -0.000809407136 -0.999999243
    outer loop
      vertex 0.012957725 0.00062653079 -0.00781093629
      vertex -0.0129729753 0.000612897103 -0.00783494879
      vertex 0.0129713503 0.030307326 -0.00783494753
    endloop
  endfacet
  facet normal -0.819236104 -0.573445823 -0.00347767268
    outer loop
      vertex -0.010980094 -0.00250806975 0.0373288967
      vertex -0.0109636294 -0.0025805585 0.0454032492
      vertex -0.0129729753 0.000612897103 -0.00783494879
    endloop
  endfacet
  facet normal -0.999994281 0.00298121113 -0.00159669533
    outer loop
      vertex -0.0130955373 0.0234004144 -0.00582515135
      vertex -0.0131372501 0.010792614 -0.00324106618
      vertex -0.0131412757 0.0187520763 0.0141413605
    endloop
  endfacet
  facet normal -0.999908038 0.0135342359 0.000860317324
    outer loop
      vertex -0.013001213 0.0289828386 0.0159829111
      vertex -0.0130955373 0.0234004144 -0.00582515135
      vertex -0.0131412757 0.0187520763 0.0141413605
    endloop
  endfacet
  facet normal -0.999888576 0.0121202977 0.00871399255
    outer loop
      vertex -0.0131140125 0.0195550276 0.0161528612
      vertex -0.013001213 0.0289828386 0.0159829111
      vertex -0.0131412757 0.0187520763 0.0141413605
    endloop
  endfacet
  facet normal -0.999703358 -0.0219818725 0.0104877789
    outer loop
      vertex -0.0129521882 0.00066147459 -0.0057516876
      vertex -0.0131412757 0.0187520763 0.0141413605
      vertex -0.0129729753 0.000612897103 -0.00783494879
    endloop
  endfacet
  facet normal -0.999672231 -0.0229422712 0.0113614549
    outer loop
      vertex -0.0129521882 0.00066147459 -0.0057516876
      vertex -0.0129838497 0.0119286145 0.0142142992
      vertex -0.0131412757 0.0187520763 0.0141413605
    endloop
  endfacet
  facet normal -0.00807868737 -0.99996735 -0.000183101388
    outer loop
      vertex -0.00978785326 -0.00259216187 0.0568956255
      vertex -0.0109636294 -0.0025805585 0.0454032492
      vertex -0.00284301778 -0.00264720337 0.0510767127
    endloop
  endfacet
  facet normal 0.998698991 -0.0189542066 0.0473398749
    outer loop
      vertex 0.0112012507 0.0150991264 0.0540997857
      vertex 0.0108284981 -0.00255124755 0.0548965508
      vertex 0.0130845247 0.0195549531 0.0161536108
    endloop
  endfacet
  facet normal 0.999825698 -0.0170634017 0.00757725968
    outer loop
      vertex 0.0129961619 0.0119786766 0.0141465735
      vertex 0.0131074748 0.0107745894 -0.00325276388
      vertex 0.0131117995 0.0187521531 0.0141414372
    endloop
  endfacet
  facet normal 0.999805203 -0.0181920977 0.00765523777
    outer loop
      vertex 0.0129961619 0.0119786766 0.0141465735
      vertex 0.012957725 0.00062653079 -0.00781093629
      vertex 0.0131074748 0.0107745894 -0.00325276388
    endloop
  endfacet
  facet normal 0.999647455 -0.0170506711 0.0203528849
    outer loop
      vertex 0.0129961619 0.0119786766 0.0141465735
      vertex 0.0131117995 0.0187521531 0.0141414372
      vertex 0.0130845247 0.0195549531 0.0161536108
    endloop
  endfacet
  facet normal 0.998721896 -0.0235019607 0.0447463213
    outer loop
      vertex 0.0129961619 0.0119786766 0.0141465735
      vertex 0.0130845247 0.0195549531 0.0161536108
      vertex 0.0108284981 -0.00255124755 0.0548965508
    endloop
  endfacet
  facet normal 0.999999973 -5.01619384e-05 -0.000225625759
    outer loop
      vertex 0.0131081499 0.0189978639 -0.00208875852
      vertex 0.0131117995 0.0187521531 0.0141414372
      vertex 0.0131074748 0.0107745894 -0.00325276388
    endloop
  endfacet
  facet normal 0.998606805 -0.000501106276 -0.0527655069
    outer loop
      vertex 0.0130661252 0.00754752412 -0.00582515135
      vertex 0.012957725 0.00062653079 -0.00781093629
      vertex 0.0129713503 0.030307326 -0.00783494753
    endloop
  endfacet
  facet normal 0.999835413 -0.0172619133 0.00558333515
    outer loop
      vertex 0.0130661252 0.00754752412 -0.00582515135
      vertex 0.0131074748 0.0107745894 -0.00325276388
      vertex 0.012957725 0.00062653079 -0.00781093629
    endloop
  endfacet
  facet normal -0.0100399634 -0.99760098 -0.068494414
    outer loop
      vertex -0.00285732261 -0.00258854475 0.0373103493
      vertex -0.010980094 -0.00250806975 0.0373288967
      vertex -0.0129729753 0.000612897103 -0.00783494879
    endloop
  endfacet
  facet normal -0.00992689826 -0.999910614 -0.00895661006
    outer loop
      vertex -0.00285732261 -0.00258854475 0.0373103493
      vertex -0.0109636294 -0.0025805585 0.0454032492
      vertex -0.010980094 -0.00250806975 0.0373288967
    endloop
  endfacet
  facet normal -0.999869741 0 -0.0161400704
    outer loop
      vertex -0.0130955373 0.00754752412 -0.00582515135
      vertex -0.0131372501 0.010792614 -0.00324106618
      vertex -0.0130955373 0.0234004144 -0.00582515135
    endloop
  endfacet
  facet normal -0.999752283 -0.0203087653 0.00910642661
    outer loop
      vertex -0.0130955373 0.00754752412 -0.00582515135
      vertex -0.0129729753 0.000612897103 -0.00783494879
      vertex -0.0131412757 0.0187520763 0.0141413605
    endloop
  endfacet
  facet normal -0.999761671 -0.0199359301 0.00889718224
    outer loop
      vertex -0.0130955373 0.00754752412 -0.00582515135
      vertex -0.0131412757 0.0187520763 0.0141413605
      vertex -0.0131372501 0.010792614 -0.00324106618
    endloop
  endfacet
  facet normal 0.000655616169 0.954066796 0.299593256
    outer loop
      vertex 0.0129854377 0.0290242639 0.0157941227
      vertex -0.013001213 0.0289828386 0.0159829111
      vertex 0.00598539723 0.015371302 0.0592878486
    endloop
  endfacet
  facet normal 0.998621014 0.0123863362 0.0510161657
    outer loop
      vertex 0.0129854377 0.0290242639 0.0157941227
      vertex 0.0112012507 0.0150991264 0.0540997857
      vertex 0.0130845247 0.0195549531 0.0161536108
    endloop
  endfacet
  facet normal 0.999898845 0.0108137077 0.00923919845
    outer loop
      vertex 0.0129854377 0.0290242639 0.0157941227
      vertex 0.0130845247 0.0195549531 0.0161536108
      vertex 0.0131117995 0.0187521531 0.0141414372
    endloop
  endfacet
  facet normal -0.999907976 0.0135389088 0.000859120902
    outer loop
      vertex -0.0130033003 0.0303376523 -0.00779707254
      vertex -0.0130955373 0.0234004144 -0.00582515135
      vertex -0.013001213 0.0289828386 0.0159829111
    endloop
  endfacet
  facet normal -0.00145666364 0.00127274415 -0.999998129
    outer loop
      vertex -0.0130033003 0.0303376523 -0.00779707254
      vertex 0.0129713503 0.030307326 -0.00783494753
      vertex -0.0129729753 0.000612897103 -0.00783494879
    endloop
  endfacet
  facet normal -0.998338139 -0.000945076707 -0.0576200179
    outer loop
      vertex -0.0130033003 0.0303376523 -0.00779707254
      vertex -0.0129729753 0.000612897103 -0.00783494879
      vertex -0.0130955373 0.00754752412 -0.00582515135
    endloop
  endfacet
  facet normal -0.998907832 0 -0.0467241096
    outer loop
      vertex -0.0130033003 0.0303376523 -0.00779707254
      vertex -0.0130955373 0.00754752412 -0.00582515135
      vertex -0.0130955373 0.0234004144 -0.00582515135
    endloop
  endfacet
  facet normal -0.00340199651 0.95355165 0.301210355
    outer loop
      vertex -0.00667805542 0.0153346393 0.0592608867
      vertex 0.00598539723 0.015371302 0.0592878486
      vertex -0.013001213 0.0289828386 0.0159829111
    endloop
  endfacet
  facet normal -0.999499667 -0.0228256895 0.0218952938
    outer loop
      vertex -0.0129889882 0.0134477774 0.0155634481
      vertex -0.0131412757 0.0187520763 0.0141413605
      vertex -0.0129838497 0.0119286145 0.0142142992
    endloop
  endfacet
  facet normal -0.999488542 -0.0226406098 0.0225844384
    outer loop
      vertex -0.0129889882 0.0134477774 0.0155634481
      vertex -0.0131140125 0.0195550276 0.0161528612
      vertex -0.0131412757 0.0187520763 0.0141413605
    endloop
  endfacet
  facet normal 0 -0.999973403 0.00729338384
    outer loop
      vertex 0.0028210623 -0.00258809349 0.0591810863
      vertex -0.00284301778 -0.00264720337 0.0510767127
      vertex 0.00281368594 -0.00264720337 0.0510767127
    endloop
  endfacet
  facet normal -0.998749707 -0.0246434674 0.0434939229
    outer loop
      vertex -0.0109018641 -0.00255538362 0.0544226986
      vertex -0.0131140125 0.0195550276 0.0161528612
      vertex -0.0129889882 0.0134477774 0.0155634481
    endloop
  endfacet
  facet normal -0.998569909 -0.0373486846 0.0382519562
    outer loop
      vertex -0.0109018641 -0.00255538362 0.0544226986
      vertex -0.0129889882 0.0134477774 0.0155634481
      vertex -0.0129838497 0.0119286145 0.0142142992
    endloop
  endfacet
  facet normal -0.997860902 -0.0575978236 0.0309210343
    outer loop
      vertex -0.0109018641 -0.00255538362 0.0544226986
      vertex -0.0129838497 0.0119286145 0.0142142992
      vertex -0.0129521882 0.00066147459 -0.0057516876
    endloop
  endfacet
  facet normal 0.999145093 -0.0374109814 0.0175926554
    outer loop
      vertex 0.0129227748 0.00066147459 -0.0057516876
      vertex 0.012957725 0.00062653079 -0.00781093629
      vertex 0.0129961619 0.0119786766 0.0141465735
    endloop
  endfacet
  facet normal 0.997629896 -0.0613277289 0.0312009731
    outer loop
      vertex 0.0129227748 0.00066147459 -0.0057516876
      vertex 0.0129961619 0.0119786766 0.0141465735
      vertex 0.0108284981 -0.00255124755 0.0548965508
    endloop
  endfacet
  facet normal 0.999150918 0.000522736803 -0.0411967232
    outer loop
      vertex 0.0130579994 0.0234606895 -0.0058203076
      vertex 0.0130661252 0.00754752412 -0.00582515135
      vertex 0.0129713503 0.030307326 -0.00783494753
    endloop
  endfacet
  facet normal 0.999860094 0.00051564826 -0.0167190484
    outer loop
      vertex 0.0130579994 0.0234606895 -0.0058203076
      vertex 0.0131074748 0.0107745894 -0.00325276388
      vertex 0.0130661252 0.00754752412 -0.00582515135
    endloop
  endfacet
  facet normal 0.999931773 0.00155663051 -0.0115769904
    outer loop
      vertex 0.0130579994 0.0234606895 -0.0058203076
      vertex 0.0131081499 0.0189978639 -0.00208875852
      vertex 0.0131074748 0.0107745894 -0.00325276388
    endloop
  endfacet
  facet normal 0.999937385 0.0111903275 -5.54406571e-05
    outer loop
      vertex 0.0130579994 0.0234606895 -0.0058203076
      vertex 0.0131117995 0.0187521531 0.0141414372
      vertex 0.0131081499 0.0189978639 -0.00208875852
    endloop
  endfacet
  facet normal 0.999924719 0.012268522 0.000198915846
    outer loop
      vertex 0.0130579994 0.0234606895 -0.0058203076
      vertex 0.0129854377 0.0290242639 0.0157941227
      vertex 0.0131117995 0.0187521531 0.0141414372
    endloop
  endfacet
  facet normal 0.999919577 0.0126819191 9.24898005e-05
    outer loop
      vertex 0.0130579994 0.0234606895 -0.0058203076
      vertex 0.0129713503 0.030307326 -0.00783494753
      vertex 0.0129854377 0.0290242639 0.0157941227
    endloop
  endfacet
  facet normal -0.00108431502 0.997571703 0.0696385123
    outer loop
      vertex -0.0060627114 0.0303297523 -0.00320359006
      vertex -0.013001213 0.0289828386 0.0159829111
      vertex 0.0129854377 0.0290242639 0.0157941227
    endloop
  endfacet
  facet normal -0.998590536 0.0128758558 0.0514893507
    outer loop
      vertex -0.0111969059 0.0150949518 0.0544487756
      vertex -0.013001213 0.0289828386 0.0159829111
      vertex -0.0131140125 0.0195550276 0.0161528612
    endloop
  endfacet
  facet normal -0.22179762 0.920183428 0.322596147
    outer loop
      vertex -0.00976728907 0.0152555898 0.0573623996
      vertex -0.00667805542 0.0153346393 0.0592608867
      vertex -0.013001213 0.0289828386 0.0159829111
    endloop
  endfacet
  facet normal -0.656043285 0.699521699 0.283331257
    outer loop
      vertex -0.00976728907 0.0152555898 0.0573623996
      vertex -0.013001213 0.0289828386 0.0159829111
      vertex -0.0111969059 0.0150949518 0.0544487756
    endloop
  endfacet
  facet normal -0.00216870357 0.0137472303 0.999903151
    outer loop
      vertex 0.00589740587 0.00914671674 0.0593732368
      vertex 0.00598539723 0.015371302 0.0592878486
      vertex -0.00667805542 0.0153346393 0.0592608867
    endloop
  endfacet
  facet normal -0.00678154162 -0.999974925 -0.00203983698
    outer loop
      vertex -0.00282014392 -0.00263586612 0.0454428863
      vertex -0.00284301778 -0.00264720337 0.0510767127
      vertex -0.0109636294 -0.0025805585 0.0454032492
    endloop
  endfacet
  facet normal -0.00676320109 -0.99996038 -0.00578762273
    outer loop
      vertex -0.00282014392 -0.00263586612 0.0454428863
      vertex -0.0109636294 -0.0025805585 0.0454032492
      vertex -0.00285732261 -0.00258854475 0.0373103493
    endloop
  endfacet
  facet normal -0.0159416256 -0.998613572 0.0501676986
    outer loop
      vertex -0.00285046778 -0.00258809312 0.0591810863
      vertex -0.00713008157 -0.00252870537 0.0590033108
      vertex -0.00978785326 -0.00259216187 0.0568956255
    endloop
  endfacet
  facet normal -2.38318852e-09 -0.0362489452 0.999342791
    outer loop
      vertex -0.00285046778 -0.00258809312 0.0591810863
      vertex 0.0028210623 -0.00258809349 0.0591810863
      vertex -1.46936672e-05 -0.00059387431 0.0592534222
    endloop
  endfacet
  facet normal -0.00181572289 -0.999971766 0.00729174879
    outer loop
      vertex -0.00285046778 -0.00258809312 0.0591810863
      vertex -0.00978785326 -0.00259216187 0.0568956255
      vertex -0.00284301778 -0.00264720337 0.0510767127
    endloop
  endfacet
  facet normal -6.57432959e-08 -0.999973403 0.00729342978
    outer loop
      vertex -0.00285046778 -0.00258809312 0.0591810863
      vertex -0.00284301778 -0.00264720337 0.0510767127
      vertex 0.0028210623 -0.00258809349 0.0591810863
    endloop
  endfacet
  facet normal 0.00514221122 -0.999960216 0.00728860737
    outer loop
      vertex 0.00882868838 -0.00256610062 0.0579599362
      vertex 0.0028210623 -0.00258809349 0.0591810863
      vertex 0.00281368594 -0.00264720337 0.0510767127
    endloop
  endfacet
  facet normal 0.837032157 -0.0310354662 0.546272797
    outer loop
      vertex 0.00882868838 -0.00256610062 0.0579599362
      vertex 0.0108284981 -0.00255124755 0.0548965508
      vertex 0.0102312596 0.0151011393 0.0568145631
    endloop
  endfacet
  facet normal 0.70529812 -0.0100380611 0.708839756
    outer loop
      vertex 0.00882868838 -0.00256610062 0.0579599362
      vertex 0.0102312596 0.0151011393 0.0568145631
      vertex 0.00965711843 0.00937433198 0.0573047368
    endloop
  endfacet
  facet normal -0.0130620904 -0.999914634 0.000326799947
    outer loop
      vertex -0.0109622883 -0.002578718 0.0510882611
      vertex -0.0109636294 -0.0025805585 0.0454032492
      vertex -0.00978785326 -0.00259216187 0.0568956255
    endloop
  endfacet
  facet normal -0.0505173212 -0.998691906 0.0079042775
    outer loop
      vertex -0.0109622883 -0.002578718 0.0510882611
      vertex -0.00978785326 -0.00259216187 0.0568956255
      vertex -0.0109018641 -0.00255538362 0.0544226986
    endloop
  endfacet
  facet normal -0.849172367 -0.528115663 0.000371296064
    outer loop
      vertex -0.0109622883 -0.002578718 0.0510882611
      vertex -0.0129729753 0.000612897103 -0.00783494879
      vertex -0.0109636294 -0.0025805585 0.0454032492
    endloop
  endfacet
  facet normal -0.9545887 -0.297471736 0.0164614904
    outer loop
      vertex -0.0109622883 -0.002578718 0.0510882611
      vertex -0.0129521882 0.00066147459 -0.0057516876
      vertex -0.0129729753 0.000612897103 -0.00783494879
    endloop
  endfacet
  facet normal -0.966728614 -0.255074827 0.0193033537
    outer loop
      vertex -0.0109622883 -0.002578718 0.0510882611
      vertex -0.0109018641 -0.00255538362 0.0544226986
      vertex -0.0129521882 0.00066147459 -0.0057516876
    endloop
  endfacet
  facet normal 0.127663668 0.940234217 0.315692263
    outer loop
      vertex 0.0081681199 0.0153206391 0.0585560618
      vertex 0.0129854377 0.0290242639 0.0157941227
      vertex 0.00598539723 0.015371302 0.0592878486
    endloop
  endfacet
  facet normal 0.364114338 0.874223678 0.321175512
    outer loop
      vertex 0.0081681199 0.0153206391 0.0585560618
      vertex 0.0102312596 0.0151011393 0.0568145631
      vertex 0.0129854377 0.0290242639 0.0157941227
    endloop
  endfacet
  facet normal 0.816607918 0.529206706 0.230416515
    outer loop
      vertex 0.0106569858 0.015475014 0.0551653725
      vertex 0.0112012507 0.0150991264 0.0540997857
      vertex 0.0129854377 0.0290242639 0.0157941227
    endloop
  endfacet
  facet normal 0.871213577 0.379820768 0.311003356
    outer loop
      vertex 0.0106569858 0.015475014 0.0551653725
      vertex 0.0102312596 0.0151011393 0.0568145631
      vertex 0.0112012507 0.0150991264 0.0540997857
    endloop
  endfacet
  facet normal 0.483147275 0.818699685 0.310321666
    outer loop
      vertex 0.0106569858 0.015475014 0.0551653725
      vertex 0.0129854377 0.0290242639 0.0157941227
      vertex 0.0102312596 0.0151011393 0.0568145631
    endloop
  endfacet
  facet normal 0.991769032 -0.0152058401 0.127133667
    outer loop
      vertex 0.0109673036 0.00914269459 0.0552123856
      vertex 0.0108284981 -0.00255124755 0.0548965508
      vertex 0.0112012507 0.0150991264 0.0540997857
    endloop
  endfacet
  facet normal 0.872349238 -0.0235433031 0.488316003
    outer loop
      vertex 0.0109673036 0.00914269459 0.0552123856
      vertex 0.0102312596 0.0151011393 0.0568145631
      vertex 0.0108284981 -0.00255124755 0.0548965508
    endloop
  endfacet
  facet normal 0.941386288 0.02585032 0.336338546
    outer loop
      vertex 0.0109673036 0.00914269459 0.0552123856
      vertex 0.0112012507 0.0150991264 0.0540997857
      vertex 0.0102312596 0.0151011393 0.0568145631
    endloop
  endfacet
  facet normal 0.00445114745 0.997932708 0.0641131616
    outer loop
      vertex 0.00603337955 0.0302720895 -0.00314584747
      vertex -0.0060627114 0.0303297523 -0.00320359006
      vertex 0.0129854377 0.0290242639 0.0157941227
    endloop
  endfacet
  facet normal 0.00111345752 0.999331236 -0.0365491472
    outer loop
      vertex 0.00611079108 0.0303893639 -0.0058008626
      vertex 0.0129713503 0.030307326 -0.00783494753
      vertex -0.0130033003 0.0303376523 -0.00779707254
    endloop
  endfacet
  facet normal 0.00455105442 0.999009687 0.0442598385
    outer loop
      vertex 0.00611079108 0.0303893639 -0.0058008626
      vertex -0.0060627114 0.0303297523 -0.00320359006
      vertex 0.00603337955 0.0302720895 -0.00314584747
    endloop
  endfacet
  facet normal -0.788224148 0.61438799 0.0350726288
    outer loop
      vertex -0.0129521882 0.0302864644 -0.0057516876
      vertex -0.0130033003 0.0303376523 -0.00779707254
      vertex -0.013001213 0.0289828386 0.0159829111
    endloop
  endfacet
  facet normal -0.02838066 0.997807816 0.0597837865
    outer loop
      vertex -0.0129521882 0.0302864644 -0.0057516876
      vertex -0.013001213 0.0289828386 0.0159829111
      vertex -0.0060627114 0.0303297523 -0.00320359006
    endloop
  endfacet
  facet normal -0.0156771216 0.999554266 0.0254066356
    outer loop
      vertex -0.0129521882 0.0302864644 -0.0057516876
      vertex -0.0060627114 0.0303297523 -0.00320359006
      vertex -0.0130033003 0.0303376523 -0.00779707254
    endloop
  endfacet
  facet normal -0.998729 -0.0194191193 0.0465110948
    outer loop
      vertex -0.0111314898 0.00913509499 0.054372924
      vertex -0.0131140125 0.0195550276 0.0161528612
      vertex -0.0109018641 -0.00255538362 0.0544226986
    endloop
  endfacet
  facet normal -0.998748794 -0.0115815447 0.0486488789
    outer loop
      vertex -0.0111314898 0.00913509499 0.054372924
      vertex -0.0111969059 0.0150949518 0.0544487756
      vertex -0.0131140125 0.0195550276 0.0161528612
    endloop
  endfacet
  facet normal -0.523811249 0.0159834507 0.851684393
    outer loop
      vertex -0.00887031368 0.00933782413 0.0580251241
      vertex -0.00667805542 0.0153346393 0.0592608867
      vertex -0.00976728907 0.0152555898 0.0573623996
    endloop
  endfacet
  facet normal -0.628971378 -0.00827679964 0.777384396
    outer loop
      vertex -0.00887031368 0.00933782413 0.0580251241
      vertex -0.00976728907 0.0152555898 0.0573623996
      vertex -0.00984112375 0.00915163412 0.0572376722
    endloop
  endfacet
  facet normal -0.620753117 -0.0264429847 0.78356004
    outer loop
      vertex -0.00887031368 0.00933782413 0.0580251241
      vertex -0.00978785326 -0.00259216187 0.0568956255
      vertex -0.00713008157 -0.00252870537 0.0590033108
    endloop
  endfacet
  facet normal -0.626788313 -0.0255254382 0.77877138
    outer loop
      vertex -0.00887031368 0.00933782413 0.0580251241
      vertex -0.00984112375 0.00915163412 0.0572376722
      vertex -0.00978785326 -0.00259216187 0.0568956255
    endloop
  endfacet
  facet normal -0.00798761346 -0.00745169466 0.999940333
    outer loop
      vertex -0.00668990127 0.00915148628 0.0592727238
      vertex -1.46936672e-05 -0.00059387431 0.0592534222
      vertex 0.00589740587 0.00914671674 0.0593732368
    endloop
  endfacet
  facet normal -0.00798426577 0.00192964756 0.999966263
    outer loop
      vertex -0.00668990127 0.00915148628 0.0592727238
      vertex 0.00589740587 0.00914671674 0.0593732368
      vertex -0.00667805542 0.0153346393 0.0592608867
    endloop
  endfacet
  facet normal -0.0162721147 -0.0131259535 0.99978144
    outer loop
      vertex -0.00668990127 0.00915148628 0.0592727238
      vertex -0.00285046778 -0.00258809312 0.0591810863
      vertex -1.46936672e-05 -0.00059387431 0.0592534222
    endloop
  endfacet
  facet normal -0.0417920808 -0.0214653534 0.998895721
    outer loop
      vertex -0.00668990127 0.00915148628 0.0592727238
      vertex -0.00713008157 -0.00252870537 0.0590033108
      vertex -0.00285046778 -0.00258809312 0.0591810863
    endloop
  endfacet
  facet normal 0.0196875085 -0.999774138 0.00800472314
    outer loop
      vertex 0.0109310938 -0.00257971962 0.0510881121
      vertex 0.0108284981 -0.00255124755 0.0548965508
      vertex 0.00882868838 -0.00256610062 0.0579599362
    endloop
  endfacet
  facet normal 0.00830673697 -0.999955268 0.00452318338
    outer loop
      vertex 0.0109310938 -0.00257971962 0.0510881121
      vertex 0.00882868838 -0.00256610062 0.0579599362
      vertex 0.00281368594 -0.00264720337 0.0510767127
    endloop
  endfacet
  facet normal 0.971252607 -0.237166095 0.0205089391
    outer loop
      vertex 0.0109310938 -0.00257971962 0.0510881121
      vertex 0.012957725 0.00062653079 -0.00781093629
      vertex 0.0129227748 0.00066147459 -0.0057516876
    endloop
  endfacet
  facet normal 0.991824889 -0.124574716 0.0276501315
    outer loop
      vertex 0.0109310938 -0.00257971962 0.0510881121
      vertex 0.0129227748 0.00066147459 -0.0057516876
      vertex 0.0108284981 -0.00255124755 0.0548965508
    endloop
  endfacet
  facet normal -0.000389083195 -0.999983006 -0.00581689428
    outer loop
      vertex 0.00279513342 -0.00263802537 0.0454384858
      vertex -0.00282014392 -0.00263586612 0.0454428863
      vertex -0.00285732261 -0.00258854475 0.0373103493
    endloop
  endfacet
  facet normal 0 -0.999998675 -0.00162781494
    outer loop
      vertex 0.00279513342 -0.00263802537 0.0454384858
      vertex 0.00281368594 -0.00264720337 0.0510767127
      vertex -0.00284301778 -0.00264720337 0.0510767127
    endloop
  endfacet
  facet normal -0.000386108659 -0.999997898 -0.00201391716
    outer loop
      vertex 0.00279513342 -0.00263802537 0.0454384858
      vertex -0.00284301778 -0.00264720337 0.0510767127
      vertex -0.00282014392 -0.00263586612 0.0454428863
    endloop
  endfacet
  facet normal 0.00776808513 -0.999765569 0.0202104825
    outer loop
      vertex 0.00603874339 -0.0025638245 0.0591448718
      vertex 0.0028210623 -0.00258809349 0.0591810863
      vertex 0.00882868838 -0.00256610062 0.0579599362
    endloop
  endfacet
  facet normal 0.0114030611 -0.0200481142 0.999733986
    outer loop
      vertex 0.00603874339 -0.0025638245 0.0591448718
      vertex -1.46936672e-05 -0.00059387431 0.0592534222
      vertex 0.0028210623 -0.00258809349 0.0591810863
    endloop
  endfacet
  facet normal 0.0116286592 -0.0193554854 0.999745037
    outer loop
      vertex 0.00603874339 -0.0025638245 0.0591448718
      vertex 0.00589740587 0.00914671674 0.0593732368
      vertex -1.46936672e-05 -0.00059387431 0.0592534222
    endloop
  endfacet
  facet normal 0.703431884 -0.00980677856 0.71069502
    outer loop
      vertex 0.00857067477 0.00914768532 0.0583769498
      vertex 0.00882868838 -0.00256610062 0.0579599362
      vertex 0.00965711843 0.00937433198 0.0573047368
    endloop
  endfacet
  facet normal 0.70342035 -0.00968989349 0.710708039
    outer loop
      vertex 0.00857067477 0.00914768532 0.0583769498
      vertex 0.00965711843 0.00937433198 0.0573047368
      vertex 0.0102312596 0.0151011393 0.0568145631
    endloop
  endfacet
  facet normal 0.646140301 0.0199988925 0.762956588
    outer loop
      vertex 0.00857067477 0.00914768532 0.0583769498
      vertex 0.0102312596 0.0151011393 0.0568145631
      vertex 0.0081681199 0.0153206391 0.0585560618
    endloop
  endfacet
  facet normal 0.879643816 0.474961455 0.0252660463
    outer loop
      vertex 0.0129227748 0.0302864644 -0.00575161382
      vertex 0.0129854377 0.0290242639 0.0157941227
      vertex 0.0129713503 0.030307326 -0.00783494753
    endloop
  endfacet
  facet normal 0.0200107008 0.998091961 0.0584124029
    outer loop
      vertex 0.0129227748 0.0302864644 -0.00575161382
      vertex 0.00603337955 0.0302720895 -0.00314584747
      vertex 0.0129854377 0.0290242639 0.0157941227
    endloop
  endfacet
  facet normal 0.0150282249 0.999833374 0.0103623113
    outer loop
      vertex 0.0129227748 0.0302864644 -0.00575161382
      vertex 0.0129713503 0.030307326 -0.00783494753
      vertex 0.00611079108 0.0303893639 -0.0058008626
    endloop
  endfacet
  facet normal 0.0147669062 0.998897888 0.044552761
    outer loop
      vertex 0.0129227748 0.0302864644 -0.00575161382
      vertex 0.00611079108 0.0303893639 -0.0058008626
      vertex 0.00603337955 0.0302720895 -0.00314584747
    endloop
  endfacet
  facet normal -0.00452642639 0.999953126 0.008559017
    outer loop
      vertex -0.0061565142 0.0303513636 -0.00577806251
      vertex -0.0130033003 0.0303376523 -0.00779707254
      vertex -0.0060627114 0.0303297523 -0.00320359006
    endloop
  endfacet
  facet normal -0.00309079049 0.999988414 0.00369030624
    outer loop
      vertex -0.0061565142 0.0303513636 -0.00577806251
      vertex 0.00611079108 0.0303893639 -0.0058008626
      vertex -0.0130033003 0.0303376523 -0.00779707254
    endloop
  endfacet
  facet normal -0.00308174831 0.999959071 0.00850642899
    outer loop
      vertex -0.0061565142 0.0303513636 -0.00577806251
      vertex -0.0060627114 0.0303297523 -0.00320359006
      vertex 0.00611079108 0.0303893639 -0.0058008626
    endloop
  endfacet
  facet normal -0.897941912 0.0372083208 0.438538327
    outer loop
      vertex -0.0105084722 0.0095983721 0.056324762
      vertex -0.00976728907 0.0152555898 0.0573623996
      vertex -0.0111969059 0.0150949518 0.0544487756
    endloop
  endfacet
  facet normal -0.807825078 -0.00227246855 0.589417915
    outer loop
      vertex -0.0105084722 0.0095983721 0.056324762
      vertex -0.00984112375 0.00915163412 0.0572376722
      vertex -0.00976728907 0.0152555898 0.0573623996
    endloop
  endfacet
  facet normal -0.951556362 -0.0143533838 0.307139172
    outer loop
      vertex -0.0105084722 0.0095983721 0.056324762
      vertex -0.0111969059 0.0150949518 0.0544487756
      vertex -0.0111314898 0.00913509499 0.054372924
    endloop
  endfacet
  facet normal -0.81191836 -0.0206750008 0.583404766
    outer loop
      vertex -0.0105084722 0.0095983721 0.056324762
      vertex -0.00978785326 -0.00259216187 0.0568956255
      vertex -0.00984112375 0.00915163412 0.0572376722
    endloop
  endfacet
  facet normal -0.9114015 -0.0346734462 0.410054946
    outer loop
      vertex -0.0105084722 0.0095983721 0.056324762
      vertex -0.0109018641 -0.00255538362 0.0544226986
      vertex -0.00978785326 -0.00259216187 0.0568956255
    endloop
  endfacet
  facet normal -0.951300585 -0.0173751409 0.307774756
    outer loop
      vertex -0.0105084722 0.0095983721 0.056324762
      vertex -0.0111314898 0.00913509499 0.054372924
      vertex -0.0109018641 -0.00255538362 0.0544226986
    endloop
  endfacet
  facet normal -0.496997473 0.00287105924 0.867747238
    outer loop
      vertex -0.00684979015 0.00932120934 0.0591824228
      vertex -0.00667805542 0.0153346393 0.0592608867
      vertex -0.00887031368 0.00933782413 0.0580251241
    endloop
  endfacet
  facet normal -0.489662846 0.00260730347 0.871907965
    outer loop
      vertex -0.00684979015 0.00932120934 0.0591824228
      vertex -0.00668990127 0.00915148628 0.0592727238
      vertex -0.00667805542 0.0153346393 0.0592608867
    endloop
  endfacet
  facet normal -0.497025256 -0.00135948958 0.867735009
    outer loop
      vertex -0.00684979015 0.00932120934 0.0591824228
      vertex -0.00887031368 0.00933782413 0.0580251241
      vertex -0.00713008157 -0.00252870537 0.0590033108
    endloop
  endfacet
  facet normal -0.49296289 -0.00149055558 0.87004906
    outer loop
      vertex -0.00684979015 0.00932120934 0.0591824228
      vertex -0.00713008157 -0.00252870537 0.0590033108
      vertex -0.00668990127 0.00915148628 0.0592727238
    endloop
  endfacet
  facet normal 0.000539015045 -0.999978974 -0.00646228637
    outer loop
      vertex 0.00282262605 -0.00258547687 0.0373093855
      vertex 0.00279513342 -0.00263802537 0.0454384858
      vertex -0.00285732261 -0.00258854475 0.0373103493
    endloop
  endfacet
  facet normal 0.00698239997 -0.999954883 -0.0064403391
    outer loop
      vertex 0.00282262605 -0.00258547687 0.0373093855
      vertex 0.0109380973 -0.00252894612 0.0373306988
      vertex 0.00279513342 -0.00263802537 0.0454384858
    endloop
  endfacet
  facet normal 0.00713111657 -0.997562571 -0.0694122721
    outer loop
      vertex 0.00282262605 -0.00258547687 0.0373093855
      vertex 0.012957725 0.00062653079 -0.00781093629
      vertex 0.0109380973 -0.00252894612 0.0373306988
    endloop
  endfacet
  facet normal 0.000590084657 -0.997484958 -0.0708760186
    outer loop
      vertex 0.00282262605 -0.00258547687 0.0373093855
      vertex -0.0129729753 0.000612897103 -0.00783494879
      vertex 0.012957725 0.00062653079 -0.00781093629
    endloop
  endfacet
  facet normal 0.000526741706 -0.99748656 -0.070853969
    outer loop
      vertex 0.00282262605 -0.00258547687 0.0373093855
      vertex -0.00285732261 -0.00258854475 0.0373103493
      vertex -0.0129729753 0.000612897103 -0.00783494879
    endloop
  endfacet
  facet normal 0.00729797156 -0.999954621 -0.00612339482
    outer loop
      vertex 0.0109334768 -0.0025784445 0.045408311
      vertex 0.00279513342 -0.00263802537 0.0454384858
      vertex 0.0109380973 -0.00252894612 0.0373306988
    endloop
  endfacet
  facet normal 0.822087947 -0.569352522 -0.00301865778
    outer loop
      vertex 0.0109334768 -0.0025784445 0.045408311
      vertex 0.0109380973 -0.00252894612 0.0373306988
      vertex 0.012957725 0.00062653079 -0.00781093629
    endloop
  endfacet
  facet normal 0.84724883 -0.531196163 0.000236218395
    outer loop
      vertex 0.0109334768 -0.0025784445 0.045408311
      vertex 0.012957725 0.00062653079 -0.00781093629
      vertex 0.0109310938 -0.00257971962 0.0510881121
    endloop
  endfacet
  facet normal 0.00831348367 -0.999965418 -0.000221005962
    outer loop
      vertex 0.0109334768 -0.0025784445 0.045408311
      vertex 0.0109310938 -0.00257971962 0.0510881121
      vertex 0.00281368594 -0.00264720337 0.0510767127
    endloop
  endfacet
  facet normal 0.00731467731 -0.999971883 -0.0016518402
    outer loop
      vertex 0.0109334768 -0.0025784445 0.045408311
      vertex 0.00281368594 -0.00264720337 0.0510767127
      vertex 0.00279513342 -0.00263802537 0.0454384858
    endloop
  endfacet
  facet normal 0.0611834237 -0.0187224097 0.997950931
    outer loop
      vertex 0.00690010617 0.00960381102 0.0593203377
      vertex 0.00589740587 0.00914671674 0.0593732368
      vertex 0.00603874339 -0.0025638245 0.0591448718
    endloop
  endfacet
  facet normal 0.4931425 0.00691785729 0.869921041
    outer loop
      vertex 0.00690010617 0.00960381102 0.0593203377
      vertex 0.00857067477 0.00914768532 0.0583769498
      vertex 0.0081681199 0.0153206391 0.0585560618
    endloop
  endfacet
  facet normal 0.390564045 -0.0409107731 0.919666263
    outer loop
      vertex 0.00690010617 0.00960381102 0.0593203377
      vertex 0.00603874339 -0.0025638245 0.0591448718
      vertex 0.00882868838 -0.00256610062 0.0579599362
    endloop
  endfacet
  facet normal 0.487404347 -0.0203410477 0.872939428
    outer loop
      vertex 0.00690010617 0.00960381102 0.0593203377
      vertex 0.00882868838 -0.00256610062 0.0579599362
      vertex 0.00857067477 0.00914768532 0.0583769498
    endloop
  endfacet
  facet normal 0.0467496352 0.0130408779 0.998821509
    outer loop
      vertex 0.00690010617 0.00960381102 0.0593203377
      vertex 0.00598539723 0.015371302 0.0592878486
      vertex 0.00589740587 0.00914671674 0.0593732368
    endloop
  endfacet
  facet normal 0.3185431 0.0558505306 0.946261598
    outer loop
      vertex 0.00690010617 0.00960381102 0.0593203377
      vertex 0.0081681199 0.0153206391 0.0585560618
      vertex 0.00598539723 0.015371302 0.0592878486
    endloop
  endfacet
endsolid finger_convex_hull_125
