solid finger_convex_hull
  facet normal 0.000926450655 -0.000809407125 -0.999999243
    outer loop
      vertex 0.0103783002 0.00253522303 0.000152541994
      vertex -0.0103662601 0.00252431608 0.000133331996
      vertex 0.0103892004 0.0262798592 0.000133333
    endloop
  endfacet
  facet normal -0.819236103 -0.573445825 -0.00347767331
    outer loop
      vertex -0.00877195504 2.75425991e-05 0.0362644084
      vertex -0.00875878334 -3.04484001e-05 0.0427238904
      vertex -0.0103662601 0.00252431608 0.000133331996
    endloop
  endfacet
  facet normal -0.999994281 0.0029812127 -0.00159669702
    outer loop
      vertex -0.0104643097 0.0207543299 0.00174116995
      vertex -0.0104976799 0.0106680896 0.00380843808
      vertex -0.0105009004 0.0170356594 0.0177143794
    endloop
  endfacet
  facet normal -0.999908038 0.0135342377 0.00086031567
    outer loop
      vertex -0.0103888502 0.0252202693 0.0191876199
      vertex -0.0104643097 0.0207543299 0.00174116995
      vertex -0.0105009004 0.0170356594 0.0177143794
    endloop
  endfacet
  facet normal -0.999888576 0.0121202941 0.00871402073
    outer loop
      vertex -0.0104790898 0.0176780205 0.01932358
      vertex -0.0103888502 0.0252202693 0.0191876199
      vertex -0.0105009004 0.0170356594 0.0177143794
    endloop
  endfacet
  facet normal -0.999703358 -0.0219818747 0.0104877766
    outer loop
      vertex -0.0103496304 0.00256317807 0.00179994095
      vertex -0.0105009004 0.0170356594 0.0177143794
      vertex -0.0103662601 0.00252431608 0.000133331996
    endloop
  endfacet
  facet normal -0.999672231 -0.0229422873 0.0113614652
    outer loop
      vertex -0.0103496304 0.00256317807 0.00179994095
      vertex -0.0103749596 0.01157689 0.0177727304
      vertex -0.0105009004 0.0170356594 0.0177143794
    endloop
  endfacet
  facet normal -0.00807868736 -0.99996735 -0.000183101389
    outer loop
      vertex -0.00781816244 -3.97311014e-05 0.0519177914
      vertex -0.00875878334 -3.04484001e-05 0.0427238904
      vertex -0.00226229406 -8.3764302e-05 0.0472626612
    endloop
  endfacet
  facet normal 0.998698991 -0.0189542065 0.0473398738
    outer loop
      vertex 0.00897312071 0.0141132995 0.0496811196
      vertex 0.00867491867 -6.99963994e-06 0.0503185317
      vertex 0.0104797399 0.0176779609 0.0193241797
    endloop
  endfacet
  facet normal 0.999825697 -0.017063408 0.00757725791
    outer loop
      vertex 0.0104090497 0.0116169397 0.0177185498
      vertex 0.0104981 0.0106536699 0.00379907992
      vertex 0.0105015598 0.0170357209 0.0177144408
    endloop
  endfacet
  facet normal 0.999805204 -0.0181920899 0.00765523503
    outer loop
      vertex 0.0104090497 0.0116169397 0.0177185498
      vertex 0.0103783002 0.00253522303 0.000152541994
      vertex 0.0104981 0.0106536699 0.00379907992
    endloop
  endfacet
  facet normal 0.999647454 -0.0170506774 0.0203529228
    outer loop
      vertex 0.0104090497 0.0116169397 0.0177185498
      vertex 0.0105015598 0.0170357209 0.0177144408
      vertex 0.0104797399 0.0176779609 0.0193241797
    endloop
  endfacet
  facet normal 0.998721896 -0.0235019572 0.0447463222
    outer loop
      vertex 0.0104090497 0.0116169397 0.0177185498
      vertex 0.0104797399 0.0176779609 0.0193241797
      vertex 0.00867491867 -6.99963994e-06 0.0503185317
    endloop
  endfacet
  facet normal 0.999999973 -5.01721557e-05 -0.000225625626
    outer loop
      vertex 0.0104986401 0.0172322895 0.00473028421
      vertex 0.0105015598 0.0170357209 0.0177144408
      vertex 0.0104981 0.0106536699 0.00379907992
    endloop
  endfacet
  facet normal 0.998606805 -0.00050110625 -0.0527655079
    outer loop
      vertex 0.0104650203 0.00807201769 0.00174116995
      vertex 0.0103783002 0.00253522303 0.000152541994
      vertex 0.0103892004 0.0262798592 0.000133333
    endloop
  endfacet
  facet normal 0.999835412 -0.0172619255 0.00558337686
    outer loop
      vertex 0.0104650203 0.00807201769 0.00174116995
      vertex 0.0104981 0.0106536699 0.00379907992
      vertex 0.0103783002 0.00253522303 0.000152541994
    endloop
  endfacet
  facet normal -0.0100399627 -0.99760098 -0.068494414
    outer loop
      vertex -0.00227373792 -3.68373985e-05 0.0362495705
      vertex -0.00877195504 2.75425991e-05 0.0362644084
      vertex -0.0103662601 0.00252431608 0.000133331996
    endloop
  endfacet
  facet normal -0.00992689817 -0.999910614 -0.00895661006
    outer loop
      vertex -0.00227373792 -3.68373985e-05 0.0362495705
      vertex -0.00875878334 -3.04484001e-05 0.0427238904
      vertex -0.00877195504 2.75425991e-05 0.0362644084
    endloop
  endfacet
  facet normal -0.99986974 0 -0.0161400797
    outer loop
      vertex -0.0104643097 0.00807201769 0.00174116995
      vertex -0.0104976799 0.0106680896 0.00380843808
      vertex -0.0104643097 0.0207543299 0.00174116995
    endloop
  endfacet
  facet normal -0.999752283 -0.0203087733 0.0091064291
    outer loop
      vertex -0.0104643097 0.00807201769 0.00174116995
      vertex -0.0103662601 0.00252431608 0.000133331996
      vertex -0.0105009004 0.0170356594 0.0177143794
    endloop
  endfacet
  facet normal -0.999761671 -0.0199359404 0.00889718599
    outer loop
      vertex -0.0104643097 0.00807201769 0.00174116995
      vertex -0.0105009004 0.0170356594 0.0177143794
      vertex -0.0104976799 0.0106680896 0.00380843808
    endloop
  endfacet
  facet normal 0.000655617261 0.954066796 0.299593257
    outer loop
      vertex 0.0104004703 0.0252534095 0.0190365892
      vertex -0.0103888502 0.0252202693 0.0191876199
      vertex 0.00480043795 0.01433104 0.0538315699
    endloop
  endfacet
  facet normal 0.998621014 0.012386326 0.0510161634
    outer loop
      vertex 0.0104004703 0.0252534095 0.0190365892
      vertex 0.00897312071 0.0141132995 0.0496811196
      vertex 0.0104797399 0.0176779609 0.0193241797
    endloop
  endfacet
  facet normal 0.999898845 0.0108136988 0.00923923676
    outer loop
      vertex 0.0104004703 0.0252534095 0.0190365892
      vertex 0.0104797399 0.0176779609 0.0193241797
      vertex 0.0105015598 0.0170357209 0.0177144408
    endloop
  endfacet
  facet normal -0.999907976 0.0135389115 0.000859119001
    outer loop
      vertex -0.0103905201 0.0263041202 0.000163632998
      vertex -0.0104643097 0.0207543299 0.00174116995
      vertex -0.0103888502 0.0252202693 0.0191876199
    endloop
  endfacet
  facet normal -0.00145666364 0.00127274415 -0.999998129
    outer loop
      vertex -0.0103905201 0.0263041202 0.000163632998
      vertex 0.0103892004 0.0262798592 0.000133333
      vertex -0.0103662601 0.00252431608 0.000133331996
    endloop
  endfacet
  facet normal -0.998338138 -0.000945077591 -0.0576200399
    outer loop
      vertex -0.0103905201 0.0263041202 0.000163632998
      vertex -0.0103662601 0.00252431608 0.000133331996
      vertex -0.0104643097 0.00807201769 0.00174116995
    endloop
  endfacet
  facet normal -0.998907832 0 -0.0467241215
    outer loop
      vertex -0.0103905201 0.0263041202 0.000163632998
      vertex -0.0104643097 0.00807201769 0.00174116995
      vertex -0.0104643097 0.0207543299 0.00174116995
    endloop
  endfacet
  facet normal -0.00340198897 0.95355165 0.301210354
    outer loop
      vertex -0.00533032417 0.0143017098 0.0538100004
      vertex 0.00480043795 0.01433104 0.0538315699
      vertex -0.0103888502 0.0252202693 0.0191876199
    endloop
  endfacet
  facet normal -0.999499667 -0.0228257059 0.0218952604
    outer loop
      vertex -0.0103790704 0.0127922203 0.0188520495
      vertex -0.0105009004 0.0170356594 0.0177143794
      vertex -0.0103749596 0.01157689 0.0177727304
    endloop
  endfacet
  facet normal -0.999488542 -0.0226406099 0.0225844655
    outer loop
      vertex -0.0103790704 0.0127922203 0.0188520495
      vertex -0.0104790898 0.0176780205 0.01932358
      vertex -0.0105009004 0.0170356594 0.0177143794
    endloop
  endfacet
  facet normal 0 -0.999973403 0.00729338376
    outer loop
      vertex 0.00226897001 -3.64763982e-05 0.0537461601
      vertex -0.00226229406 -8.3764302e-05 0.0472626612
      vertex 0.00226306892 -8.3764302e-05 0.0472626612
    endloop
  endfacet
  facet normal -0.998749707 -0.0246434649 0.0434939244
    outer loop
      vertex -0.00870937109 -1.03085004e-05 0.0499394499
      vertex -0.0104790898 0.0176780205 0.01932358
      vertex -0.0103790704 0.0127922203 0.0188520495
    endloop
  endfacet
  facet normal -0.998569908 -0.0373487179 0.0382519429
    outer loop
      vertex -0.00870937109 -1.03085004e-05 0.0499394499
      vertex -0.0103790704 0.0127922203 0.0188520495
      vertex -0.0103749596 0.01157689 0.0177727304
    endloop
  endfacet
  facet normal -0.997860902 -0.0575978209 0.0309210341
    outer loop
      vertex -0.00870937109 -1.03085004e-05 0.0499394499
      vertex -0.0103749596 0.01157689 0.0177727304
      vertex -0.0103496304 0.00256317807 0.00179994095
    endloop
  endfacet
  facet normal 0.999145095 -0.0374109385 0.0175926344
    outer loop
      vertex 0.01035034 0.00256317807 0.00179994095
      vertex 0.0103783002 0.00253522303 0.000152541994
      vertex 0.0104090497 0.0116169397 0.0177185498
    endloop
  endfacet
  facet normal 0.997629896 -0.0613277248 0.0312009742
    outer loop
      vertex 0.01035034 0.00256317807 0.00179994095
      vertex 0.0104090497 0.0116169397 0.0177185498
      vertex 0.00867491867 -6.99963994e-06 0.0503185317
    endloop
  endfacet
  facet normal 0.999150919 0.000522739274 -0.0411966966
    outer loop
      vertex 0.0104585197 0.02080255 0.00174504495
      vertex 0.0104650203 0.00807201769 0.00174116995
      vertex 0.0103892004 0.0262798592 0.000133333
    endloop
  endfacet
  facet normal 0.999860094 0.000515650733 -0.0167190256
    outer loop
      vertex 0.0104585197 0.02080255 0.00174504495
      vertex 0.0104981 0.0106536699 0.00379907992
      vertex 0.0104650203 0.00807201769 0.00174116995
    endloop
  endfacet
  facet normal 0.999931773 0.00155662363 -0.0115770138
    outer loop
      vertex 0.0104585197 0.02080255 0.00174504495
      vertex 0.0104986401 0.0172322895 0.00473028421
      vertex 0.0104981 0.0106536699 0.00379907992
    endloop
  endfacet
  facet normal 0.999937385 0.0111903407 -5.54401119e-05
    outer loop
      vertex 0.0104585197 0.02080255 0.00174504495
      vertex 0.0105015598 0.0170357209 0.0177144408
      vertex 0.0104986401 0.0172322895 0.00473028421
    endloop
  endfacet
  facet normal 0.999924719 0.0122685197 0.000198912743
    outer loop
      vertex 0.0104585197 0.02080255 0.00174504495
      vertex 0.0104004703 0.0252534095 0.0190365892
      vertex 0.0105015598 0.0170357209 0.0177144408
    endloop
  endfacet
  facet normal 0.999919577 0.012681913 9.24876642e-05
    outer loop
      vertex 0.0104585197 0.02080255 0.00174504495
      vertex 0.0103892004 0.0262798592 0.000133333
      vertex 0.0104004703 0.0252534095 0.0190365892
    endloop
  endfacet
  facet normal -0.00108431411 0.997571703 0.069638513
    outer loop
      vertex -0.00483804895 0.0262978002 0.00383841898
      vertex -0.0103888502 0.0252202693 0.0191876199
      vertex 0.0104004703 0.0252534095 0.0190365892
    endloop
  endfacet
  facet normal -0.998590536 0.0128758514 0.0514893502
    outer loop
      vertex -0.00894540455 0.0141099598 0.0499603115
      vertex -0.0103888502 0.0252202693 0.0191876199
      vertex -0.0104790898 0.0176780205 0.01932358
    endloop
  endfacet
  facet normal -0.221797616 0.920183429 0.322596147
    outer loop
      vertex -0.00780171109 0.0142384702 0.0522912107
      vertex -0.00533032417 0.0143017098 0.0538100004
      vertex -0.0103888502 0.0252202693 0.0191876199
    endloop
  endfacet
  facet normal -0.656043296 0.69952169 0.283331255
    outer loop
      vertex -0.00780171109 0.0142384702 0.0522912107
      vertex -0.0103888502 0.0252202693 0.0191876199
      vertex -0.00894540455 0.0141099598 0.0499603115
    endloop
  endfacet
  facet normal -0.0021686967 0.01374724 0.99990315
    outer loop
      vertex 0.00473004486 0.00935137179 0.0538998805
      vertex 0.00480043795 0.01433104 0.0538315699
      vertex -0.00533032417 0.0143017098 0.0538100004
    endloop
  endfacet
  facet normal -0.00678154162 -0.999974925 -0.00203983699
    outer loop
      vertex -0.00224399497 -7.46945007e-05 0.0427556001
      vertex -0.00226229406 -8.3764302e-05 0.0472626612
      vertex -0.00875878334 -3.04484001e-05 0.0427238904
    endloop
  endfacet
  facet normal -0.0067632011 -0.99996038 -0.00578762279
    outer loop
      vertex -0.00224399497 -7.46945007e-05 0.0427556001
      vertex -0.00875878334 -3.04484001e-05 0.0427238904
      vertex -0.00227373792 -3.68373985e-05 0.0362495705
    endloop
  endfacet
  facet normal -0.0159416256 -0.998613572 0.0501676974
    outer loop
      vertex -0.00226825406 -3.64760999e-05 0.0537461601
      vertex -0.00569194509 1.10340998e-05 0.0536039397
      vertex -0.00781816244 -3.97311014e-05 0.0519177914
    endloop
  endfacet
  facet normal -2.38330081e-09 -0.0362489199 0.999342792
    outer loop
      vertex -0.00226825406 -3.64760999e-05 0.0537461601
      vertex 0.00226897001 -3.64763982e-05 0.0537461601
      vertex 3.65234001e-07 0.00155889895 0.0538040288
    endloop
  endfacet
  facet normal -0.00181572293 -0.999971766 0.00729174872
    outer loop
      vertex -0.00226825406 -3.64760999e-05 0.0537461601
      vertex -0.00781816244 -3.97311014e-05 0.0519177914
      vertex -0.00226229406 -8.3764302e-05 0.0472626612
    endloop
  endfacet
  facet normal -6.57464395e-08 -0.999973403 0.0072934297
    outer loop
      vertex -0.00226825406 -3.64760999e-05 0.0537461601
      vertex -0.00226229406 -8.3764302e-05 0.0472626612
      vertex 0.00226897001 -3.64763982e-05 0.0537461601
    endloop
  endfacet
  facet normal 0.00514221125 -0.999960216 0.00728860729
    outer loop
      vertex 0.00707507087 -1.88820995e-05 0.05276924
      vertex 0.00226897001 -3.64763982e-05 0.0537461601
      vertex 0.00226306892 -8.3764302e-05 0.0472626612
    endloop
  endfacet
  facet normal 0.837032156 -0.031035467 0.546272798
    outer loop
      vertex 0.00707507087 -1.88820995e-05 0.05276924
      vertex 0.00867491867 -6.99963994e-06 0.0503185317
      vertex 0.00819712784 0.0141149098 0.0518529415
    endloop
  endfacet
  facet normal 0.705298003 -0.0100380454 0.708839872
    outer loop
      vertex 0.00707507087 -1.88820995e-05 0.05276924
      vertex 0.00819712784 0.0141149098 0.0518529415
      vertex 0.00773781491 0.00953346398 0.0522450805
    endloop
  endfacet
  facet normal -0.0130620907 -0.999914634 0.000326799976
    outer loop
      vertex -0.00875771046 -2.89759992e-05 0.0472718999
      vertex -0.00875878334 -3.04484001e-05 0.0427238904
      vertex -0.00781816244 -3.97311014e-05 0.0519177914
    endloop
  endfacet
  facet normal -0.0505173212 -0.998691906 0.00790427745
    outer loop
      vertex -0.00875771046 -2.89759992e-05 0.0472718999
      vertex -0.00781816244 -3.97311014e-05 0.0519177914
      vertex -0.00870937109 -1.03085004e-05 0.0499394499
    endloop
  endfacet
  facet normal -0.849172375 -0.528115649 0.000371296746
    outer loop
      vertex -0.00875771046 -2.89759992e-05 0.0472718999
      vertex -0.0103662601 0.00252431608 0.000133331996
      vertex -0.00875878334 -3.04484001e-05 0.0427238904
    endloop
  endfacet
  facet normal -0.954588697 -0.297471746 0.0164614893
    outer loop
      vertex -0.00875771046 -2.89759992e-05 0.0472718999
      vertex -0.0103496304 0.00256317807 0.00179994095
      vertex -0.0103662601 0.00252431608 0.000133331996
    endloop
  endfacet
  facet normal -0.966728611 -0.255074837 0.0193033526
    outer loop
      vertex -0.00875771046 -2.89759992e-05 0.0472718999
      vertex -0.00870937109 -1.03085004e-05 0.0499394499
      vertex -0.0103496304 0.00256317807 0.00179994095
    endloop
  endfacet
  facet normal 0.127663623 0.940234224 0.31569226
    outer loop
      vertex 0.00654661609 0.0142905097 0.0532461405
      vertex 0.0104004703 0.0252534095 0.0190365892
      vertex 0.00480043795 0.01433104 0.0538315699
    endloop
  endfacet
  facet normal 0.364114351 0.874223673 0.321175512
    outer loop
      vertex 0.00654661609 0.0142905097 0.0532461405
      vertex 0.00819712784 0.0141149098 0.0518529415
      vertex 0.0104004703 0.0252534095 0.0190365892
    endloop
  endfacet
  facet normal 0.816607905 0.529206723 0.230416521
    outer loop
      vertex 0.00853770878 0.0144140096 0.050533589
      vertex 0.00897312071 0.0141132995 0.0496811196
      vertex 0.0104004703 0.0252534095 0.0190365892
    endloop
  endfacet
  facet normal 0.871213563 0.379820797 0.311003359
    outer loop
      vertex 0.00853770878 0.0144140096 0.050533589
      vertex 0.00819712784 0.0141149098 0.0518529415
      vertex 0.00897312071 0.0141132995 0.0496811196
    endloop
  endfacet
  facet normal 0.483147232 0.818699708 0.310321671
    outer loop
      vertex 0.00853770878 0.0144140096 0.050533589
      vertex 0.0104004703 0.0252534095 0.0190365892
      vertex 0.00819712784 0.0141149098 0.0518529415
    endloop
  endfacet
  facet normal 0.991769031 -0.0152058399 0.127133673
    outer loop
      vertex 0.00878596306 0.00934815407 0.0505711995
      vertex 0.00867491867 -6.99963994e-06 0.0503185317
      vertex 0.00897312071 0.0141132995 0.0496811196
    endloop
  endfacet
  facet normal 0.87234924 -0.0235433033 0.488316
    outer loop
      vertex 0.00878596306 0.00934815407 0.0505711995
      vertex 0.00819712784 0.0141149098 0.0518529415
      vertex 0.00867491867 -6.99963994e-06 0.0503185317
    endloop
  endfacet
  facet normal 0.941386287 0.0258503184 0.336338548
    outer loop
      vertex 0.00878596306 0.00934815407 0.0505711995
      vertex 0.00897312071 0.0141132995 0.0496811196
      vertex 0.00819712784 0.0141149098 0.0518529415
    endloop
  endfacet
  facet normal 0.00445115471 0.997932708 0.0641131559
    outer loop
      vertex 0.00483882381 0.02625167 0.00388461305
      vertex -0.00483804895 0.0262978002 0.00383841898
      vertex 0.0104004703 0.0252534095 0.0190365892
    endloop
  endfacet
  facet normal 0.00111345525 0.999331236 -0.036549156
    outer loop
      vertex 0.00490075303 0.0263454895 0.00176060095
      vertex 0.0103892004 0.0262798592 0.000133333
      vertex -0.0103905201 0.0263041202 0.000163632998
    endloop
  endfacet
  facet normal 0.00455106148 0.999009685 0.0442598733
    outer loop
      vertex 0.00490075303 0.0263454895 0.00176060095
      vertex -0.00483804895 0.0262978002 0.00383841898
      vertex 0.00483882381 0.02625167 0.00388461305
    endloop
  endfacet
  facet normal -0.788224239 0.614387875 0.0350726194
    outer loop
      vertex -0.0103496304 0.0262631699 0.00179994095
      vertex -0.0103905201 0.0263041202 0.000163632998
      vertex -0.0103888502 0.0252202693 0.0191876199
    endloop
  endfacet
  facet normal -0.02838066 0.997807816 0.0597837867
    outer loop
      vertex -0.0103496304 0.0262631699 0.00179994095
      vertex -0.0103888502 0.0252202693 0.0191876199
      vertex -0.00483804895 0.0262978002 0.00383841898
    endloop
  endfacet
  facet normal -0.0156771109 0.999554267 0.0254066072
    outer loop
      vertex -0.0103496304 0.0262631699 0.00179994095
      vertex -0.00483804895 0.0262978002 0.00383841898
      vertex -0.0103905201 0.0263041202 0.000163632998
    endloop
  endfacet
  facet normal -0.998729 -0.01941912 0.0465110945
    outer loop
      vertex -0.00889307167 0.00934207439 0.0498996302
      vertex -0.0104790898 0.0176780205 0.01932358
      vertex -0.00870937109 -1.03085004e-05 0.0499394499
    endloop
  endfacet
  facet normal -0.998748794 -0.0115815438 0.048648879
    outer loop
      vertex -0.00889307167 0.00934207439 0.0498996302
      vertex -0.00894540455 0.0141099598 0.0499603115
      vertex -0.0104790898 0.0176780205 0.01932358
    endloop
  endfacet
  facet normal -0.523811244 0.015983449 0.851684396
    outer loop
      vertex -0.00708413078 0.0095042577 0.0528213903
      vertex -0.00533032417 0.0143017098 0.0538100004
      vertex -0.00780171109 0.0142384702 0.0522912107
    endloop
  endfacet
  facet normal -0.62897137 -0.00827680028 0.777384403
    outer loop
      vertex -0.00708413078 0.0095042577 0.0528213903
      vertex -0.00780171109 0.0142384702 0.0522912107
      vertex -0.00786077883 0.00935530569 0.0521914288
    endloop
  endfacet
  facet normal -0.620753126 -0.0264429881 0.783560033
    outer loop
      vertex -0.00708413078 0.0095042577 0.0528213903
      vertex -0.00781816244 -3.97311014e-05 0.0519177914
      vertex -0.00569194509 1.10340998e-05 0.0536039397
    endloop
  endfacet
  facet normal -0.626788304 -0.0255254444 0.778771387
    outer loop
      vertex -0.00708413078 0.0095042577 0.0528213903
      vertex -0.00786077883 0.00935530569 0.0521914288
      vertex -0.00781816244 -3.97311014e-05 0.0519177914
    endloop
  endfacet
  facet normal -0.00798761257 -0.00745169768 0.999940333
    outer loop
      vertex -0.00533980085 0.00935518742 0.0538194701
      vertex 3.65234001e-07 0.00155889895 0.0538040288
      vertex 0.00473004486 0.00935137179 0.0538998805
    endloop
  endfacet
  facet normal -0.00798426489 0.0019296451 0.999966263
    outer loop
      vertex -0.00533980085 0.00935518742 0.0538194701
      vertex 0.00473004486 0.00935137179 0.0538998805
      vertex -0.00533032417 0.0143017098 0.0538100004
    endloop
  endfacet
  facet normal -0.016272101 -0.0131259478 0.99978144
    outer loop
      vertex -0.00533980085 0.00935518742 0.0538194701
      vertex -0.00226825406 -3.64760999e-05 0.0537461601
      vertex 3.65234001e-07 0.00155889895 0.0538040288
    endloop
  endfacet
  facet normal -0.0417920831 -0.0214653529 0.99889572
    outer loop
      vertex -0.00533980085 0.00935518742 0.0538194701
      vertex -0.00569194509 1.10340998e-05 0.0536039397
      vertex -0.00226825406 -3.64760999e-05 0.0537461601
    endloop
  endfacet
  facet normal 0.0196875084 -0.999774138 0.00800472305
    outer loop
      vertex 0.0087569952 -2.97773004e-05 0.0472717807
      vertex 0.00867491867 -6.99963994e-06 0.0503185317
      vertex 0.00707507087 -1.88820995e-05 0.05276924
    endloop
  endfacet
  facet normal 0.00830673696 -0.999955268 0.00452318335
    outer loop
      vertex 0.0087569952 -2.97773004e-05 0.0472717807
      vertex 0.00707507087 -1.88820995e-05 0.05276924
      vertex 0.00226306892 -8.3764302e-05 0.0472626612
    endloop
  endfacet
  facet normal 0.971252545 -0.237166352 0.0205089232
    outer loop
      vertex 0.0087569952 -2.97773004e-05 0.0472717807
      vertex 0.0103783002 0.00253522303 0.000152541994
      vertex 0.01035034 0.00256317807 0.00179994095
    endloop
  endfacet
  facet normal 0.991824885 -0.124574749 0.0276501305
    outer loop
      vertex 0.0087569952 -2.97773004e-05 0.0472717807
      vertex 0.01035034 0.00256317807 0.00179994095
      vertex 0.00867491867 -6.99963994e-06 0.0503185317
    endloop
  endfacet
  facet normal -0.000389083206 -0.999983006 -0.00581689435
    outer loop
      vertex 0.0022482269 -7.64219003e-05 0.0427520797
      vertex -0.00224399497 -7.46945007e-05 0.0427556001
      vertex -0.00227373792 -3.68373985e-05 0.0362495705
    endloop
  endfacet
  facet normal 0 -0.999998675 -0.00162781494
    outer loop
      vertex 0.0022482269 -7.64219003e-05 0.0427520797
      vertex 0.00226306892 -8.3764302e-05 0.0472626612
      vertex -0.00226229406 -8.3764302e-05 0.0472626612
    endloop
  endfacet
  facet normal -0.00038610867 -0.999997898 -0.00201391716
    outer loop
      vertex 0.0022482269 -7.64219003e-05 0.0427520797
      vertex -0.00226229406 -8.3764302e-05 0.0472626612
      vertex -0.00224399497 -7.46945007e-05 0.0427556001
    endloop
  endfacet
  facet normal 0.00776808502 -0.999765569 0.0202104813
    outer loop
      vertex 0.00484311488 -1.70612002e-05 0.0537171885
      vertex 0.00226897001 -3.64763982e-05 0.0537461601
      vertex 0.00707507087 -1.88820995e-05 0.05276924
    endloop
  endfacet
  facet normal 0.0114030543 -0.0200480986 0.999733987
    outer loop
      vertex 0.00484311488 -1.70612002e-05 0.0537171885
      vertex 3.65234001e-07 0.00155889895 0.0538040288
      vertex 0.00226897001 -3.64763982e-05 0.0537461601
    endloop
  endfacet
  facet normal 0.0116286486 -0.0193554814 0.999745037
    outer loop
      vertex 0.00484311488 -1.70612002e-05 0.0537171885
      vertex 0.00473004486 0.00935137179 0.0538998805
      vertex 3.65234001e-07 0.00155889895 0.0538040288
    endloop
  endfacet
  facet normal 0.703431902 -0.0098067796 0.710695002
    outer loop
      vertex 0.00686865998 0.00935214665 0.0531028509
      vertex 0.00707507087 -1.88820995e-05 0.05276924
      vertex 0.00773781491 0.00953346398 0.0522450805
    endloop
  endfacet
  facet normal 0.703420369 -0.00968990299 0.710708021
    outer loop
      vertex 0.00686865998 0.00935214665 0.0531028509
      vertex 0.00773781491 0.00953346398 0.0522450805
      vertex 0.00819712784 0.0141149098 0.0518529415
    endloop
  endfacet
  facet normal 0.646140292 0.0199988975 0.762956596
    outer loop
      vertex 0.00686865998 0.00935214665 0.0531028509
      vertex 0.00819712784 0.0141149098 0.0518529415
      vertex 0.00654661609 0.0142905097 0.0532461405
    endloop
  endfacet
  facet normal 0.879643976 0.474961159 0.0252660291
    outer loop
      vertex 0.01035034 0.0262631699 0.00179999997
      vertex 0.0104004703 0.0252534095 0.0190365892
      vertex 0.0103892004 0.0262798592 0.000133333
    endloop
  endfacet
  facet normal 0.0200106883 0.998091961 0.0584124044
    outer loop
      vertex 0.01035034 0.0262631699 0.00179999997
      vertex 0.00483882381 0.02625167 0.00388461305
      vertex 0.0104004703 0.0252534095 0.0190365892
    endloop
  endfacet
  facet normal 0.0150282252 0.999833374 0.0103623113
    outer loop
      vertex 0.01035034 0.0262631699 0.00179999997
      vertex 0.0103892004 0.0262798592 0.000133333
      vertex 0.00490075303 0.0263454895 0.00176060095
    endloop
  endfacet
  facet normal 0.0147669062 0.998897886 0.0445527955
    outer loop
      vertex 0.01035034 0.0262631699 0.00179999997
      vertex 0.00490075303 0.0263454895 0.00176060095
      vertex 0.00483882381 0.02625167 0.00388461305
    endloop
  endfacet
  facet normal -0.00452642557 0.999953126 0.00855900351
    outer loop
      vertex -0.00491309119 0.0263150893 0.00177884102
      vertex -0.0103905201 0.0263041202 0.000163632998
      vertex -0.00483804895 0.0262978002 0.00383841898
    endloop
  endfacet
  facet normal -0.00309079369 0.999988414 0.0036903064
    outer loop
      vertex -0.00491309119 0.0263150893 0.00177884102
      vertex 0.00490075303 0.0263454895 0.00176060095
      vertex -0.0103905201 0.0263041202 0.000163632998
    endloop
  endfacet
  facet normal -0.00308175155 0.999959071 0.00850641564
    outer loop
      vertex -0.00491309119 0.0263150893 0.00177884102
      vertex -0.00483804895 0.0262978002 0.00383841898
      vertex 0.00490075303 0.0263454895 0.00176060095
    endloop
  endfacet
  facet normal -0.897941915 0.0372083161 0.438538321
    outer loop
      vertex -0.00839465763 0.00971269608 0.0514611006
      vertex -0.00780171109 0.0142384702 0.0522912107
      vertex -0.00894540455 0.0141099598 0.0499603115
    endloop
  endfacet
  facet normal -0.8078251 -0.00227246818 0.589417885
    outer loop
      vertex -0.00839465763 0.00971269608 0.0514611006
      vertex -0.00786077883 0.00935530569 0.0521914288
      vertex -0.00780171109 0.0142384702 0.0522912107
    endloop
  endfacet
  facet normal -0.951556358 -0.0143533805 0.307139184
    outer loop
      vertex -0.00839465763 0.00971269608 0.0514611006
      vertex -0.00894540455 0.0141099598 0.0499603115
      vertex -0.00889307167 0.00934207439 0.0498996302
    endloop
  endfacet
  facet normal -0.811918382 -0.0206750045 0.583404735
    outer loop
      vertex -0.00839465763 0.00971269608 0.0514611006
      vertex -0.00781816244 -3.97311014e-05 0.0519177914
      vertex -0.00786077883 0.00935530569 0.0521914288
    endloop
  endfacet
  facet normal -0.911401499 -0.0346734469 0.410054947
    outer loop
      vertex -0.00839465763 0.00971269608 0.0514611006
      vertex -0.00870937109 -1.03085004e-05 0.0499394499
      vertex -0.00781816244 -3.97311014e-05 0.0519177914
    endloop
  endfacet
  facet normal -0.951300581 -0.0173751436 0.307774769
    outer loop
      vertex -0.00839465763 0.00971269608 0.0514611006
      vertex -0.00889307167 0.00934207439 0.0498996302
      vertex -0.00870937109 -1.03085004e-05 0.0499394499
    endloop
  endfacet
  facet normal -0.496997452 0.00287105045 0.86774725
    outer loop
      vertex -0.00546771195 0.00949096587 0.0537472293
      vertex -0.00533032417 0.0143017098 0.0538100004
      vertex -0.00708413078 0.0095042577 0.0528213903
    endloop
  endfacet
  facet normal -0.489662995 0.00260730074 0.871907881
    outer loop
      vertex -0.00546771195 0.00949096587 0.0537472293
      vertex -0.00533980085 0.00935518742 0.0538194701
      vertex -0.00533032417 0.0143017098 0.0538100004
    endloop
  endfacet
  facet normal -0.497025236 -0.00135948718 0.867735021
    outer loop
      vertex -0.00546771195 0.00949096587 0.0537472293
      vertex -0.00708413078 0.0095042577 0.0528213903
      vertex -0.00569194509 1.10340998e-05 0.0536039397
    endloop
  endfacet
  facet normal -0.49296303 -0.00149054799 0.870048981
    outer loop
      vertex -0.00546771195 0.00949096587 0.0537472293
      vertex -0.00569194509 1.10340998e-05 0.0536039397
      vertex -0.00533980085 0.00935518742 0.0538194701
    endloop
  endfacet
  facet normal 0.000539014999 -0.999978974 -0.00646228642
    outer loop
      vertex 0.00227022101 -3.43831016e-05 0.0362487994
      vertex 0.0022482269 -7.64219003e-05 0.0427520797
      vertex -0.00227373792 -3.68373985e-05 0.0362495705
    endloop
  endfacet
  facet normal 0.00698239993 -0.999954883 -0.00644033914
    outer loop
      vertex 0.00227022101 -3.43831016e-05 0.0362487994
      vertex 0.00876259804 1.08414997e-05 0.0362658501
      vertex 0.0022482269 -7.64219003e-05 0.0427520797
    endloop
  endfacet
  facet normal 0.00713111608 -0.997562571 -0.0694122722
    outer loop
      vertex 0.00227022101 -3.43831016e-05 0.0362487994
      vertex 0.0103783002 0.00253522303 0.000152541994
      vertex 0.00876259804 1.08414997e-05 0.0362658501
    endloop
  endfacet
  facet normal 0.000590084729 -0.997484958 -0.0708760186
    outer loop
      vertex 0.00227022101 -3.43831016e-05 0.0362487994
      vertex -0.0103662601 0.00252431608 0.000133331996
      vertex 0.0103783002 0.00253522303 0.000152541994
    endloop
  endfacet
  facet normal 0.000526741162 -0.99748656 -0.0708539687
    outer loop
      vertex 0.00227022101 -3.43831016e-05 0.0362487994
      vertex -0.00227373792 -3.68373985e-05 0.0362495705
      vertex -0.0103662601 0.00252431608 0.000133331996
    endloop
  endfacet
  facet normal 0.00729797158 -0.999954621 -0.0061233948
    outer loop
      vertex 0.00875890162 -2.87572002e-05 0.0427279398
      vertex 0.0022482269 -7.64219003e-05 0.0427520797
      vertex 0.00876259804 1.08414997e-05 0.0362658501
    endloop
  endfacet
  facet normal 0.822087944 -0.569352526 -0.00301865789
    outer loop
      vertex 0.00875890162 -2.87572002e-05 0.0427279398
      vertex 0.00876259804 1.08414997e-05 0.0362658501
      vertex 0.0103783002 0.00253522303 0.000152541994
    endloop
  endfacet
  facet normal 0.847248824 -0.531196172 0.000236217893
    outer loop
      vertex 0.00875890162 -2.87572002e-05 0.0427279398
      vertex 0.0103783002 0.00253522303 0.000152541994
      vertex 0.0087569952 -2.97773004e-05 0.0472717807
    endloop
  endfacet
  facet normal 0.00831348367 -0.999965418 -0.000221005962
    outer loop
      vertex 0.00875890162 -2.87572002e-05 0.0427279398
      vertex 0.0087569952 -2.97773004e-05 0.0472717807
      vertex 0.00226306892 -8.3764302e-05 0.0472626612
    endloop
  endfacet
  facet normal 0.00731467732 -0.999971883 -0.0016518402
    outer loop
      vertex 0.00875890162 -2.87572002e-05 0.0427279398
      vertex 0.00226306892 -8.3764302e-05 0.0472626612
      vertex 0.0022482269 -7.64219003e-05 0.0427520797
    endloop
  endfacet
  facet normal 0.0611834193 -0.0187224057 0.997950931
    outer loop
      vertex 0.0055322051 0.00971704721 0.0538575612
      vertex 0.00473004486 0.00935137179 0.0538998805
      vertex 0.00484311488 -1.70612002e-05 0.0537171885
    endloop
  endfacet
  facet normal 0.493142495 0.00691786337 0.869921044
    outer loop
      vertex 0.0055322051 0.00971704721 0.0538575612
      vertex 0.00686865998 0.00935214665 0.0531028509
      vertex 0.00654661609 0.0142905097 0.0532461405
    endloop
  endfacet
  facet normal 0.39056406 -0.040910771 0.919666257
    outer loop
      vertex 0.0055322051 0.00971704721 0.0538575612
      vertex 0.00484311488 -1.70612002e-05 0.0537171885
      vertex 0.00707507087 -1.88820995e-05 0.05276924
    endloop
  endfacet
  facet normal 0.48740434 -0.0203410504 0.872939432
    outer loop
      vertex 0.0055322051 0.00971704721 0.0538575612
      vertex 0.00707507087 -1.88820995e-05 0.05276924
      vertex 0.00686865998 0.00935214665 0.0531028509
    endloop
  endfacet
  facet normal 0.0467496278 0.0130408878 0.998821509
    outer loop
      vertex 0.0055322051 0.00971704721 0.0538575612
      vertex 0.00480043795 0.01433104 0.0538315699
      vertex 0.00473004486 0.00935137179 0.0538998805
    endloop
  endfacet
  facet normal 0.318543084 0.0558505392 0.946261603
    outer loop
      vertex 0.0055322051 0.00971704721 0.0538575612
      vertex 0.00654661609 0.0142905097 0.0532461405
      vertex 0.00480043795 0.01433104 0.0538315699
    endloop
  endfacet
endsolid finger_convex_hull
