mtllib material.mtl
usemtl Material-塑胶__1__016-material
v -0.08031800 -0.01451400 0.04220200
v -0.08042100 -0.01451400 0.04192000
v -0.08012400 -0.01627500 0.04181200
v -0.08002100 -0.01627500 0.04209400
v -0.07941200 -0.01789600 0.04155300
v -0.07930900 -0.01789600 0.04183500
v -0.07833200 -0.01926800 0.04116000
v -0.07822900 -0.01926800 0.04144100
v -0.07695600 -0.02029800 0.04065900
v -0.07685400 -0.02029800 0.04094100
v -0.07354200 -0.02202300 0.03941600
v -0.07343900 -0.02202300 0.03969800
v -0.07000900 -0.02345200 0.03813000
v -0.06990600 -0.02345200 0.03841200
v -0.06637900 -0.02457700 0.03680900
v -0.06627700 -0.02457700 0.03709100
v -0.06472300 -0.02468600 0.03620600
v -0.06462000 -0.02468600 0.03648800
v -0.06313700 -0.02416300 0.03562900
v -0.06303400 -0.02416300 0.03591100
v -0.06182900 -0.02307600 0.03515300
v -0.06172600 -0.02307600 0.03543500
v -0.06096700 -0.02156600 0.03483900
v -0.06086500 -0.02156600 0.03512100
v -0.06066500 -0.01982900 0.03473000
v -0.06056300 -0.01982900 0.03501100
v -0.06046500 0.04179100 0.03497600
v -0.06056800 0.04179100 0.03469400
v -0.06086400 0.04352900 0.03480200
v -0.06076100 0.04352900 0.03508400
v -0.06172000 0.04504200 0.03511400
v -0.06161800 0.04504200 0.03539500
v -0.06302500 0.04613400 0.03558800
v -0.06292300 0.04613400 0.03587000
v -0.06460900 0.04666200 0.03616500
v -0.06450700 0.04666200 0.03644700
v -0.06626600 0.04655900 0.03676800
v -0.06616400 0.04655900 0.03705000
v -0.06989900 0.04544700 0.03809000
v -0.06979600 0.04544700 0.03837200
v -0.07343700 0.04403100 0.03937800
v -0.07333400 0.04403100 0.03966000
v -0.07685700 0.04231800 0.04062300
v -0.07675400 0.04231800 0.04090500
v -0.07823500 0.04129300 0.04112500
v -0.07813300 0.04129300 0.04140600
v -0.07932000 0.03992500 0.04151900
v -0.07921700 0.03992500 0.04180100
v -0.08003700 0.03830700 0.04178000
v -0.07993500 0.03830700 0.04206200
v -0.08033900 0.03654700 0.04189000
v -0.08023700 0.03654700 0.04217200
v -0.08088900 0.01953000 0.04209000
v -0.08078600 0.01953000 0.04237200
v -0.08091600 0.00250400 0.04210000
v -0.08081300 0.00250400 0.04238200
v -0.06046500 0.04179100 0.03497600
v -0.06046500 0.04179100 0.03497600
v -0.08078600 0.01953000 0.04237200
v -0.08078600 0.01953000 0.04237200
v -0.08078600 0.01953000 0.04237200
v -0.08078600 0.01953000 0.04237200
v -0.08078600 0.01953000 0.04237200
v -0.08078600 0.01953000 0.04237200
v -0.08078600 0.01953000 0.04237200
v -0.08078600 0.01953000 0.04237200
v -0.08078600 0.01953000 0.04237200
v -0.06056300 -0.01982900 0.03501100
v -0.06056300 -0.01982900 0.03501100
v -0.06056300 -0.01982900 0.03501100
v -0.08081300 0.00250400 0.04238200
v -0.08081300 0.00250400 0.04238200
v -0.08081300 0.00250400 0.04238200
v -0.08081300 0.00250400 0.04238200
v -0.08081300 0.00250400 0.04238200
v -0.08081300 0.00250400 0.04238200
v -0.08081300 0.00250400 0.04238200
v -0.08081300 0.00250400 0.04238200
v -0.08081300 0.00250400 0.04238200
v -0.06086500 -0.02156600 0.03512100
v -0.06086500 -0.02156600 0.03512100
v -0.06450700 0.04666200 0.03644700
v -0.06450700 0.04666200 0.03644700
v -0.06450700 0.04666200 0.03644700
v -0.06616400 0.04655900 0.03705000
v -0.06616400 0.04655900 0.03705000
v -0.06979600 0.04544700 0.03837200
v -0.06979600 0.04544700 0.03837200
v -0.07333400 0.04403100 0.03966000
v -0.07333400 0.04403100 0.03966000
v -0.08023700 0.03654700 0.04217200
v -0.08023700 0.03654700 0.04217200
v -0.08023700 0.03654700 0.04217200
v -0.07333400 0.04403100 0.03966000
v -0.07675400 0.04231800 0.04090500
v -0.07675400 0.04231800 0.04090500
v -0.07993500 0.03830700 0.04206200
v -0.07993500 0.03830700 0.04206200
v -0.07993500 0.03830700 0.04206200
v -0.07675400 0.04231800 0.04090500
v -0.07813300 0.04129300 0.04140600
v -0.07813300 0.04129300 0.04140600
v -0.07921700 0.03992500 0.04180100
v -0.06627700 -0.02457700 0.03709100
v -0.06627700 -0.02457700 0.03709100
v -0.06462000 -0.02468600 0.03648800
v -0.06462000 -0.02468600 0.03648800
v -0.06292300 0.04613400 0.03587000
v -0.06161800 0.04504200 0.03539500
v -0.06161800 0.04504200 0.03539500
v -0.06161800 0.04504200 0.03539500
v -0.06076100 0.04352900 0.03508400
v -0.06076100 0.04352900 0.03508400
v -0.07930900 -0.01789600 0.04183500
v -0.07822900 -0.01926800 0.04144100
v -0.07822900 -0.01926800 0.04144100
v -0.08002100 -0.01627500 0.04209400
v -0.08002100 -0.01627500 0.04209400
v -0.08002100 -0.01627500 0.04209400
v -0.07685400 -0.02029800 0.04094100
v -0.07685400 -0.02029800 0.04094100
v -0.07685400 -0.02029800 0.04094100
v -0.08031800 -0.01451400 0.04220200
v -0.08031800 -0.01451400 0.04220200
v -0.08031800 -0.01451400 0.04220200
v -0.07343900 -0.02202300 0.03969800
v -0.07343900 -0.02202300 0.03969800
v -0.07343900 -0.02202300 0.03969800
v -0.06990600 -0.02345200 0.03841200
v -0.06990600 -0.02345200 0.03841200
v -0.06303400 -0.02416300 0.03591100
v -0.06303400 -0.02416300 0.03591100
v -0.06172600 -0.02307600 0.03543500
v -0.06172600 -0.02307600 0.03543500
v -0.06172000 0.04504200 0.03511400
v -0.06172000 0.04504200 0.03511400
v -0.06172000 0.04504200 0.03511400
v -0.06172000 0.04504200 0.03511400
v -0.06086400 0.04352900 0.03480200
v -0.06056800 0.04179100 0.03469400
v -0.06056800 0.04179100 0.03469400
v -0.06056800 0.04179100 0.03469400
v -0.06056800 0.04179100 0.03469400
v -0.06472300 -0.02468600 0.03620600
v -0.06472300 -0.02468600 0.03620600
v -0.06637900 -0.02457700 0.03680900
v -0.06637900 -0.02457700 0.03680900
v -0.08091600 0.00250400 0.04210000
v -0.08091600 0.00250400 0.04210000
v -0.08091600 0.00250400 0.04210000
v -0.08091600 0.00250400 0.04210000
v -0.08091600 0.00250400 0.04210000
v -0.08091600 0.00250400 0.04210000
v -0.08091600 0.00250400 0.04210000
v -0.08091600 0.00250400 0.04210000
v -0.08091600 0.00250400 0.04210000
v -0.08091600 0.00250400 0.04210000
v -0.06066500 -0.01982900 0.03473000
v -0.06066500 -0.01982900 0.03473000
v -0.06096700 -0.02156600 0.03483900
v -0.06096700 -0.02156600 0.03483900
v -0.06182900 -0.02307600 0.03515300
v -0.06182900 -0.02307600 0.03515300
v -0.06313700 -0.02416300 0.03562900
v -0.06313700 -0.02416300 0.03562900
v -0.07000900 -0.02345200 0.03813000
v -0.07000900 -0.02345200 0.03813000
v -0.07354200 -0.02202300 0.03941600
v -0.07354200 -0.02202300 0.03941600
v -0.07354200 -0.02202300 0.03941600
v -0.08042100 -0.01451400 0.04192000
v -0.08042100 -0.01451400 0.04192000
v -0.08042100 -0.01451400 0.04192000
v -0.07695600 -0.02029800 0.04065900
v -0.07695600 -0.02029800 0.04065900
v -0.07695600 -0.02029800 0.04065900
v -0.08012400 -0.01627500 0.04181200
v -0.08012400 -0.01627500 0.04181200
v -0.08012400 -0.01627500 0.04181200
v -0.07833200 -0.01926800 0.04116000
v -0.07833200 -0.01926800 0.04116000
v -0.07941200 -0.01789600 0.04155300
v -0.07932000 0.03992500 0.04151900
v -0.07823500 0.04129300 0.04112500
v -0.07823500 0.04129300 0.04112500
v -0.08003700 0.03830700 0.04178000
v -0.08003700 0.03830700 0.04178000
v -0.08003700 0.03830700 0.04178000
v -0.07685700 0.04231800 0.04062300
v -0.07685700 0.04231800 0.04062300
v -0.07685700 0.04231800 0.04062300
v -0.08033900 0.03654700 0.04189000
v -0.08033900 0.03654700 0.04189000
v -0.08033900 0.03654700 0.04189000
v -0.07343700 0.04403100 0.03937800
v -0.07343700 0.04403100 0.03937800
v -0.07343700 0.04403100 0.03937800
v -0.08088900 0.01953000 0.04209000
v -0.08088900 0.01953000 0.04209000
v -0.08088900 0.01953000 0.04209000
v -0.08088900 0.01953000 0.04209000
v -0.08088900 0.01953000 0.04209000
v -0.08088900 0.01953000 0.04209000
v -0.08088900 0.01953000 0.04209000
v -0.06989900 0.04544700 0.03809000
v -0.06989900 0.04544700 0.03809000
v -0.06626600 0.04655900 0.03676800
v -0.06626600 0.04655900 0.03676800
v -0.06460900 0.04666200 0.03616500
v -0.06460900 0.04666200 0.03616500
v -0.06460900 0.04666200 0.03616500
v -0.06302500 0.04613400 0.03558800
vn -0.93193900 -0.12816900 0.33920800
vn -0.93670600 -0.07962600 0.34094300
vn -0.90719200 -0.26071700 0.33019600
vn -0.88242900 -0.34374300 0.32118400
vn -0.81366400 -0.50023600 0.29616800
vn -0.76967400 -0.57369400 0.28013800
vn -0.66541900 -0.70608600 0.24219800
vn -0.60519500 -0.76499400 0.22028000
vn -0.49643600 -0.84905900 0.18069100
vn -0.45037600 -0.87766100 0.16393000
vn -0.38022300 -0.91448300 0.13838700
vn -0.35717200 -0.92494700 0.13000100
vn -0.31036500 -0.94388100 0.11297300
vn -0.28659700 -0.95235600 0.10431100
vn -0.19557200 -0.97810300 0.07118200
vn -0.12711800 -0.99080800 0.04627300
vn 0.05463700 -0.99830800 -0.01987600
vn 0.16836300 -0.98381900 -0.06126900
vn 0.38379300 -0.91279800 -0.13964900
vn 0.48529200 -0.85632700 -0.17662100
vn 0.66299800 -0.70867700 -0.24126900
vn 0.73905300 -0.61760200 -0.26901400
vn 0.85604700 -0.41244000 -0.31157000
vn 0.89682300 -0.29857800 -0.32643600
vn 0.93264000 -0.12225200 -0.33946500
vn 0.93788100 -0.06201400 -0.34137100
vn 0.93302600 0.11889600 -0.33959700
vn 0.93807000 0.05863700 -0.34144800
vn 0.89776000 0.29536400 -0.32678400
vn 0.85735700 0.40933400 -0.31206400
vn 0.74101700 0.61493200 -0.26972600
vn 0.66521500 0.70630500 -0.24212100
vn 0.48797700 0.85459700 -0.17760400
vn 0.38668700 0.91140400 -0.14076700
vn 0.17148900 0.98320800 -0.06239500
vn 0.05783900 0.99810400 -0.02105600
vn -0.12396600 0.99126000 0.04512300
vn -0.19245700 0.97880300 0.07003800
vn -0.28356100 0.95338400 0.10321300
vn -0.30731500 0.94501100 0.11185800
vn -0.35421900 0.92623200 0.12893100
vn -0.37731100 0.91584700 0.13733500
vn -0.44759100 0.87927300 0.16291700
vn -0.49373600 0.85083800 0.17972000
vn -0.60273000 0.76719200 0.21939100
vn -0.66317900 0.70847200 0.24137500
vn -0.76785600 0.57644200 0.27948400
vn -0.81207900 0.50315300 0.29557600
vn -0.88131700 0.34693500 0.32080500
vn -0.90635500 0.26399400 0.32989200
vn -0.93152600 0.13152900 0.33905800
vn -0.93644700 0.08300000 0.34084900
vn -0.93943200 0.02341300 0.34193600
vn -0.93961500 0.01259400 0.34200300
vn -0.93964900 -0.00916400 0.34201700
vn -0.93950000 -0.02003300 0.34196100
vn 0.34202100 0.00000000 0.93969200
vn 0.34201300 0.00000800 0.93969500
vn 0.34201700 -0.00000200 0.93969400
vn 0.34202100 0.00000000 0.93969200
vn 0.34202700 -0.00000200 0.93969000
vn 0.34201900 0.00000000 0.93969300
vn 0.34199700 0.00001300 0.93970100
vn 0.34203000 -0.00000700 0.93968900
vn 0.34202200 0.00000000 0.93969200
vn 0.34201300 0.00000800 0.93969500
vn 0.34202400 -0.00000000 0.93969100
vn 0.34202100 0.00000000 0.93969200
vn 0.34202600 0.00000500 0.93969000
vn 0.34201700 -0.00000200 0.93969400
vn 0.34202600 0.00000500 0.93969000
vn 0.34201700 -0.00000200 0.93969400
vn 0.34202500 0.00000200 0.93969100
vn 0.34202000 0.00000100 0.93969300
vn 0.34200600 -0.00000800 0.93969800
vn 0.34201400 -0.00000100 0.93969500
vn 0.34203700 0.00001000 0.93968600
vn 0.34203300 0.00001000 0.93968800
vn 0.34201000 -0.00000900 0.93969600
vn 0.34202600 0.00000500 0.93969000
vn 0.34201000 -0.00000900 0.93969600
vn 0.34203000 -0.00000700 0.93968900
vn 0.34200400 -0.00003900 0.93969800
vn 0.34199700 0.00001300 0.93970100
vn 0.34199700 0.00001300 0.93970100
vn 0.34202700 -0.00000200 0.93969000
vn 0.34201900 0.00000000 0.93969300
vn 0.34202700 -0.00000200 0.93969000
vn 0.34202400 -0.00000000 0.93969100
vn 0.34201900 0.00000000 0.93969300
vn 0.34203100 -0.00001200 0.93968900
vn 0.34202400 -0.00000000 0.93969100
vn 0.34197700 0.00002500 0.93970800
vn 0.34203100 -0.00001200 0.93968900
vn 0.34197700 0.00002500 0.93970800
vn 0.34203100 -0.00001200 0.93968900
vn 0.34197700 0.00002500 0.93970800
vn 0.34202300 0.00000000 0.93969200
vn 0.34199100 0.00002400 0.93970300
vn 0.34199100 0.00002400 0.93970300
vn 0.34202300 0.00000000 0.93969200
vn 0.34199100 0.00002400 0.93970300
vn 0.34202300 0.00000000 0.93969200
vn 0.34201400 -0.00000100 0.93969500
vn 0.34203700 0.00001000 0.93968600
vn 0.34203700 0.00001000 0.93968600
vn 0.34200600 -0.00000800 0.93969800
vn 0.34200400 -0.00003900 0.93969800
vn 0.34202200 0.00000000 0.93969200
vn 0.34200400 -0.00003900 0.93969800
vn 0.34203000 -0.00000700 0.93968900
vn 0.34202200 0.00000000 0.93969200
vn 0.34201300 0.00000800 0.93969500
vn 0.34193000 -0.00007100 0.93972500
vn 0.34204900 0.00001800 0.93968200
vn 0.34193000 -0.00007100 0.93972500
vn 0.34203900 0.00001200 0.93968600
vn 0.34193000 -0.00007100 0.93972500
vn 0.34204900 0.00001800 0.93968200
vn 0.34203900 0.00001200 0.93968600
vn 0.34200900 -0.00000800 0.93969700
vn 0.34204900 0.00001800 0.93968200
vn 0.34200900 -0.00000800 0.93969700
vn 0.34203900 0.00001200 0.93968600
vn 0.34202000 0.00000100 0.93969300
vn 0.34202500 0.00000200 0.93969100
vn 0.34202000 0.00000100 0.93969300
vn 0.34200900 -0.00000800 0.93969700
vn 0.34202500 0.00000200 0.93969100
vn 0.34201400 -0.00000100 0.93969500
vn 0.34200600 -0.00000800 0.93969800
vn 0.34203300 0.00001000 0.93968800
vn 0.34203300 0.00001000 0.93968800
vn 0.34201000 -0.00000900 0.93969600
vn -0.34199200 0.00000800 -0.93970300
vn -0.34201700 -0.00000000 -0.93969400
vn -0.34201600 -0.00000200 -0.93969400
vn -0.34199800 0.00002600 -0.93970100
vn -0.34199200 0.00000800 -0.93970300
vn -0.34199200 0.00000800 -0.93970300
vn -0.34202100 0.00000000 -0.93969200
vn -0.34201600 -0.00000200 -0.93969400
vn -0.34201600 -0.00000200 -0.93969400
vn -0.34203600 -0.00001000 -0.93968700
vn -0.34200900 0.00001000 -0.93969700
vn -0.34203600 -0.00001000 -0.93968700
vn -0.34202400 -0.00000200 -0.93969100
vn -0.34201400 0.00000400 -0.93969500
vn -0.34201700 0.00000200 -0.93969400
vn -0.34203600 -0.00001100 -0.93968700
vn -0.34202700 -0.00000400 -0.93969000
vn -0.34203600 -0.00001000 -0.93968700
vn -0.34202100 0.00000000 -0.93969200
vn -0.34201600 -0.00000200 -0.93969400
vn -0.34200900 0.00001000 -0.93969700
vn -0.34200800 0.00000900 -0.93969700
vn -0.34202400 -0.00000200 -0.93969100
vn -0.34202700 -0.00000400 -0.93969000
vn -0.34202100 0.00000000 -0.93969200
vn -0.34202700 -0.00000400 -0.93969000
vn -0.34203600 -0.00001100 -0.93968700
vn -0.34203600 -0.00001100 -0.93968700
vn -0.34200800 0.00000900 -0.93969700
vn -0.34200900 0.00001000 -0.93969700
vn -0.34200800 0.00000900 -0.93969700
vn -0.34202400 -0.00000200 -0.93969100
vn -0.34201400 0.00000400 -0.93969500
vn -0.34201400 0.00000400 -0.93969500
vn -0.34203800 -0.00002000 -0.93968600
vn -0.34201700 0.00000200 -0.93969400
vn -0.34203800 -0.00002000 -0.93968600
vn -0.34201700 0.00000200 -0.93969400
vn -0.34201900 -0.00000600 -0.93969300
vn -0.34203800 -0.00002000 -0.93968600
vn -0.34198400 0.00001500 -0.93970600
vn -0.34201900 -0.00000600 -0.93969300
vn -0.34198400 0.00001500 -0.93970600
vn -0.34211000 -0.00005300 -0.93966000
vn -0.34201900 -0.00000600 -0.93969300
vn -0.34198400 0.00001500 -0.93970600
vn -0.34211000 -0.00005300 -0.93966000
vn -0.34211000 -0.00005300 -0.93966000
vn -0.34199100 -0.00001800 -0.93970300
vn -0.34199100 -0.00001800 -0.93970300
vn -0.34204800 0.00001500 -0.93968200
vn -0.34199100 -0.00001800 -0.93970300
vn -0.34204600 0.00001200 -0.93968300
vn -0.34204800 0.00001500 -0.93968200
vn -0.34204600 0.00001200 -0.93968300
vn -0.34202200 -0.00000000 -0.93969200
vn -0.34204800 0.00001500 -0.93968200
vn -0.34204600 0.00001200 -0.93968300
vn -0.34202200 -0.00000000 -0.93969200
vn -0.34202400 0.00000200 -0.93969100
vn -0.34202200 -0.00000000 -0.93969200
vn -0.34202400 0.00000200 -0.93969100
vn -0.34202200 0.00000100 -0.93969200
vn -0.34201500 -0.00000200 -0.93969400
vn -0.34202200 0.00000100 -0.93969200
vn -0.34202400 0.00000200 -0.93969100
vn -0.34201700 -0.00000000 -0.93969400
vn -0.34202900 0.00000600 -0.93968900
vn -0.34201600 -0.00000200 -0.93969400
vn -0.34201600 -0.00000200 -0.93969400
vn -0.34202200 0.00000100 -0.93969200
vn -0.34201500 -0.00000200 -0.93969400
vn -0.34202900 0.00000600 -0.93968900
vn -0.34201500 -0.00000200 -0.93969400
vn -0.34202900 0.00000600 -0.93968900
vn -0.34201700 -0.00000000 -0.93969400
vn -0.34199800 0.00002600 -0.93970100
vn -0.34199800 0.00002600 -0.93970100
f 1//1 2//2 3//3
f 1//1 3//3 4//4
f 4//4 3//3 5//5
f 4//4 5//5 6//6
f 6//6 5//5 7//7
f 6//6 7//7 8//8
f 8//8 7//7 9//9
f 8//8 9//9 10//10
f 10//10 9//9 11//11
f 10//10 11//11 12//12
f 12//12 11//11 13//13
f 12//12 13//13 14//14
f 14//14 13//13 15//15
f 14//14 15//15 16//16
f 16//16 15//15 17//17
f 16//16 17//17 18//18
f 18//18 17//17 19//19
f 18//18 19//19 20//20
f 20//20 19//19 21//21
f 20//20 21//21 22//22
f 22//22 21//21 23//23
f 22//22 23//23 24//24
f 24//24 23//23 25//25
f 24//24 25//25 26//26
f 27//27 26//26 28//28
f 28//28 26//26 25//25
f 27//27 28//28 29//29
f 27//27 29//29 30//30
f 30//30 29//29 31//31
f 30//30 31//31 32//32
f 32//32 31//31 33//33
f 32//32 33//33 34//34
f 34//34 33//33 35//35
f 34//34 35//35 36//36
f 36//36 35//35 37//37
f 36//36 37//37 38//38
f 38//38 37//37 39//39
f 38//38 39//39 40//40
f 40//40 39//39 41//41
f 40//40 41//41 42//42
f 42//42 41//41 43//43
f 42//42 43//43 44//44
f 44//44 43//43 45//45
f 44//44 45//45 46//46
f 46//46 45//45 47//47
f 46//46 47//47 48//48
f 48//48 47//47 49//49
f 48//48 49//49 50//50
f 50//50 49//49 51//51
f 50//50 51//51 52//52
f 52//52 51//51 53//53
f 52//52 53//53 54//54
f 54//54 53//53 55//55
f 54//54 55//55 56//56
f 56//56 55//55 2//2
f 56//56 2//2 1//1
f 57//57 60//60 68//68
f 70//70 59//59 72//72
f 69//69 71//71 80//80
f 84//84 85//85 63//63
f 86//86 88//88 61//61
f 62//62 87//87 90//90
f 67//67 89//89 92//92
f 91//91 94//94 96//96
f 93//93 95//95 97//97
f 99//99 100//100 102//102
f 98//98 101//101 103//103
f 77//77 105//105 106//106
f 108//108 83//83 110//110
f 111//111 82//82 64//64
f 109//109 65//65 112//112
f 113//113 66//66 58//58
f 114//114 116//116 118//118
f 119//119 115//115 122//122
f 117//117 120//120 124//124
f 123//123 121//121 128//128
f 125//125 127//127 74//74
f 73//73 126//126 129//129
f 76//76 130//130 104//104
f 107//107 131//131 75//75
f 78//78 132//132 133//133
f 79//79 134//134 81//81
f 135//135 139//139 140//140
f 144//144 146//146 152//152
f 151//151 158//158 160//160
f 161//161 162//162 150//150
f 156//156 163//163 165//165
f 155//155 164//164 145//145
f 147//147 166//166 157//157
f 148//148 167//167 168//168
f 149//149 170//170 172//172
f 171//171 169//169 174//174
f 173//173 176//176 179//179
f 177//177 175//175 180//180
f 178//178 181//181 182//182
f 183//183 184//184 186//186
f 188//188 185//185 191//191
f 187//187 189//189 192//192
f 193//193 190//190 195//195
f 194//194 196//196 200//200
f 197//197 205//205 199//199
f 198//198 206//206 208//208
f 202//202 207//207 209//209
f 159//159 153//153 141//141
f 142//142 154//154 204//204
f 143//143 203//203 137//137
f 136//136 201//201 210//210
f 138//138 211//211 212//212

